%TF.GenerationSoftware,KiCad,Pcbnew,9.0.1*%
%TF.CreationDate,2026-01-20T22:12:41+01:00*%
%TF.ProjectId,asd,6173642e-6b69-4636-9164-5f7063625858,rev?*%
%TF.SameCoordinates,Original*%
%TF.FileFunction,Other,User*%
%FSLAX46Y46*%
G04 Gerber Fmt 4.6, Leading zero omitted, Abs format (unit mm)*
G04 Created by KiCad (PCBNEW 9.0.1) date 2026-01-20 22:12:41*
%MOMM*%
%LPD*%
G01*
G04 APERTURE LIST*
%ADD10C,0.050000*%
G04 APERTURE END LIST*
D10*
%TO.C,JP2*%
X197750000Y-105600000D02*
X197750000Y-108900000D01*
X197750000Y-105600000D02*
X200250000Y-105600000D01*
X200250000Y-108900000D02*
X197750000Y-108900000D01*
X200250000Y-108900000D02*
X200250000Y-105600000D01*
%TO.C,JP4*%
X205250000Y-103575000D02*
X205250000Y-106875000D01*
X205250000Y-103575000D02*
X207750000Y-103575000D01*
X207750000Y-106875000D02*
X205250000Y-106875000D01*
X207750000Y-106875000D02*
X207750000Y-103575000D01*
%TO.C,J24*%
X139115000Y-121737500D02*
X142655000Y-121737500D01*
X139115000Y-137977500D02*
X139115000Y-121737500D01*
X142655000Y-121737500D02*
X142655000Y-137977500D01*
X142655000Y-137977500D02*
X139115000Y-137977500D01*
%TO.C,JP3*%
X159750000Y-113350000D02*
X159750000Y-116650000D01*
X159750000Y-113350000D02*
X162250000Y-113350000D01*
X162250000Y-116650000D02*
X159750000Y-116650000D01*
X162250000Y-116650000D02*
X162250000Y-113350000D01*
%TO.C,J23*%
X139115000Y-98907500D02*
X142655000Y-98907500D01*
X139115000Y-120227500D02*
X139115000Y-98907500D01*
X142655000Y-98907500D02*
X142655000Y-120227500D01*
X142655000Y-120227500D02*
X139115000Y-120227500D01*
%TO.C,JP6*%
X197750000Y-100825000D02*
X197750000Y-104125000D01*
X197750000Y-100825000D02*
X200250000Y-100825000D01*
X200250000Y-104125000D02*
X197750000Y-104125000D01*
X200250000Y-104125000D02*
X200250000Y-100825000D01*
%TO.C,J26*%
X188265000Y-116707500D02*
X191805000Y-116707500D01*
X188265000Y-138027500D02*
X188265000Y-116707500D01*
X191805000Y-116707500D02*
X191805000Y-138027500D01*
X191805000Y-138027500D02*
X188265000Y-138027500D01*
%TO.C,JP5*%
X152000000Y-111125000D02*
X152000000Y-114425000D01*
X152000000Y-111125000D02*
X154500000Y-111125000D01*
X154500000Y-114425000D02*
X152000000Y-114425000D01*
X154500000Y-114425000D02*
X154500000Y-111125000D01*
%TO.C,J25*%
X188265000Y-89777500D02*
X191805000Y-89777500D01*
X188265000Y-116177500D02*
X188265000Y-89777500D01*
X191805000Y-89777500D02*
X191805000Y-116177500D01*
X191805000Y-116177500D02*
X188265000Y-116177500D01*
%TO.C,JP1*%
X152000000Y-116125000D02*
X152000000Y-119425000D01*
X152000000Y-116125000D02*
X154500000Y-116125000D01*
X154500000Y-119425000D02*
X152000000Y-119425000D01*
X154500000Y-119425000D02*
X154500000Y-116125000D01*
%TO.C,JP9*%
X172250000Y-140350000D02*
X172250000Y-143650000D01*
X172250000Y-140350000D02*
X174750000Y-140350000D01*
X174750000Y-143650000D02*
X172250000Y-143650000D01*
X174750000Y-143650000D02*
X174750000Y-140350000D01*
%TO.C,JP7*%
X172250000Y-145375000D02*
X172250000Y-148675000D01*
X172250000Y-145375000D02*
X174750000Y-145375000D01*
X174750000Y-148675000D02*
X172250000Y-148675000D01*
X174750000Y-148675000D02*
X174750000Y-145375000D01*
%TO.C,JP8*%
X180250000Y-142625000D02*
X180250000Y-145925000D01*
X180250000Y-142625000D02*
X182750000Y-142625000D01*
X182750000Y-145925000D02*
X180250000Y-145925000D01*
X182750000Y-145925000D02*
X182750000Y-142625000D01*
%TD*%
M02*
