M48
; DRILL file {KiCad 9.0.1} date 2026-01-20T22:12:47+0100
; FORMAT={-:-/ absolute / metric / decimal}
; #@! TF.CreationDate,2026-01-20T22:12:47+01:00
; #@! TF.GenerationSoftware,Kicad,Pcbnew,9.0.1
; #@! TF.FileFunction,Plated,1,2,PTH
FMAT,2
METRIC
; #@! TA.AperFunction,Plated,PTH,ViaDrill
T1C0.300
; #@! TA.AperFunction,Plated,PTH,ViaDrill
T2C0.500
; #@! TA.AperFunction,Plated,PTH,ViaDrill
T3C0.700
; #@! TA.AperFunction,Plated,PTH,ComponentDrill
T4C0.800
; #@! TA.AperFunction,Plated,PTH,ComponentDrill
T5C1.000
; #@! TA.AperFunction,Plated,PTH,ComponentDrill
T6C1.400
%
G90
G05
T1
X80.5Y-127.5
X93.5Y-63.75
X93.5Y-146.0
X96.19Y-107.78
X100.4Y-61.8
X101.0Y-144.0
X101.5Y-130.58
X101.609Y-91.149
X104.34Y-107.74
X105.82Y-75.58
X108.07Y-84.02
X110.25Y-63.25
X111.0Y-144.0
X111.38Y-127.91
X111.41Y-103.99
X111.61Y-134.35
X111.67Y-114.04
X115.4Y-145.8
X115.52Y-91.04
X117.0Y-60.0
X119.808Y-75.594
X119.91Y-110.59
X120.13Y-132.74
X120.27Y-96.75
X120.31Y-103.31
X123.37Y-83.75
X126.0Y-143.75
X127.25Y-104.0
X129.13Y-137.28
X130.4Y-91.02
X134.5Y-83.0
X138.09Y-96.79
X140.0Y-91.0
X141.0Y-76.0
X142.0Y-61.0
X144.036Y-115.276
X144.36Y-86.43
X144.75Y-110.837
X145.21Y-96.45
X145.8Y-133.2
X146.6Y-129.0
X147.8Y-138.47
X149.906Y-119.566
X151.15Y-77.4
X151.309Y-120.703
X151.95Y-90.0
X152.12Y-102.5
X156.25Y-104.45
X156.25Y-107.25
X161.0Y-95.5
X162.0Y-109.5
X162.5Y-146.5
X164.865Y-112.615
X165.0Y-144.5
X165.55Y-79.16
X166.36Y-91.84
X166.43Y-61.58
X166.44Y-95.91
X166.8Y-140.4
X167.0Y-105.75
X167.0Y-121.0
X167.25Y-128.25
X169.0Y-115.8
X169.19Y-107.96
X171.6Y-143.0
X172.25Y-128.25
X173.36Y-102.96
X173.875Y-108.875
X174.077Y-125.984
X174.25Y-112.307
X174.4Y-119.2
X174.6Y-113.8
X174.92Y-97.51
X175.29Y-91.9
X175.494Y-107.994
X178.71Y-127.97
X181.2Y-125.0
X181.26Y-97.12
X181.37Y-92.2
X181.51Y-107.58
X181.54Y-113.12
X182.56Y-118.96
X185.0Y-129.5
X185.74Y-98.21
X186.37Y-90.41
X187.4Y-147.8
X187.5Y-119.75
X188.0Y-141.0
X188.25Y-134.5
X188.35Y-119.75
X188.622Y-97.795
X194.5Y-96.5
X197.0Y-109.428
X200.5Y-105.0
X201.5Y-123.5
T2
X145.98Y-116.02
X148.0Y-114.0
X159.0Y-105.701
X159.0Y-108.75
X170.5Y-122.0
X170.5Y-126.75
T3
X148.5Y-80.0
T4
X148.61Y-86.41
X148.61Y-99.11
X151.15Y-86.41
X151.15Y-99.11
X153.69Y-86.41
X153.69Y-99.11
X156.23Y-86.41
X156.23Y-99.11
X158.77Y-86.41
X158.77Y-99.11
X161.31Y-86.41
X161.31Y-99.11
X163.85Y-86.41
X163.85Y-99.11
X166.39Y-86.41
X166.39Y-99.11
T5
X138.13Y-145.5
X140.67Y-145.5
X140.885Y-100.677
X140.885Y-103.218
X140.885Y-105.757
X140.885Y-108.297
X140.885Y-110.837
X140.885Y-113.377
X140.885Y-115.917
X140.885Y-118.457
X140.885Y-123.507
X140.885Y-126.047
X140.885Y-128.588
X140.885Y-131.127
X140.885Y-133.667
X140.885Y-136.207
X143.21Y-145.5
X145.75Y-145.5
X148.29Y-145.5
X150.83Y-145.5
X190.035Y-91.547
X190.035Y-94.087
X190.035Y-96.627
X190.035Y-99.167
X190.035Y-101.707
X190.035Y-104.248
X190.035Y-106.787
X190.035Y-109.328
X190.035Y-111.867
X190.035Y-114.407
X190.035Y-118.477
X190.035Y-121.017
X190.035Y-123.557
X190.035Y-126.097
X190.035Y-128.637
X190.035Y-131.177
X190.035Y-133.718
X190.035Y-136.257
T6
X94.0Y-72.705
X94.0Y-77.785
X94.0Y-82.865
X94.0Y-87.945
X94.0Y-93.025
X94.0Y-98.105
X94.25Y-111.76
X94.25Y-116.84
X94.25Y-121.92
X94.25Y-127.0
X94.25Y-132.08
X94.25Y-137.16
X129.0Y-64.09
X129.0Y-69.17
X129.0Y-74.25
X129.0Y-79.33
X129.0Y-97.725
X129.0Y-102.805
X129.0Y-107.885
X129.0Y-112.965
X129.0Y-118.045
X129.0Y-123.125
X129.0Y-128.205
X129.0Y-133.285
X157.5Y-112.67
X157.5Y-117.75
X157.5Y-122.83
X157.5Y-127.91
X157.5Y-132.99
X157.5Y-138.07
X177.75Y-131.76
X177.75Y-136.84
X177.75Y-141.92
X177.75Y-147.0
X202.617Y-129.965
X202.617Y-135.045
X203.0Y-102.42
X203.0Y-107.5
X203.0Y-112.58
X203.0Y-117.66
X203.132Y-77.09
X203.132Y-82.17
X203.132Y-87.25
X203.132Y-92.33
M30
