%TF.GenerationSoftware,KiCad,Pcbnew,9.0.1*%
%TF.CreationDate,2026-01-20T22:12:41+01:00*%
%TF.ProjectId,asd,6173642e-6b69-4636-9164-5f7063625858,rev?*%
%TF.SameCoordinates,Original*%
%TF.FileFunction,Soldermask,Top*%
%TF.FilePolarity,Negative*%
%FSLAX46Y46*%
G04 Gerber Fmt 4.6, Leading zero omitted, Abs format (unit mm)*
G04 Created by KiCad (PCBNEW 9.0.1) date 2026-01-20 22:12:41*
%MOMM*%
%LPD*%
G01*
G04 APERTURE LIST*
G04 Aperture macros list*
%AMRoundRect*
0 Rectangle with rounded corners*
0 $1 Rounding radius*
0 $2 $3 $4 $5 $6 $7 $8 $9 X,Y pos of 4 corners*
0 Add a 4 corners polygon primitive as box body*
4,1,4,$2,$3,$4,$5,$6,$7,$8,$9,$2,$3,0*
0 Add four circle primitives for the rounded corners*
1,1,$1+$1,$2,$3*
1,1,$1+$1,$4,$5*
1,1,$1+$1,$6,$7*
1,1,$1+$1,$8,$9*
0 Add four rect primitives between the rounded corners*
20,1,$1+$1,$2,$3,$4,$5,0*
20,1,$1+$1,$4,$5,$6,$7,0*
20,1,$1+$1,$6,$7,$8,$9,0*
20,1,$1+$1,$8,$9,$2,$3,0*%
%AMFreePoly0*
4,1,9,3.862500,-0.866500,0.737500,-0.866500,0.737500,-0.450000,-0.737500,-0.450000,-0.737500,0.450000,0.737500,0.450000,0.737500,0.866500,3.862500,0.866500,3.862500,-0.866500,3.862500,-0.866500,$1*%
G04 Aperture macros list end*
%ADD10C,2.500000*%
%ADD11RoundRect,0.250000X1.050000X-1.050000X1.050000X1.050000X-1.050000X1.050000X-1.050000X-1.050000X0*%
%ADD12C,2.600000*%
%ADD13RoundRect,0.250000X0.450000X-0.262500X0.450000X0.262500X-0.450000X0.262500X-0.450000X-0.262500X0*%
%ADD14RoundRect,0.250000X-1.050000X1.050000X-1.050000X-1.050000X1.050000X-1.050000X1.050000X1.050000X0*%
%ADD15RoundRect,0.250000X0.262500X0.450000X-0.262500X0.450000X-0.262500X-0.450000X0.262500X-0.450000X0*%
%ADD16C,3.200000*%
%ADD17R,1.600000X1.600000*%
%ADD18O,1.600000X1.600000*%
%ADD19RoundRect,0.225000X0.425000X0.225000X-0.425000X0.225000X-0.425000X-0.225000X0.425000X-0.225000X0*%
%ADD20FreePoly0,180.000000*%
%ADD21R,1.700000X1.700000*%
%ADD22C,1.700000*%
G04 APERTURE END LIST*
D10*
%TO.C,TP11*%
X163200000Y-103340000D03*
%TD*%
D11*
%TO.C,J27*%
X157500000Y-138070000D03*
D12*
X157500000Y-132990000D03*
%TD*%
D13*
%TO.C,R11*%
X179798000Y-110896091D03*
X179798000Y-109071091D03*
%TD*%
D10*
%TO.C,TP13*%
X194000000Y-139250000D03*
%TD*%
D14*
%TO.C,J2*%
X94250000Y-121920000D03*
D12*
X94250000Y-127000000D03*
%TD*%
D15*
%TO.C,R8*%
X183823000Y-110883591D03*
X181998000Y-110883591D03*
%TD*%
D13*
%TO.C,R12*%
X179473000Y-94746091D03*
X179473000Y-92921091D03*
%TD*%
D14*
%TO.C,J4*%
X129000000Y-107885000D03*
D12*
X129000000Y-112965000D03*
%TD*%
D13*
%TO.C,R10*%
X179673000Y-121683091D03*
X179673000Y-119858091D03*
%TD*%
D11*
%TO.C,J14*%
X157500000Y-117750000D03*
D12*
X157500000Y-112670000D03*
%TD*%
D11*
%TO.C,J22*%
X177750000Y-147000000D03*
D12*
X177750000Y-141920000D03*
%TD*%
D10*
%TO.C,TP4*%
X149000000Y-105000000D03*
%TD*%
%TO.C,TP12*%
X194500000Y-127000000D03*
%TD*%
D11*
%TO.C,J17*%
X203000000Y-117660000D03*
D12*
X203000000Y-112580000D03*
%TD*%
D10*
%TO.C,TP10*%
X168500000Y-103000000D03*
%TD*%
D16*
%TO.C,REF\u002A\u002A*%
X85185000Y-143287500D03*
%TD*%
%TO.C,REF\u002A\u002A*%
X85185000Y-65017500D03*
%TD*%
D14*
%TO.C,J12*%
X129000000Y-97725000D03*
D12*
X129000000Y-102805000D03*
%TD*%
D11*
%TO.C,J20*%
X203132500Y-82170000D03*
D12*
X203132500Y-77090000D03*
%TD*%
D15*
%TO.C,R1*%
X184023000Y-116408591D03*
X182198000Y-116408591D03*
%TD*%
D16*
%TO.C,REF\u002A\u002A*%
X202235000Y-143287500D03*
%TD*%
D17*
%TO.C,A1*%
X166390000Y-86410000D03*
D18*
X163850000Y-86410000D03*
X161310000Y-86410000D03*
X158770000Y-86410000D03*
X156230000Y-86410000D03*
X153690000Y-86410000D03*
X151150000Y-86410000D03*
X148610000Y-86410000D03*
X148610000Y-99110000D03*
X151150000Y-99110000D03*
X153690000Y-99110000D03*
X156230000Y-99110000D03*
X158770000Y-99110000D03*
X161310000Y-99110000D03*
X163850000Y-99110000D03*
X166390000Y-99110000D03*
%TD*%
D10*
%TO.C,TP3*%
X149000000Y-109500000D03*
%TD*%
D11*
%TO.C,J19*%
X202617500Y-135045000D03*
D12*
X202617500Y-129965000D03*
%TD*%
D11*
%TO.C,J18*%
X203000000Y-107500000D03*
D12*
X203000000Y-102420000D03*
%TD*%
D14*
%TO.C,J3*%
X94250000Y-132080000D03*
D12*
X94250000Y-137160000D03*
%TD*%
D10*
%TO.C,TP9*%
X112500000Y-69250000D03*
%TD*%
D11*
%TO.C,J15*%
X157500000Y-127910000D03*
D12*
X157500000Y-122830000D03*
%TD*%
D16*
%TO.C,REF*%
X202235000Y-65017500D03*
%TD*%
D13*
%TO.C,R5*%
X179828000Y-105843591D03*
X179828000Y-104018591D03*
%TD*%
D15*
%TO.C,R9*%
X183510500Y-94733591D03*
X181685500Y-94733591D03*
%TD*%
D14*
%TO.C,J7*%
X94000000Y-72705000D03*
D12*
X94000000Y-77785000D03*
%TD*%
D14*
%TO.C,J11*%
X129000000Y-74250000D03*
D12*
X129000000Y-79330000D03*
%TD*%
D14*
%TO.C,J1*%
X94250000Y-111760000D03*
D12*
X94250000Y-116840000D03*
%TD*%
D10*
%TO.C,TP2*%
X111600000Y-138200000D03*
%TD*%
D11*
%TO.C,J21*%
X203132500Y-92330000D03*
D12*
X203132500Y-87250000D03*
%TD*%
D10*
%TO.C,TP5*%
X110500000Y-100250000D03*
%TD*%
D14*
%TO.C,J8*%
X94000000Y-82865000D03*
D12*
X94000000Y-87945000D03*
%TD*%
D13*
%TO.C,R4*%
X179898000Y-116408591D03*
X179898000Y-114583591D03*
%TD*%
D10*
%TO.C,TP1*%
X119000000Y-142000000D03*
%TD*%
D14*
%TO.C,J6*%
X129000000Y-128205000D03*
D12*
X129000000Y-133285000D03*
%TD*%
D10*
%TO.C,TP6*%
X110500000Y-93000000D03*
%TD*%
D11*
%TO.C,J16*%
X177750000Y-136840000D03*
D12*
X177750000Y-131760000D03*
%TD*%
D14*
%TO.C,J5*%
X129000000Y-118045000D03*
D12*
X129000000Y-123125000D03*
%TD*%
D19*
%TO.C,Q5*%
X176950000Y-112385591D03*
D20*
X176862500Y-110885591D03*
D19*
X176950000Y-109385591D03*
%TD*%
D10*
%TO.C,TP8*%
X111500000Y-123000000D03*
%TD*%
%TO.C,TP7*%
X104000000Y-63500000D03*
%TD*%
D15*
%TO.C,R2*%
X183940500Y-105781091D03*
X182115500Y-105781091D03*
%TD*%
D13*
%TO.C,R6*%
X179373000Y-100208591D03*
X179373000Y-98383591D03*
%TD*%
D14*
%TO.C,J9*%
X94000000Y-93025000D03*
D12*
X94000000Y-98105000D03*
%TD*%
D21*
%TO.C,J13*%
X138130000Y-145500000D03*
D22*
X140670000Y-145500000D03*
X143210000Y-145500000D03*
X145750000Y-145500000D03*
X148290000Y-145500000D03*
X150830000Y-145500000D03*
%TD*%
D19*
%TO.C,Q6*%
X177250000Y-96385591D03*
D20*
X177162500Y-94885591D03*
D19*
X177250000Y-93385591D03*
%TD*%
%TO.C,Q2*%
X177212988Y-107030128D03*
D20*
X177125488Y-105530128D03*
D19*
X177212988Y-104030128D03*
%TD*%
%TO.C,Q4*%
X177000000Y-122885591D03*
D20*
X176912500Y-121385591D03*
D19*
X177000000Y-119885591D03*
%TD*%
D14*
%TO.C,J10*%
X129000000Y-64090000D03*
D12*
X129000000Y-69170000D03*
%TD*%
D19*
%TO.C,Q3*%
X177200000Y-101748191D03*
D20*
X177112500Y-100248191D03*
D19*
X177200000Y-98748191D03*
%TD*%
D15*
%TO.C,R3*%
X183360500Y-100221091D03*
X181535500Y-100221091D03*
%TD*%
D19*
%TO.C,Q1*%
X176950000Y-117635591D03*
D20*
X176862500Y-116135591D03*
D19*
X176950000Y-114635591D03*
%TD*%
D15*
%TO.C,R7*%
X183735500Y-121670591D03*
X181910500Y-121670591D03*
%TD*%
D21*
%TO.C,J24*%
X140885000Y-123507500D03*
D22*
X140885000Y-126047500D03*
X140885000Y-128587500D03*
X140885000Y-131127500D03*
X140885000Y-133667500D03*
X140885000Y-136207500D03*
%TD*%
D21*
%TO.C,J23*%
X140885000Y-100677500D03*
D22*
X140885000Y-103217500D03*
X140885000Y-105757500D03*
X140885000Y-108297500D03*
X140885000Y-110837500D03*
X140885000Y-113377500D03*
X140885000Y-115917500D03*
X140885000Y-118457500D03*
%TD*%
D21*
%TO.C,J26*%
X190035000Y-118477500D03*
D22*
X190035000Y-121017500D03*
X190035000Y-123557500D03*
X190035000Y-126097500D03*
X190035000Y-128637500D03*
X190035000Y-131177500D03*
X190035000Y-133717500D03*
X190035000Y-136257500D03*
%TD*%
D21*
%TO.C,J25*%
X190035000Y-91547500D03*
D22*
X190035000Y-94087500D03*
X190035000Y-96627500D03*
X190035000Y-99167500D03*
X190035000Y-101707500D03*
X190035000Y-104247500D03*
X190035000Y-106787500D03*
X190035000Y-109327500D03*
X190035000Y-111867500D03*
X190035000Y-114407500D03*
%TD*%
M02*
