  0
SECTION
  2
HEADER
  9
$ACADVER
  1
AC1014
  9
$HANDSEED
  5
FFFF
  9
$INSUNITS
 70
     0
  9
$MEASUREMENT
 70
     1
  0
ENDSEC
  0
SECTION
  2
TABLES
  0
TABLE
  2
VPORT
  5
8
330
0
100
AcDbSymbolTable
 70
     4
  0
VPORT
  5
2E
330
8
100
AcDbSymbolTableRecord
100
AcDbViewportTableRecord
  2
*ACTIVE
 70
     0
 10
0.0
 20
0.0
 11
1.0
 21
1.0
 12
210.0
 22
148.5
 13
0.0
 23
0.0
 14
10.0
 24
10.0
 15
10.0
 25
10.0
 16
0.0
 26
0.0
 36
1.0
 17
0.0
 27
0.0
 37
0.0
 40
341.0
 41
1.24
 42
50.0
 43
0.0
 44
0.0
 50
0.0
 51
0.0
 71
     0
 72
   100
 73
     1
 74
     3
 75
     0
 76
     0
 77
     0
 78
     0
  0
ENDTAB
  0
TABLE
  2
LTYPE
  5
5
330
0
100
AcDbSymbolTable
 70
     1
  0
LTYPE
  5
14
330
5
100
AcDbSymbolTableRecord
100
AcDbLinetypeTableRecord
  2
BYBLOCK
 70
     0
  3

 72
    65
 73
     0
 40
0.0
  0
LTYPE
  5
15
330
5
100
AcDbSymbolTableRecord
100
AcDbLinetypeTableRecord
  2
BYLAYER
 70
     0
  3

 72
    65
 73
     0
 40
0.0
  0
LTYPE
  5
16
330
5
100
AcDbSymbolTableRecord
100
AcDbLinetypeTableRecord
  2
CONTINUOUS
 70
     0
  3
Solid line
 72
    65
 73
     0
 40
0.0
  0
ENDTAB
  0
TABLE
  2
LAYER
  5
2
100
AcDbSymbolTable
 70
2
  0
LAYER
  5
50
100
AcDbSymbolTableRecord
100
AcDbLayerTableRecord
  2
0
 70
0
  6
CONTINUOUS
  0
LAYER
  5
51
100
AcDbSymbolTableRecord
100
AcDbLayerTableRecord
  2
Image
 70
0
  6
CONTINUOUS
  0
ENDTAB
  0
TABLE
  2
STYLE
  5
3
330
0
100
AcDbSymbolTable
 70
     1
  0
STYLE
  5
11
330
3
100
AcDbSymbolTableRecord
100
AcDbTextStyleTableRecord
  2
STANDARD
 70
     0
 40
0.0
 41
1.0
 50
0.0
 71
     0
 42
2.5
  3
txt
  4

  0
ENDTAB
  0
TABLE
  2
VIEW
  5
6
330
0
100
AcDbSymbolTable
 70
     0
  0
ENDTAB
  0
TABLE
  2
UCS
  5
7
330
0
100
AcDbSymbolTable
 70
     0
  0
ENDTAB
  0
TABLE
  2
APPID
  5
9
330
0
100
AcDbSymbolTable
 70
     2
  0
APPID
  5
12
330
9
100
AcDbSymbolTableRecord
100
AcDbRegAppTableRecord
  2
ACAD
 70
     0
  0
ENDTAB
  0
TABLE
  2
DIMSTYLE
  5
A
330
0
100
AcDbSymbolTable
 70
     1
  0
DIMSTYLE
105
27
330
A
100
AcDbSymbolTableRecord
100
AcDbDimStyleTableRecord
  2
ISO-25
 70
     0
  3

  4

  5

  6

  7

 40
1.0
 41
2.5
 42
0.625
 43
3.75
 44
1.25
 45
0.0
 46
0.0
 47
0.0
 48
0.0
140
2.5
141
2.5
142
0.0
143
0.03937007874016
144
1.0
145
0.0
146
1.0
147
0.625
 71
     0
 72
     0
 73
     0
 74
     0
 75
     0
 76
     0
 77
     1
 78
     8
170
     0
171
     3
172
     1
173
     0
174
     0
175
     0
176
     0
177
     0
178
     0
270
     2
271
     2
272
     2
273
     2
274
     3
340
11
275
     0
280
     0
281
     0
282
     0
283
     0
284
     8
285
     0
286
     0
287
     3
288
     0
  0
ENDTAB
  0
TABLE
  2
BLOCK_RECORD
  5
1
330
0
100
AcDbSymbolTable
 70
     1
  0
BLOCK_RECORD
  5
1F
330
1
100
AcDbSymbolTableRecord
100
AcDbBlockTableRecord
  2
*MODEL_SPACE
  0
BLOCK_RECORD
  5
1B
330
1
100
AcDbSymbolTableRecord
100
AcDbBlockTableRecord
  2
*PAPER_SPACE
  0
ENDTAB
  0
ENDSEC
  0
SECTION
  2
BLOCKS
  0
BLOCK
  5
20
330
1F
100
AcDbEntity
  8
0
100
AcDbBlockBegin
  2
*MODEL_SPACE
 70
     0
 10
0.0
 20
0.0
 30
0.0
  3
*MODEL_SPACE
  1

  0
ENDBLK
  5
21
330
1F
100
AcDbEntity
  8
0
100
AcDbBlockEnd
  0
BLOCK
  5
1C
330
1B
100
AcDbEntity
 67
     1
  8
0
100
AcDbBlockBegin
  2
*PAPER_SPACE
  1

  0
ENDBLK
  5
1D
330
1B
100
AcDbEntity
 67
     1
  8
0
100
AcDbBlockEnd
  0
ENDSEC
  0
SECTION
  2
ENTITIES
  0
SPLINE
  5
100
100
AcDbEntity
  8
Image
 62
7
100
AcDbSpline
 70
8
 71
3
 72
8
 73
4
 74
0
 40
0
 40
0
 40
0
 40
0
 40
1
 40
1
 40
1
 40
1
 10
51.666667
 20
1.666667
 30
0.0
 10
51.300000
 20
2.033333
 30
0.0
 10
51.000000
 20
3.392981
 30
0.0
 10
51.000000
 20
4.688107
 30
0.0
  0
SPLINE
  5
101
100
AcDbEntity
  8
Image
 62
7
100
AcDbSpline
 70
8
 71
3
 72
8
 73
4
 74
0
 40
0
 40
0
 40
0
 40
0
 40
1
 40
1
 40
1
 40
1
 10
51.000000
 20
4.688107
 30
0.0
 10
51.000000
 20
7.979790
 30
0.0
 10
46.144019
 20
15.000000
 30
0.0
 10
43.867114
 20
15.000000
 30
0.0
  0
SPLINE
  5
102
100
AcDbEntity
  8
Image
 62
7
100
AcDbSpline
 70
8
 71
3
 72
8
 73
4
 74
0
 40
0
 40
0
 40
0
 40
0
 40
1
 40
1
 40
1
 40
1
 10
43.867114
 20
15.000000
 30
0.0
 10
41.443555
 20
15.000000
 30
0.0
 10
41.476155
 20
16.655906
 30
0.0
 10
43.929884
 20
18.188284
 30
0.0
  0
SPLINE
  5
103
100
AcDbEntity
  8
Image
 62
7
100
AcDbSpline
 70
8
 71
3
 72
8
 73
4
 74
0
 40
0
 40
0
 40
0
 40
0
 40
1
 40
1
 40
1
 40
1
 10
43.929884
 20
18.188284
 30
0.0
 10
45.408429
 20
19.111650
 30
0.0
 10
45.632410
 20
19.818335
 30
0.0
 10
44.887609
 20
21.210008
 30
0.0
  0
SPLINE
  5
104
100
AcDbEntity
  8
Image
 62
7
100
AcDbSpline
 70
8
 71
3
 72
8
 73
4
 74
0
 40
0
 40
0
 40
0
 40
0
 40
1
 40
1
 40
1
 40
1
 10
44.887609
 20
21.210008
 30
0.0
 10
44.288328
 20
22.329775
 30
0.0
 10
44.267938
 20
23.656359
 30
0.0
 10
44.834449
 20
24.668658
 30
0.0
  0
SPLINE
  5
105
100
AcDbEntity
  8
Image
 62
7
100
AcDbSpline
 70
8
 71
3
 72
8
 73
4
 74
0
 40
0
 40
0
 40
0
 40
0
 40
1
 40
1
 40
1
 40
1
 10
44.834449
 20
24.668658
 30
0.0
 10
45.659062
 20
26.142160
 30
0.0
 10
45.942988
 20
26.089448
 30
0.0
 10
47.598965
 20
24.155408
 30
0.0
  0
SPLINE
  5
106
100
AcDbEntity
  8
Image
 62
7
100
AcDbSpline
 70
8
 71
3
 72
8
 73
4
 74
0
 40
0
 40
0
 40
0
 40
0
 40
1
 40
1
 40
1
 40
1
 10
47.598965
 20
24.155408
 30
0.0
 10
48.613999
 20
22.969934
 30
0.0
 10
49.794473
 20
22.000000
 30
0.0
 10
50.222241
 20
22.000000
 30
0.0
  0
SPLINE
  5
107
100
AcDbEntity
  8
Image
 62
7
100
AcDbSpline
 70
8
 71
3
 72
8
 73
4
 74
0
 40
0
 40
0
 40
0
 40
0
 40
1
 40
1
 40
1
 40
1
 10
50.222241
 20
22.000000
 30
0.0
 10
50.650008
 20
22.000000
 30
0.0
 10
51.000000
 20
24.925000
 30
0.0
 10
51.000000
 20
28.500000
 30
0.0
  0
SPLINE
  5
108
100
AcDbEntity
  8
Image
 62
7
100
AcDbSpline
 70
8
 71
3
 72
8
 73
4
 74
0
 40
0
 40
0
 40
0
 40
0
 40
1
 40
1
 40
1
 40
1
 10
51.000000
 20
28.500000
 30
0.0
 10
51.000000
 20
32.075000
 30
0.0
 10
51.203826
 20
35.000000
 30
0.0
 10
51.452947
 20
35.000000
 30
0.0
  0
SPLINE
  5
109
100
AcDbEntity
  8
Image
 62
7
100
AcDbSpline
 70
8
 71
3
 72
8
 73
4
 74
0
 40
0
 40
0
 40
0
 40
0
 40
1
 40
1
 40
1
 40
1
 10
51.452947
 20
35.000000
 30
0.0
 10
51.702068
 20
35.000000
 30
0.0
 10
53.028571
 20
34.488474
 30
0.0
 10
54.400733
 20
33.863275
 30
0.0
  0
SPLINE
  5
10a
100
AcDbEntity
  8
Image
 62
7
100
AcDbSpline
 70
8
 71
3
 72
8
 73
4
 74
0
 40
0
 40
0
 40
0
 40
0
 40
1
 40
1
 40
1
 40
1
 10
54.400733
 20
33.863275
 30
0.0
 10
56.263102
 20
33.014723
 30
0.0
 10
56.983051
 20
31.810545
 30
0.0
 10
57.240645
 20
29.113275
 30
0.0
  0
SPLINE
  5
10b
100
AcDbEntity
  8
Image
 62
7
100
AcDbSpline
 70
8
 71
3
 72
8
 73
4
 74
0
 40
0
 40
0
 40
0
 40
0
 40
1
 40
1
 40
1
 40
1
 10
57.240645
 20
29.113275
 30
0.0
 10
57.578592
 20
25.574613
 30
0.0
 10
57.608205
 20
25.551624
 30
0.0
 10
58.674693
 20
28.000000
 30
0.0
  0
SPLINE
  5
10c
100
AcDbEntity
  8
Image
 62
7
100
AcDbSpline
 70
8
 71
3
 72
8
 73
4
 74
0
 40
0
 40
0
 40
0
 40
0
 40
1
 40
1
 40
1
 40
1
 10
58.674693
 20
28.000000
 30
0.0
 10
60.204953
 20
31.513076
 30
0.0
 10
58.708153
 20
33.799213
 30
0.0
 10
53.316146
 20
36.184352
 30
0.0
  0
SPLINE
  5
10d
100
AcDbEntity
  8
Image
 62
7
100
AcDbSpline
 70
8
 71
3
 72
8
 73
4
 74
0
 40
0
 40
0
 40
0
 40
0
 40
1
 40
1
 40
1
 40
1
 10
53.316146
 20
36.184352
 30
0.0
 10
50.693837
 20
37.344324
 30
0.0
 10
48.111425
 20
39.396863
 30
0.0
 10
47.151670
 20
41.083968
 30
0.0
  0
SPLINE
  5
10e
100
AcDbEntity
  8
Image
 62
7
100
AcDbSpline
 70
8
 71
3
 72
8
 73
4
 74
0
 40
0
 40
0
 40
0
 40
0
 40
1
 40
1
 40
1
 40
1
 10
47.151670
 20
41.083968
 30
0.0
 10
46.143811
 20
42.855632
 30
0.0
 10
44.670692
 20
43.989819
 30
0.0
 10
43.372445
 20
43.993677
 30
0.0
  0
SPLINE
  5
10f
100
AcDbEntity
  8
Image
 62
7
100
AcDbSpline
 70
8
 71
3
 72
8
 73
4
 74
0
 40
0
 40
0
 40
0
 40
0
 40
1
 40
1
 40
1
 40
1
 10
43.372445
 20
43.993677
 30
0.0
 10
42.202289
 20
43.997177
 30
0.0
 10
40.665786
 20
44.697777
 30
0.0
 10
39.957994
 20
45.550615
 30
0.0
  0
SPLINE
  5
110
100
AcDbEntity
  8
Image
 62
7
100
AcDbSpline
 70
8
 71
3
 72
8
 73
4
 74
0
 40
0
 40
0
 40
0
 40
0
 40
1
 40
1
 40
1
 40
1
 10
39.957994
 20
45.550615
 30
0.0
 10
38.873909
 20
46.856857
 30
0.0
 10
38.995339
 20
47.186020
 30
0.0
 10
40.728503
 20
47.639253
 30
0.0
  0
SPLINE
  5
111
100
AcDbEntity
  8
Image
 62
7
100
AcDbSpline
 70
8
 71
3
 72
8
 73
4
 74
0
 40
0
 40
0
 40
0
 40
0
 40
1
 40
1
 40
1
 40
1
 10
40.728503
 20
47.639253
 30
0.0
 10
42.471989
 20
48.095185
 30
0.0
 10
42.708515
 20
48.754294
 30
0.0
 10
42.278675
 20
51.958992
 30
0.0
  0
SPLINE
  5
112
100
AcDbEntity
  8
Image
 62
7
100
AcDbSpline
 70
8
 71
3
 72
8
 73
4
 74
0
 40
0
 40
0
 40
0
 40
0
 40
1
 40
1
 40
1
 40
1
 10
42.278675
 20
51.958992
 30
0.0
 10
41.659935
 20
56.572037
 30
0.0
 10
43.320907
 20
57.966060
 30
0.0
 10
45.490595
 20
54.654698
 30
0.0
  0
SPLINE
  5
113
100
AcDbEntity
  8
Image
 62
7
100
AcDbSpline
 70
8
 71
3
 72
8
 73
4
 74
0
 40
0
 40
0
 40
0
 40
0
 40
1
 40
1
 40
1
 40
1
 10
45.490595
 20
54.654698
 30
0.0
 10
46.789446
 20
52.672400
 30
0.0
 10
46.855175
 20
51.776251
 30
0.0
 10
45.861653
 20
49.595706
 30
0.0
  0
SPLINE
  5
114
100
AcDbEntity
  8
Image
 62
7
100
AcDbSpline
 70
8
 71
3
 72
8
 73
4
 74
0
 40
0
 40
0
 40
0
 40
0
 40
1
 40
1
 40
1
 40
1
 10
45.861653
 20
49.595706
 30
0.0
 10
44.938076
 20
47.568676
 30
0.0
 10
44.929960
 20
46.670040
 30
0.0
 10
45.827123
 20
45.772874
 30
0.0
  0
SPLINE
  5
115
100
AcDbEntity
  8
Image
 62
7
100
AcDbSpline
 70
8
 71
3
 72
8
 73
4
 74
0
 40
0
 40
0
 40
0
 40
0
 40
1
 40
1
 40
1
 40
1
 10
45.827123
 20
45.772874
 30
0.0
 10
46.724291
 20
44.875709
 30
0.0
 10
47.000000
 20
44.945052
 30
0.0
 10
47.000000
 20
46.067865
 30
0.0
  0
SPLINE
  5
116
100
AcDbEntity
  8
Image
 62
7
100
AcDbSpline
 70
8
 71
3
 72
8
 73
4
 74
0
 40
0
 40
0
 40
0
 40
0
 40
1
 40
1
 40
1
 40
1
 10
47.000000
 20
46.067865
 30
0.0
 10
47.000000
 20
46.875192
 30
0.0
 10
48.082348
 20
49.128549
 30
0.0
 10
49.405218
 20
51.075328
 30
0.0
  0
SPLINE
  5
117
100
AcDbEntity
  8
Image
 62
7
100
AcDbSpline
 70
8
 71
3
 72
8
 73
4
 74
0
 40
0
 40
0
 40
0
 40
0
 40
1
 40
1
 40
1
 40
1
 10
49.405218
 20
51.075328
 30
0.0
 10
50.728088
 20
53.022106
 30
0.0
 10
51.965588
 20
55.714066
 30
0.0
 10
52.155218
 20
57.057462
 30
0.0
  0
SPLINE
  5
118
100
AcDbEntity
  8
Image
 62
7
100
AcDbSpline
 70
8
 71
3
 72
8
 73
4
 74
0
 40
0
 40
0
 40
0
 40
0
 40
1
 40
1
 40
1
 40
1
 10
52.155218
 20
57.057462
 30
0.0
 10
52.411305
 20
58.871661
 30
0.0
 10
53.207433
 20
59.581399
 30
0.0
 10
55.250000
 20
59.816422
 30
0.0
  0
SPLINE
  5
119
100
AcDbEntity
  8
Image
 62
7
100
AcDbSpline
 70
8
 71
3
 72
8
 73
4
 74
0
 40
0
 40
0
 40
0
 40
0
 40
1
 40
1
 40
1
 40
1
 10
55.250000
 20
59.816422
 30
0.0
 10
57.159461
 20
60.036130
 30
0.0
 10
58.000000
 20
60.705805
 30
0.0
 10
58.000000
 20
62.007405
 30
0.0
  0
SPLINE
  5
11a
100
AcDbEntity
  8
Image
 62
7
100
AcDbSpline
 70
8
 71
3
 72
8
 73
4
 74
0
 40
0
 40
0
 40
0
 40
0
 40
1
 40
1
 40
1
 40
1
 10
58.000000
 20
62.007405
 30
0.0
 10
58.000000
 20
64.207670
 30
0.0
 10
59.939632
 20
65.713343
 30
0.0
 10
60.861803
 20
64.228930
 30
0.0
  0
SPLINE
  5
11b
100
AcDbEntity
  8
Image
 62
7
100
AcDbSpline
 70
8
 71
3
 72
8
 73
4
 74
0
 40
0
 40
0
 40
0
 40
0
 40
1
 40
1
 40
1
 40
1
 10
60.861803
 20
64.228930
 30
0.0
 10
61.212812
 20
63.663915
 30
0.0
 10
62.625000
 20
63.043763
 30
0.0
 10
64.000000
 20
62.850815
 30
0.0
  0
SPLINE
  5
11c
100
AcDbEntity
  8
Image
 62
7
100
AcDbSpline
 70
8
 71
3
 72
8
 73
4
 74
0
 40
0
 40
0
 40
0
 40
0
 40
1
 40
1
 40
1
 40
1
 10
64.000000
 20
62.850815
 30
0.0
 10
68.092901
 20
62.276474
 30
0.0
 10
67.133959
 20
59.500000
 30
0.0
 10
62.842692
 20
59.500000
 30
0.0
  0
SPLINE
  5
11d
100
AcDbEntity
  8
Image
 62
7
100
AcDbSpline
 70
8
 71
3
 72
8
 73
4
 74
0
 40
0
 40
0
 40
0
 40
0
 40
1
 40
1
 40
1
 40
1
 10
62.842692
 20
59.500000
 30
0.0
 10
54.795545
 20
59.500000
 30
0.0
 10
44.367463
 20
44.259627
 30
0.0
 10
49.500000
 20
40.000000
 30
0.0
  0
SPLINE
  5
11e
100
AcDbEntity
  8
Image
 62
7
100
AcDbSpline
 70
8
 71
3
 72
8
 73
4
 74
0
 40
0
 40
0
 40
0
 40
0
 40
1
 40
1
 40
1
 40
1
 10
49.500000
 20
40.000000
 30
0.0
 10
50.802084
 20
38.919366
 30
0.0
 10
51.000000
 20
39.473209
 30
0.0
 10
51.000000
 20
44.197557
 30
0.0
  0
SPLINE
  5
11f
100
AcDbEntity
  8
Image
 62
7
100
AcDbSpline
 70
8
 71
3
 72
8
 73
4
 74
0
 40
0
 40
0
 40
0
 40
0
 40
1
 40
1
 40
1
 40
1
 10
51.000000
 20
44.197557
 30
0.0
 10
51.000000
 20
48.994556
 30
0.0
 10
51.424324
 20
50.135730
 30
0.0
 10
54.577923
 20
53.820001
 30
0.0
  0
SPLINE
  5
120
100
AcDbEntity
  8
Image
 62
7
100
AcDbSpline
 70
8
 71
3
 72
8
 73
4
 74
0
 40
0
 40
0
 40
0
 40
0
 40
1
 40
1
 40
1
 40
1
 10
54.577923
 20
53.820001
 30
0.0
 10
57.466153
 20
57.194248
 30
0.0
 10
58.806429
 20
58.000000
 30
0.0
 10
61.530870
 20
58.000000
 30
0.0
  0
SPLINE
  5
121
100
AcDbEntity
  8
Image
 62
7
100
AcDbSpline
 70
8
 71
3
 72
8
 73
4
 74
0
 40
0
 40
0
 40
0
 40
0
 40
1
 40
1
 40
1
 40
1
 10
61.530870
 20
58.000000
 30
0.0
 10
66.161377
 20
58.000000
 30
0.0
 10
69.536038
 20
56.279555
 30
0.0
 10
71.064319
 20
53.139728
 30
0.0
  0
SPLINE
  5
122
100
AcDbEntity
  8
Image
 62
7
100
AcDbSpline
 70
8
 71
3
 72
8
 73
4
 74
0
 40
0
 40
0
 40
0
 40
0
 40
1
 40
1
 40
1
 40
1
 10
71.064319
 20
53.139728
 30
0.0
 10
72.569636
 20
50.047082
 30
0.0
 10
73.533278
 20
31.041823
 30
0.0
 10
72.525514
 20
24.321572
 30
0.0
  0
SPLINE
  5
123
100
AcDbEntity
  8
Image
 62
7
100
AcDbSpline
 70
8
 71
3
 72
8
 73
4
 74
0
 40
0
 40
0
 40
0
 40
0
 40
1
 40
1
 40
1
 40
1
 10
72.525514
 20
24.321572
 30
0.0
 10
71.519159
 20
17.610719
 30
0.0
 10
67.656770
 20
14.000000
 30
0.0
 10
61.484521
 20
14.000000
 30
0.0
  0
SPLINE
  5
124
100
AcDbEntity
  8
Image
 62
7
100
AcDbSpline
 70
8
 71
3
 72
8
 73
4
 74
0
 40
0
 40
0
 40
0
 40
0
 40
1
 40
1
 40
1
 40
1
 10
57.031676
 20
8.750000
 30
0.0
 10
57.150741
 20
5.862500
 30
0.0
 10
57.192322
 20
2.937500
 30
0.0
 10
57.124076
 20
2.250000
 30
0.0
  0
SPLINE
  5
125
100
AcDbEntity
  8
Image
 62
7
100
AcDbSpline
 70
8
 71
3
 72
8
 73
4
 74
0
 40
0
 40
0
 40
0
 40
0
 40
1
 40
1
 40
1
 40
1
 10
57.124076
 20
2.250000
 30
0.0
 10
56.994877
 20
0.948421
 30
0.0
 10
52.830077
 20
0.503253
 30
0.0
 10
51.666664
 20
1.666667
 30
0.0
  0
LWPOLYLINE
  5
126
100
AcDbEntity
  8
Image
 62
7
100
AcDbPolyline
 90
3
 70
0
 10
61.484521
 20
14.000000
 30
0.0
 10
56.815195
 20
14.000000
 30
0.0
 10
57.031676
 20
8.750000
 30
0.0
  0
SPLINE
  5
127
100
AcDbEntity
  8
Image
 62
7
100
AcDbSpline
 70
8
 71
3
 72
8
 73
4
 74
0
 40
0
 40
0
 40
0
 40
0
 40
1
 40
1
 40
1
 40
1
 10
54.073567
 20
19.538043
 30
0.0
 10
55.693730
 20
20.375862
 30
0.0
 10
58.617908
 20
20.953691
 30
0.0
 10
60.571740
 20
20.822107
 30
0.0
  0
SPLINE
  5
128
100
AcDbEntity
  8
Image
 62
7
100
AcDbSpline
 70
8
 71
3
 72
8
 73
4
 74
0
 40
0
 40
0
 40
0
 40
0
 40
1
 40
1
 40
1
 40
1
 10
60.571740
 20
20.822107
 30
0.0
 10
64.338522
 20
20.568428
 30
0.0
 10
65.946997
 20
21.954981
 30
0.0
 10
65.998342
 20
25.500000
 30
0.0
  0
SPLINE
  5
129
100
AcDbEntity
  8
Image
 62
7
100
AcDbSpline
 70
8
 71
3
 72
8
 73
4
 74
0
 40
0
 40
0
 40
0
 40
0
 40
1
 40
1
 40
1
 40
1
 10
65.998342
 20
25.500000
 30
0.0
 10
66.014272
 20
26.600000
 30
0.0
 10
66.312775
 20
28.566519
 30
0.0
 10
66.661678
 20
29.870041
 30
0.0
  0
SPLINE
  5
12a
100
AcDbEntity
  8
Image
 62
7
100
AcDbSpline
 70
8
 71
3
 72
8
 73
4
 74
0
 40
0
 40
0
 40
0
 40
0
 40
1
 40
1
 40
1
 40
1
 10
66.661678
 20
29.870041
 30
0.0
 10
67.294185
 20
32.233132
 30
0.0
 10
67.288105
 20
32.234880
 30
0.0
 10
64.588355
 20
30.465935
 30
0.0
  0
SPLINE
  5
12b
100
AcDbEntity
  8
Image
 62
7
100
AcDbSpline
 70
8
 71
3
 72
8
 73
4
 74
0
 40
0
 40
0
 40
0
 40
0
 40
1
 40
1
 40
1
 40
1
 10
64.588355
 20
30.465935
 30
0.0
 10
62.753760
 20
29.263863
 30
0.0
 10
62.263665
 20
28.455080
 30
0.0
 10
63.068447
 20
27.957697
 30
0.0
  0
SPLINE
  5
12c
100
AcDbEntity
  8
Image
 62
7
100
AcDbSpline
 70
8
 71
3
 72
8
 73
4
 74
0
 40
0
 40
0
 40
0
 40
0
 40
1
 40
1
 40
1
 40
1
 10
63.068447
 20
27.957697
 30
0.0
 10
64.399396
 20
27.135126
 30
0.0
 10
63.476973
 20
25.000000
 30
0.0
 10
61.790655
 20
25.000000
 30
0.0
  0
SPLINE
  5
12d
100
AcDbEntity
  8
Image
 62
7
100
AcDbSpline
 70
8
 71
3
 72
8
 73
4
 74
0
 40
0
 40
0
 40
0
 40
0
 40
1
 40
1
 40
1
 40
1
 10
61.790655
 20
25.000000
 30
0.0
 10
59.525440
 20
25.000000
 30
0.0
 10
49.883861
 20
19.651510
 30
0.0
 10
48.927398
 20
17.864343
 30
0.0
  0
SPLINE
  5
12e
100
AcDbEntity
  8
Image
 62
7
100
AcDbSpline
 70
8
 71
3
 72
8
 73
4
 74
0
 40
0
 40
0
 40
0
 40
0
 40
1
 40
1
 40
1
 40
1
 10
48.927398
 20
17.864343
 30
0.0
 10
48.227932
 20
16.557378
 30
0.0
 10
48.313861
 20
15.327323
 30
0.0
 10
49.214816
 20
13.750000
 30
0.0
  0
SPLINE
  5
12f
100
AcDbEntity
  8
Image
 62
7
100
AcDbSpline
 70
8
 71
3
 72
8
 73
4
 74
0
 40
0
 40
0
 40
0
 40
0
 40
1
 40
1
 40
1
 40
1
 10
49.214816
 20
13.750000
 30
0.0
 10
50.471954
 20
11.549101
 30
0.0
 10
50.506850
 20
11.571085
 30
0.0
 10
50.813908
 20
14.757368
 30
0.0
  0
SPLINE
  5
130
100
AcDbEntity
  8
Image
 62
7
100
AcDbSpline
 70
8
 71
3
 72
8
 73
4
 74
0
 40
0
 40
0
 40
0
 40
0
 40
1
 40
1
 40
1
 40
1
 10
50.813908
 20
14.757368
 30
0.0
 10
51.047898
 20
17.185443
 30
0.0
 10
51.877774
 20
18.402554
 30
0.0
 10
54.073567
 20
19.538043
 30
0.0
  0
LWPOLYLINE
  5
131
100
AcDbEntity
  8
Image
 62
7
100
AcDbPolyline
 90
1
 70
1
 10
51.666664
 20
1.666667
 30
0.0
  0
SPLINE
  5
132
100
AcDbEntity
  8
Image
 62
7
100
AcDbSpline
 70
8
 71
3
 72
8
 73
4
 74
0
 40
0
 40
0
 40
0
 40
0
 40
1
 40
1
 40
1
 40
1
 10
64.311481
 20
33.188506
 30
0.0
 10
66.371282
 20
33.481679
 30
0.0
 10
66.488665
 20
33.965052
 30
0.0
 10
66.307271
 20
41.407014
 30
0.0
  0
SPLINE
  5
133
100
AcDbEntity
  8
Image
 62
7
100
AcDbSpline
 70
8
 71
3
 72
8
 73
4
 74
0
 40
0
 40
0
 40
0
 40
0
 40
1
 40
1
 40
1
 40
1
 10
66.307271
 20
41.407014
 30
0.0
 10
66.090446
 20
50.302642
 30
0.0
 10
64.794218
 20
52.667136
 30
0.0
 10
60.698014
 20
51.639054
 30
0.0
  0
SPLINE
  5
134
100
AcDbEntity
  8
Image
 62
7
100
AcDbSpline
 70
8
 71
3
 72
8
 73
4
 74
0
 40
0
 40
0
 40
0
 40
0
 40
1
 40
1
 40
1
 40
1
 10
60.698014
 20
51.639054
 30
0.0
 10
58.411838
 20
51.065261
 30
0.0
 10
58.192321
 20
50.475122
 30
0.0
 10
57.766978
 20
43.759404
 30
0.0
  0
SPLINE
  5
135
100
AcDbEntity
  8
Image
 62
7
100
AcDbSpline
 70
8
 71
3
 72
8
 73
4
 74
0
 40
0
 40
0
 40
0
 40
0
 40
1
 40
1
 40
1
 40
1
 10
57.766978
 20
43.759404
 30
0.0
 10
57.382671
 20
37.691612
 30
0.0
 10
57.610281
 20
36.161126
 30
0.0
 10
59.153600
 20
34.435549
 30
0.0
  0
SPLINE
  5
136
100
AcDbEntity
  8
Image
 62
7
100
AcDbSpline
 70
8
 71
3
 72
8
 73
4
 74
0
 40
0
 40
0
 40
0
 40
0
 40
1
 40
1
 40
1
 40
1
 10
59.153600
 20
34.435549
 30
0.0
 10
60.169120
 20
33.300101
 30
0.0
 10
61.052201
 20
31.725101
 30
0.0
 10
61.116001
 20
30.935549
 30
0.0
  0
SPLINE
  5
137
100
AcDbEntity
  8
Image
 62
7
100
AcDbSpline
 70
8
 71
3
 72
8
 73
4
 74
0
 40
0
 40
0
 40
0
 40
0
 40
1
 40
1
 40
1
 40
1
 10
61.116001
 20
30.935549
 30
0.0
 10
61.195271
 20
29.954528
 30
0.0
 10
61.373052
 20
30.034620
 30
0.0
 10
61.677483
 20
31.188506
 30
0.0
  0
SPLINE
  5
138
100
AcDbEntity
  8
Image
 62
7
100
AcDbSpline
 70
8
 71
3
 72
8
 73
4
 74
0
 40
0
 40
0
 40
0
 40
0
 40
1
 40
1
 40
1
 40
1
 10
61.677483
 20
31.188506
 30
0.0
 10
61.922497
 20
32.117184
 30
0.0
 10
63.107796
 20
33.017184
 30
0.0
 10
64.311481
 20
33.188506
 30
0.0
  0
LWPOLYLINE
  5
139
100
AcDbEntity
  8
Image
 62
7
100
AcDbPolyline
 90
1
 70
1
 10
54.073567
 20
19.538043
 30
0.0
  0
SPLINE
  5
13a
100
AcDbEntity
  8
Image
 62
7
100
AcDbSpline
 70
8
 71
3
 72
8
 73
4
 74
0
 40
0
 40
0
 40
0
 40
0
 40
1
 40
1
 40
1
 40
1
 10
61.250000
 20
35.141397
 30
0.0
 10
59.741103
 20
36.660679
 30
0.0
 10
59.590849
 20
40.000000
 30
0.0
 10
61.031385
 20
40.000000
 30
0.0
  0
SPLINE
  5
13b
100
AcDbEntity
  8
Image
 62
7
100
AcDbSpline
 70
8
 71
3
 72
8
 73
4
 74
0
 40
0
 40
0
 40
0
 40
0
 40
1
 40
1
 40
1
 40
1
 10
61.031385
 20
40.000000
 30
0.0
 10
62.325487
 20
40.000000
 30
0.0
 10
63.275258
 20
37.629670
 30
0.0
 10
62.834574
 20
35.499810
 30
0.0
  0
SPLINE
  5
13c
100
AcDbEntity
  8
Image
 62
7
100
AcDbSpline
 70
8
 71
3
 72
8
 73
4
 74
0
 40
0
 40
0
 40
0
 40
0
 40
1
 40
1
 40
1
 40
1
 10
62.834574
 20
35.499810
 30
0.0
 10
62.565919
 20
34.201383
 30
0.0
 10
62.253721
 20
34.130768
 30
0.0
 10
61.250000
 20
35.141397
 30
0.0
  0
LWPOLYLINE
  5
13d
100
AcDbEntity
  8
Image
 62
7
100
AcDbPolyline
 90
1
 70
1
 10
64.311481
 20
33.188506
 30
0.0
  0
SPLINE
  5
13e
100
AcDbEntity
  8
Image
 62
7
100
AcDbSpline
 70
8
 71
3
 72
8
 73
4
 74
0
 40
0
 40
0
 40
0
 40
0
 40
1
 40
1
 40
1
 40
1
 10
110.588940
 20
3.856098
 30
0.0
 10
110.259060
 20
4.389857
 30
0.0
 10
109.698090
 20
8.269833
 30
0.0
 10
109.342350
 20
12.478268
 30
0.0
  0
LWPOLYLINE
  5
13f
100
AcDbEntity
  8
Image
 62
7
100
AcDbPolyline
 90
1
 70
1
 10
61.250000
 20
35.141397
 30
0.0
  0
SPLINE
  5
140
100
AcDbEntity
  8
Image
 62
7
100
AcDbSpline
 70
8
 71
3
 72
8
 73
4
 74
0
 40
0
 40
0
 40
0
 40
0
 40
1
 40
1
 40
1
 40
1
 10
112.097770
 20
18.742258
 30
0.0
 10
114.601440
 20
17.721055
 30
0.0
 10
115.642190
 20
16.581431
 30
0.0
 10
116.038370
 20
14.427275
 30
0.0
  0
SPLINE
  5
141
100
AcDbEntity
  8
Image
 62
7
100
AcDbSpline
 70
8
 71
3
 72
8
 73
4
 74
0
 40
0
 40
0
 40
0
 40
0
 40
1
 40
1
 40
1
 40
1
 10
116.038370
 20
14.427275
 30
0.0
 10
116.536140
 20
11.720795
 30
0.0
 10
116.623130
 20
11.668814
 30
0.0
 10
117.191650
 20
13.738112
 30
0.0
  0
SPLINE
  5
142
100
AcDbEntity
  8
Image
 62
7
100
AcDbSpline
 70
8
 71
3
 72
8
 73
4
 74
0
 40
0
 40
0
 40
0
 40
0
 40
1
 40
1
 40
1
 40
1
 10
117.191650
 20
13.738112
 30
0.0
 10
117.789920
 20
15.915724
 30
0.0
 10
114.891520
 20
21.000000
 30
0.0
 10
113.051850
 20
21.000000
 30
0.0
  0
SPLINE
  5
143
100
AcDbEntity
  8
Image
 62
7
100
AcDbSpline
 70
8
 71
3
 72
8
 73
4
 74
0
 40
0
 40
0
 40
0
 40
0
 40
1
 40
1
 40
1
 40
1
 10
113.051850
 20
21.000000
 30
0.0
 10
112.610210
 20
21.000000
 30
0.0
 10
109.631460
 20
22.157539
 30
0.0
 10
106.432410
 20
23.572309
 30
0.0
  0
SPLINE
  5
144
100
AcDbEntity
  8
Image
 62
7
100
AcDbSpline
 70
8
 71
3
 72
8
 73
4
 74
0
 40
0
 40
0
 40
0
 40
0
 40
1
 40
1
 40
1
 40
1
 10
106.432410
 20
23.572309
 30
0.0
 10
102.129040
 20
25.475464
 30
0.0
 10
100.987600
 20
26.374304
 30
0.0
 10
102.044580
 20
27.027554
 30
0.0
  0
SPLINE
  5
145
100
AcDbEntity
  8
Image
 62
7
100
AcDbSpline
 70
8
 71
3
 72
8
 73
4
 74
0
 40
0
 40
0
 40
0
 40
0
 40
1
 40
1
 40
1
 40
1
 10
102.044580
 20
27.027554
 30
0.0
 10
103.220370
 20
27.754228
 30
0.0
 10
103.065670
 20
28.290163
 30
0.0
 10
101.170490
 20
30.055796
 30
0.0
  0
SPLINE
  5
146
100
AcDbEntity
  8
Image
 62
7
100
AcDbSpline
 70
8
 71
3
 72
8
 73
4
 74
0
 40
0
 40
0
 40
0
 40
0
 40
1
 40
1
 40
1
 40
1
 10
101.170490
 20
30.055796
 30
0.0
 10
98.744710
 20
32.315749
 30
0.0
 10
96.908402
 20
32.020221
 30
0.0
 10
98.848823
 20
29.682157
 30
0.0
  0
SPLINE
  5
147
100
AcDbEntity
  8
Image
 62
7
100
AcDbSpline
 70
8
 71
3
 72
8
 73
4
 74
0
 40
0
 40
0
 40
0
 40
0
 40
1
 40
1
 40
1
 40
1
 10
98.848823
 20
29.682157
 30
0.0
 10
100.122070
 20
28.147988
 30
0.0
 10
99.409085
 20
27.000000
 30
0.0
 10
97.183005
 20
27.000000
 30
0.0
  0
SPLINE
  5
148
100
AcDbEntity
  8
Image
 62
7
100
AcDbSpline
 70
8
 71
3
 72
8
 73
4
 74
0
 40
0
 40
0
 40
0
 40
0
 40
1
 40
1
 40
1
 40
1
 10
97.183005
 20
27.000000
 30
0.0
 10
94.609187
 20
27.000000
 30
0.0
 10
84.968981
 20
21.810558
 30
0.0
 10
83.927398
 20
19.864343
 30
0.0
  0
SPLINE
  5
149
100
AcDbEntity
  8
Image
 62
7
100
AcDbSpline
 70
8
 71
3
 72
8
 73
4
 74
0
 40
0
 40
0
 40
0
 40
0
 40
1
 40
1
 40
1
 40
1
 10
83.927398
 20
19.864343
 30
0.0
 10
83.253201
 20
18.604594
 30
0.0
 10
83.276745
 20
17.351414
 30
0.0
 10
84.000000
 20
16.000000
 30
0.0
  0
SPLINE
  5
14a
100
AcDbEntity
  8
Image
 62
7
100
AcDbSpline
 70
8
 71
3
 72
8
 73
4
 74
0
 40
0
 40
0
 40
0
 40
0
 40
1
 40
1
 40
1
 40
1
 10
84.000000
 20
16.000000
 30
0.0
 10
85.530040
 20
13.141094
 30
0.0
 10
86.261814
 20
13.531484
 30
0.0
 10
85.539276
 20
16.821178
 30
0.0
  0
SPLINE
  5
14b
100
AcDbEntity
  8
Image
 62
7
100
AcDbSpline
 70
8
 71
3
 72
8
 73
4
 74
0
 40
0
 40
0
 40
0
 40
0
 40
1
 40
1
 40
1
 40
1
 10
85.539276
 20
16.821178
 30
0.0
 10
85.020109
 20
19.184929
 30
0.0
 10
85.339136
 20
19.833491
 30
0.0
 10
87.506874
 20
20.821178
 30
0.0
  0
SPLINE
  5
14c
100
AcDbEntity
  8
Image
 62
7
100
AcDbSpline
 70
8
 71
3
 72
8
 73
4
 74
0
 40
0
 40
0
 40
0
 40
0
 40
1
 40
1
 40
1
 40
1
 10
87.506874
 20
20.821178
 30
0.0
 10
88.929851
 20
21.469530
 30
0.0
 10
90.522932
 20
22.000000
 30
0.0
 10
91.047053
 20
22.000000
 30
0.0
  0
SPLINE
  5
14d
100
AcDbEntity
  8
Image
 62
7
100
AcDbSpline
 70
8
 71
3
 72
8
 73
4
 74
0
 40
0
 40
0
 40
0
 40
0
 40
1
 40
1
 40
1
 40
1
 10
91.047053
 20
22.000000
 30
0.0
 10
92.326544
 20
22.000000
 30
0.0
 10
92.273405
 20
7.287008
 30
0.0
 10
90.991053
 20
6.494469
 30
0.0
  0
SPLINE
  5
14e
100
AcDbEntity
  8
Image
 62
7
100
AcDbSpline
 70
8
 71
3
 72
8
 73
4
 74
0
 40
0
 40
0
 40
0
 40
0
 40
1
 40
1
 40
1
 40
1
 10
90.991053
 20
6.494469
 30
0.0
 10
89.340659
 20
5.474471
 30
0.0
 10
86.000000
 20
7.006278
 30
0.0
 10
86.000000
 20
8.783039
 30
0.0
  0
SPLINE
  5
14f
100
AcDbEntity
  8
Image
 62
7
100
AcDbSpline
 70
8
 71
3
 72
8
 73
4
 74
0
 40
0
 40
0
 40
0
 40
0
 40
1
 40
1
 40
1
 40
1
 10
86.000000
 20
8.783039
 30
0.0
 10
86.000000
 20
9.689583
 30
0.0
 10
84.022820
 20
12.471759
 30
0.0
 10
81.606266
 20
14.965651
 30
0.0
  0
SPLINE
  5
150
100
AcDbEntity
  8
Image
 62
7
100
AcDbSpline
 70
8
 71
3
 72
8
 73
4
 74
0
 40
0
 40
0
 40
0
 40
0
 40
1
 40
1
 40
1
 40
1
 10
81.606266
 20
14.965651
 30
0.0
 10
76.772469
 20
19.954147
 30
0.0
 10
74.871393
 20
24.000000
 30
0.0
 10
77.361184
 20
24.000000
 30
0.0
  0
SPLINE
  5
151
100
AcDbEntity
  8
Image
 62
7
100
AcDbSpline
 70
8
 71
3
 72
8
 73
4
 74
0
 40
0
 40
0
 40
0
 40
0
 40
1
 40
1
 40
1
 40
1
 10
77.361184
 20
24.000000
 30
0.0
 10
78.183961
 20
24.000000
 30
0.0
 10
79.512404
 20
23.344738
 30
0.0
 10
80.313280
 20
22.543863
 30
0.0
  0
SPLINE
  5
152
100
AcDbEntity
  8
Image
 62
7
100
AcDbSpline
 70
8
 71
3
 72
8
 73
4
 74
0
 40
0
 40
0
 40
0
 40
0
 40
1
 40
1
 40
1
 40
1
 10
80.313280
 20
22.543863
 30
0.0
 10
81.588129
 20
21.269014
 30
0.0
 10
81.970519
 20
21.309942
 30
0.0
 10
83.384708
 20
22.872604
 30
0.0
  0
SPLINE
  5
153
100
AcDbEntity
  8
Image
 62
7
100
AcDbSpline
 70
8
 71
3
 72
8
 73
4
 74
0
 40
0
 40
0
 40
0
 40
0
 40
1
 40
1
 40
1
 40
1
 10
83.384708
 20
22.872604
 30
0.0
 10
84.531981
 20
24.140326
 30
0.0
 10
85.000000
 20
26.590430
 30
0.0
 10
85.000000
 20
31.328741
 30
0.0
  0
SPLINE
  5
154
100
AcDbEntity
  8
Image
 62
7
100
AcDbSpline
 70
8
 71
3
 72
8
 73
4
 74
0
 40
0
 40
0
 40
0
 40
0
 40
1
 40
1
 40
1
 40
1
 10
85.000000
 20
31.328741
 30
0.0
 10
85.000000
 20
34.997933
 30
0.0
 10
85.203826
 20
38.000000
 30
0.0
 10
85.452947
 20
38.000000
 30
0.0
  0
SPLINE
  5
155
100
AcDbEntity
  8
Image
 62
7
100
AcDbSpline
 70
8
 71
3
 72
8
 73
4
 74
0
 40
0
 40
0
 40
0
 40
0
 40
1
 40
1
 40
1
 40
1
 10
85.452947
 20
38.000000
 30
0.0
 10
85.702068
 20
38.000000
 30
0.0
 10
87.052068
 20
37.477768
 30
0.0
 10
88.452947
 20
36.839485
 30
0.0
  0
SPLINE
  5
156
100
AcDbEntity
  8
Image
 62
7
100
AcDbSpline
 70
8
 71
3
 72
8
 73
4
 74
0
 40
0
 40
0
 40
0
 40
0
 40
1
 40
1
 40
1
 40
1
 10
88.452947
 20
36.839485
 30
0.0
 10
90.528540
 20
35.893782
 30
0.0
 10
91.000000
 20
34.979204
 30
0.0
 10
91.000000
 20
31.898502
 30
0.0
  0
SPLINE
  5
157
100
AcDbEntity
  8
Image
 62
7
100
AcDbSpline
 70
8
 71
3
 72
8
 73
4
 74
0
 40
0
 40
0
 40
0
 40
0
 40
1
 40
1
 40
1
 40
1
 10
91.000000
 20
31.898502
 30
0.0
 10
91.000000
 20
27.263948
 30
0.0
 10
92.649807
 20
25.948725
 30
0.0
 10
94.002015
 20
29.505301
 30
0.0
  0
SPLINE
  5
158
100
AcDbEntity
  8
Image
 62
7
100
AcDbSpline
 70
8
 71
3
 72
8
 73
4
 74
0
 40
0
 40
0
 40
0
 40
0
 40
1
 40
1
 40
1
 40
1
 10
94.002015
 20
29.505301
 30
0.0
 10
94.675184
 20
31.275869
 30
0.0
 10
94.662881
 20
32.761395
 30
0.0
 10
93.964235
 20
34.066824
 30
0.0
  0
SPLINE
  5
159
100
AcDbEntity
  8
Image
 62
7
100
AcDbSpline
 70
8
 71
3
 72
8
 73
4
 74
0
 40
0
 40
0
 40
0
 40
0
 40
1
 40
1
 40
1
 40
1
 10
93.964235
 20
34.066824
 30
0.0
 10
92.769852
 20
36.298552
 30
0.0
 10
84.025090
 20
41.000000
 30
0.0
 10
81.068427
 20
41.000000
 30
0.0
  0
SPLINE
  5
15a
100
AcDbEntity
  8
Image
 62
7
100
AcDbSpline
 70
8
 71
3
 72
8
 73
4
 74
0
 40
0
 40
0
 40
0
 40
0
 40
1
 40
1
 40
1
 40
1
 10
81.068427
 20
41.000000
 30
0.0
 10
79.969495
 20
41.000000
 30
0.0
 10
78.588702
 20
41.900000
 30
0.0
 10
78.000000
 20
43.000000
 30
0.0
  0
SPLINE
  5
15b
100
AcDbEntity
  8
Image
 62
7
100
AcDbSpline
 70
8
 71
3
 72
8
 73
4
 74
0
 40
0
 40
0
 40
0
 40
0
 40
1
 40
1
 40
1
 40
1
 10
78.000000
 20
43.000000
 30
0.0
 10
77.097802
 20
44.685773
 30
0.0
 10
77.239510
 20
45.000000
 30
0.0
 10
78.901946
 20
45.000000
 30
0.0
  0
SPLINE
  5
15c
100
AcDbEntity
  8
Image
 62
7
100
AcDbSpline
 70
8
 71
3
 72
8
 73
4
 74
0
 40
0
 40
0
 40
0
 40
0
 40
1
 40
1
 40
1
 40
1
 10
78.901946
 20
45.000000
 30
0.0
 10
80.583376
 20
45.000000
 30
0.0
 10
80.793535
 20
45.497441
 30
0.0
 10
80.326918
 20
48.372868
 30
0.0
  0
SPLINE
  5
15d
100
AcDbEntity
  8
Image
 62
7
100
AcDbSpline
 70
8
 71
3
 72
8
 73
4
 74
0
 40
0
 40
0
 40
0
 40
0
 40
1
 40
1
 40
1
 40
1
 10
80.326918
 20
48.372868
 30
0.0
 10
79.996960
 20
50.406160
 30
0.0
 10
80.237908
 20
52.029002
 30
0.0
 10
80.933593
 20
52.458958
 30
0.0
  0
SPLINE
  5
15e
100
AcDbEntity
  8
Image
 62
7
100
AcDbSpline
 70
8
 71
3
 72
8
 73
4
 74
0
 40
0
 40
0
 40
0
 40
0
 40
1
 40
1
 40
1
 40
1
 10
80.933593
 20
52.458958
 30
0.0
 10
82.445043
 20
53.393086
 30
0.0
 10
85.000000
 20
51.229990
 30
0.0
 10
85.000000
 20
49.016227
 30
0.0
  0
SPLINE
  5
15f
100
AcDbEntity
  8
Image
 62
7
100
AcDbSpline
 70
8
 71
3
 72
8
 73
4
 74
0
 40
0
 40
0
 40
0
 40
0
 40
1
 40
1
 40
1
 40
1
 10
85.000000
 20
49.016227
 30
0.0
 10
85.000000
 20
47.723455
 30
0.0
 10
85.611303
 20
47.394202
 30
0.0
 10
87.382783
 20
47.732842
 30
0.0
  0
SPLINE
  5
160
100
AcDbEntity
  8
Image
 62
7
100
AcDbSpline
 70
8
 71
3
 72
8
 73
4
 74
0
 40
0
 40
0
 40
0
 40
0
 40
1
 40
1
 40
1
 40
1
 10
87.382783
 20
47.732842
 30
0.0
 10
90.263584
 20
48.283542
 30
0.0
 10
91.451722
 20
46.637717
 30
0.0
 10
91.171983
 20
42.483989
 30
0.0
  0
SPLINE
  5
161
100
AcDbEntity
  8
Image
 62
7
100
AcDbSpline
 70
8
 71
3
 72
8
 73
4
 74
0
 40
0
 40
0
 40
0
 40
0
 40
1
 40
1
 40
1
 40
1
 10
91.171983
 20
42.483989
 30
0.0
 10
91.022216
 20
40.260152
 30
0.0
 10
91.670679
 20
38.777523
 30
0.0
 10
93.481880
 20
37.202704
 30
0.0
  0
SPLINE
  5
162
100
AcDbEntity
  8
Image
 62
7
100
AcDbSpline
 70
8
 71
3
 72
8
 73
4
 74
0
 40
0
 40
0
 40
0
 40
0
 40
1
 40
1
 40
1
 40
1
 10
93.481880
 20
37.202704
 30
0.0
 10
94.866846
 20
35.998491
 30
0.0
 10
96.013684
 20
34.222751
 30
0.0
 10
96.030409
 20
33.256613
 30
0.0
  0
SPLINE
  5
163
100
AcDbEntity
  8
Image
 62
7
100
AcDbSpline
 70
8
 71
3
 72
8
 73
4
 74
0
 40
0
 40
0
 40
0
 40
0
 40
1
 40
1
 40
1
 40
1
 10
96.030409
 20
33.256613
 30
0.0
 10
96.059339
 20
31.585402
 30
0.0
 10
96.110369
 20
31.585081
 30
0.0
 10
97.080099
 20
33.250013
 30
0.0
  0
SPLINE
  5
164
100
AcDbEntity
  8
Image
 62
7
100
AcDbSpline
 70
8
 71
3
 72
8
 73
4
 74
0
 40
0
 40
0
 40
0
 40
0
 40
1
 40
1
 40
1
 40
1
 10
97.080099
 20
33.250013
 30
0.0
 10
98.759938
 20
36.134122
 30
0.0
 10
101.080880
 20
35.182101
 30
0.0
 10
103.784360
 20
30.500013
 30
0.0
  0
SPLINE
  5
165
100
AcDbEntity
  8
Image
 62
7
100
AcDbSpline
 70
8
 71
3
 72
8
 73
4
 74
0
 40
0
 40
0
 40
0
 40
0
 40
1
 40
1
 40
1
 40
1
 10
103.784360
 20
30.500013
 30
0.0
 10
104.924220
 20
28.525928
 30
0.0
 10
104.939580
 20
28.527420
 30
0.0
 10
104.969590
 20
30.615154
 30
0.0
  0
SPLINE
  5
166
100
AcDbEntity
  8
Image
 62
7
100
AcDbSpline
 70
8
 71
3
 72
8
 73
4
 74
0
 40
0
 40
0
 40
0
 40
0
 40
1
 40
1
 40
1
 40
1
 10
104.969590
 20
30.615154
 30
0.0
 10
104.986290
 20
31.778482
 30
0.0
 10
105.833770
 20
33.803482
 30
0.0
 10
106.852830
 20
35.115154
 30
0.0
  0
SPLINE
  5
167
100
AcDbEntity
  8
Image
 62
7
100
AcDbSpline
 70
8
 71
3
 72
8
 73
4
 74
0
 40
0
 40
0
 40
0
 40
0
 40
1
 40
1
 40
1
 40
1
 10
106.852830
 20
35.115154
 30
0.0
 10
108.000810
 20
36.592769
 30
0.0
 10
108.918510
 20
39.907681
 30
0.0
 10
109.265170
 20
43.829016
 30
0.0
  0
SPLINE
  5
168
100
AcDbEntity
  8
Image
 62
7
100
AcDbSpline
 70
8
 71
3
 72
8
 73
4
 74
0
 40
0
 40
0
 40
0
 40
0
 40
1
 40
1
 40
1
 40
1
 10
109.265170
 20
43.829016
 30
0.0
 10
109.572890
 20
47.309967
 30
0.0
 10
110.087220
 20
50.420565
 30
0.0
 10
110.408110
 20
50.741456
 30
0.0
  0
SPLINE
  5
169
100
AcDbEntity
  8
Image
 62
7
100
AcDbSpline
 70
8
 71
3
 72
8
 73
4
 74
0
 40
0
 40
0
 40
0
 40
0
 40
1
 40
1
 40
1
 40
1
 10
110.408110
 20
50.741456
 30
0.0
 10
110.729000
 20
51.062347
 30
0.0
 10
112.118450
 20
50.811446
 30
0.0
 10
113.495770
 20
50.183892
 30
0.0
  0
SPLINE
  5
16a
100
AcDbEntity
  8
Image
 62
7
100
AcDbSpline
 70
8
 71
3
 72
8
 73
4
 74
0
 40
0
 40
0
 40
0
 40
0
 40
1
 40
1
 40
1
 40
1
 10
113.495770
 20
50.183892
 30
0.0
 10
115.379180
 20
49.325754
 30
0.0
 10
116.000000
 20
48.279220
 30
0.0
 10
116.000000
 20
45.962435
 30
0.0
  0
SPLINE
  5
16b
100
AcDbEntity
  8
Image
 62
7
100
AcDbSpline
 70
8
 71
3
 72
8
 73
4
 74
0
 40
0
 40
0
 40
0
 40
0
 40
1
 40
1
 40
1
 40
1
 10
116.000000
 20
45.962435
 30
0.0
 10
116.000000
 20
44.163442
 30
0.0
 10
116.416000
 20
43.139080
 30
0.0
 10
117.000000
 20
43.500013
 30
0.0
  0
SPLINE
  5
16c
100
AcDbEntity
  8
Image
 62
7
100
AcDbSpline
 70
8
 71
3
 72
8
 73
4
 74
0
 40
0
 40
0
 40
0
 40
0
 40
1
 40
1
 40
1
 40
1
 10
117.000000
 20
43.500013
 30
0.0
 10
120.237670
 20
45.501001
 30
0.0
 10
116.086530
 20
50.925619
 30
0.0
 10
109.770230
 20
52.947716
 30
0.0
  0
SPLINE
  5
16d
100
AcDbEntity
  8
Image
 62
7
100
AcDbSpline
 70
8
 71
3
 72
8
 73
4
 74
0
 40
0
 40
0
 40
0
 40
0
 40
1
 40
1
 40
1
 40
1
 10
109.770230
 20
52.947716
 30
0.0
 10
106.646550
 20
53.947731
 30
0.0
 10
105.676020
 20
53.886497
 30
0.0
 10
103.797730
 20
52.570888
 30
0.0
  0
SPLINE
  5
16e
100
AcDbEntity
  8
Image
 62
7
100
AcDbSpline
 70
8
 71
3
 72
8
 73
4
 74
0
 40
0
 40
0
 40
0
 40
0
 40
1
 40
1
 40
1
 40
1
 10
103.797730
 20
52.570888
 30
0.0
 10
100.927790
 20
50.560693
 30
0.0
 10
99.000000
 20
50.567118
 30
0.0
 10
99.000000
 20
52.586864
 30
0.0
  0
SPLINE
  5
16f
100
AcDbEntity
  8
Image
 62
7
100
AcDbSpline
 70
8
 71
3
 72
8
 73
4
 74
0
 40
0
 40
0
 40
0
 40
0
 40
1
 40
1
 40
1
 40
1
 10
99.000000
 20
52.586864
 30
0.0
 10
99.000000
 20
53.459639
 30
0.0
 10
100.320390
 20
54.672121
 30
0.0
 10
101.934210
 20
55.281267
 30
0.0
  0
SPLINE
  5
170
100
AcDbEntity
  8
Image
 62
7
100
AcDbSpline
 70
8
 71
3
 72
8
 73
4
 74
0
 40
0
 40
0
 40
0
 40
0
 40
1
 40
1
 40
1
 40
1
 10
101.934210
 20
55.281267
 30
0.0
 10
103.548020
 20
55.890414
 30
0.0
 10
105.092730
 20
57.246602
 30
0.0
 10
105.366900
 20
58.295019
 30
0.0
  0
SPLINE
  5
171
100
AcDbEntity
  8
Image
 62
7
100
AcDbSpline
 70
8
 71
3
 72
8
 73
4
 74
0
 40
0
 40
0
 40
0
 40
0
 40
1
 40
1
 40
1
 40
1
 10
105.366900
 20
58.295019
 30
0.0
 10
105.661600
 20
59.421949
 30
0.0
 10
106.337330
 20
59.909554
 30
0.0
 10
107.019810
 20
59.487757
 30
0.0
  0
SPLINE
  5
172
100
AcDbEntity
  8
Image
 62
7
100
AcDbSpline
 70
8
 71
3
 72
8
 73
4
 74
0
 40
0
 40
0
 40
0
 40
0
 40
1
 40
1
 40
1
 40
1
 10
107.019810
 20
59.487757
 30
0.0
 10
107.654740
 20
59.095346
 30
0.0
 10
107.952160
 20
57.925069
 30
0.0
 10
107.680740
 20
56.887141
 30
0.0
  0
SPLINE
  5
173
100
AcDbEntity
  8
Image
 62
7
100
AcDbSpline
 70
8
 71
3
 72
8
 73
4
 74
0
 40
0
 40
0
 40
0
 40
0
 40
1
 40
1
 40
1
 40
1
 10
107.680740
 20
56.887141
 30
0.0
 10
107.385460
 20
55.757988
 30
0.0
 10
107.705280
 20
55.000000
 30
0.0
 10
108.476990
 20
55.000000
 30
0.0
  0
SPLINE
  5
174
100
AcDbEntity
  8
Image
 62
7
100
AcDbSpline
 70
8
 71
3
 72
8
 73
4
 74
0
 40
0
 40
0
 40
0
 40
0
 40
1
 40
1
 40
1
 40
1
 10
108.476990
 20
55.000000
 30
0.0
 10
109.186350
 20
55.000000
 30
0.0
 10
110.011400
 20
55.935599
 30
0.0
 10
110.310440
 20
57.079108
 30
0.0
  0
SPLINE
  5
175
100
AcDbEntity
  8
Image
 62
7
100
AcDbSpline
 70
8
 71
3
 72
8
 73
4
 74
0
 40
0
 40
0
 40
0
 40
0
 40
1
 40
1
 40
1
 40
1
 10
110.310440
 20
57.079108
 30
0.0
 10
110.701270
 20
58.573644
 30
0.0
 10
111.507260
 20
59.065683
 30
0.0
 10
113.177070
 20
58.829108
 30
0.0
  0
SPLINE
  5
176
100
AcDbEntity
  8
Image
 62
7
100
AcDbSpline
 70
8
 71
3
 72
8
 73
4
 74
0
 40
0
 40
0
 40
0
 40
0
 40
1
 40
1
 40
1
 40
1
 10
113.177070
 20
58.829108
 30
0.0
 10
115.001910
 20
58.570569
 30
0.0
 10
115.569100
 20
57.777521
 30
0.0
 10
115.822260
 20
55.130622
 30
0.0
  0
SPLINE
  5
177
100
AcDbEntity
  8
Image
 62
7
100
AcDbSpline
 70
8
 71
3
 72
8
 73
4
 74
0
 40
0
 40
0
 40
0
 40
0
 40
1
 40
1
 40
1
 40
1
 10
115.822260
 20
55.130622
 30
0.0
 10
115.999510
 20
53.277465
 30
0.0
 10
117.012010
 20
50.830112
 30
0.0
 10
118.072260
 20
49.692061
 30
0.0
  0
SPLINE
  5
178
100
AcDbEntity
  8
Image
 62
7
100
AcDbSpline
 70
8
 71
3
 72
8
 73
4
 74
0
 40
0
 40
0
 40
0
 40
0
 40
1
 40
1
 40
1
 40
1
 10
118.072260
 20
49.692061
 30
0.0
 10
120.240060
 20
47.365202
 30
0.0
 10
120.436520
 20
47.721658
 30
0.0
 10
119.028050
 20
51.426216
 30
0.0
  0
SPLINE
  5
179
100
AcDbEntity
  8
Image
 62
7
100
AcDbSpline
 70
8
 71
3
 72
8
 73
4
 74
0
 40
0
 40
0
 40
0
 40
0
 40
1
 40
1
 40
1
 40
1
 10
119.028050
 20
51.426216
 30
0.0
 10
117.906610
 20
54.375837
 30
0.0
 10
118.618250
 20
57.000000
 30
0.0
 10
120.539600
 20
57.000000
 30
0.0
  0
SPLINE
  5
17a
100
AcDbEntity
  8
Image
 62
7
100
AcDbSpline
 70
8
 71
3
 72
8
 73
4
 74
0
 40
0
 40
0
 40
0
 40
0
 40
1
 40
1
 40
1
 40
1
 10
120.539600
 20
57.000000
 30
0.0
 10
122.170140
 20
57.000000
 30
0.0
 10
123.268350
 20
53.862896
 30
0.0
 10
122.415690
 20
51.640877
 30
0.0
  0
SPLINE
  5
17b
100
AcDbEntity
  8
Image
 62
7
100
AcDbSpline
 70
8
 71
3
 72
8
 73
4
 74
0
 40
0
 40
0
 40
0
 40
0
 40
1
 40
1
 40
1
 40
1
 10
122.415690
 20
51.640877
 30
0.0
 10
121.985910
 20
50.520908
 30
0.0
 10
122.319450
 20
50.000000
 30
0.0
 10
123.466340
 20
50.000000
 30
0.0
  0
SPLINE
  5
17c
100
AcDbEntity
  8
Image
 62
7
100
AcDbSpline
 70
8
 71
3
 72
8
 73
4
 74
0
 40
0
 40
0
 40
0
 40
0
 40
1
 40
1
 40
1
 40
1
 10
123.466340
 20
50.000000
 30
0.0
 10
125.999310
 20
50.000000
 30
0.0
 10
124.907220
 20
46.686301
 30
0.0
 10
122.160550
 20
46.037900
 30
0.0
  0
SPLINE
  5
17d
100
AcDbEntity
  8
Image
 62
7
100
AcDbSpline
 70
8
 71
3
 72
8
 73
4
 74
0
 40
0
 40
0
 40
0
 40
0
 40
1
 40
1
 40
1
 40
1
 10
122.160550
 20
46.037900
 30
0.0
 10
120.879620
 20
45.735515
 30
0.0
 10
119.306990
 20
44.527990
 30
0.0
 10
118.665800
 20
43.354511
 30
0.0
  0
SPLINE
  5
17e
100
AcDbEntity
  8
Image
 62
7
100
AcDbSpline
 70
8
 71
3
 72
8
 73
4
 74
0
 40
0
 40
0
 40
0
 40
0
 40
1
 40
1
 40
1
 40
1
 10
118.665800
 20
43.354511
 30
0.0
 10
118.024610
 20
42.181032
 30
0.0
 10
115.173550
 20
39.389237
 30
0.0
 10
112.330100
 20
37.150521
 30
0.0
  0
SPLINE
  5
17f
100
AcDbEntity
  8
Image
 62
7
100
AcDbSpline
 70
8
 71
3
 72
8
 73
4
 74
0
 40
0
 40
0
 40
0
 40
0
 40
1
 40
1
 40
1
 40
1
 10
112.330100
 20
37.150521
 30
0.0
 10
106.510590
 20
32.568668
 30
0.0
 10
105.295300
 20
30.116383
 30
0.0
 10
107.194600
 20
26.787773
 30
0.0
  0
SPLINE
  5
180
100
AcDbEntity
  8
Image
 62
7
100
AcDbSpline
 70
8
 71
3
 72
8
 73
4
 74
0
 40
0
 40
0
 40
0
 40
0
 40
1
 40
1
 40
1
 40
1
 10
107.194600
 20
26.787773
 30
0.0
 10
108.436230
 20
24.611759
 30
0.0
 10
108.515110
 20
24.709407
 30
0.0
 10
108.809290
 20
28.786677
 30
0.0
  0
SPLINE
  5
181
100
AcDbEntity
  8
Image
 62
7
100
AcDbSpline
 70
8
 71
3
 72
8
 73
4
 74
0
 40
0
 40
0
 40
0
 40
0
 40
1
 40
1
 40
1
 40
1
 10
108.809290
 20
28.786677
 30
0.0
 10
109.075730
 20
32.479470
 30
0.0
 10
109.671690
 20
33.474026
 30
0.0
 10
113.110960
 20
35.965421
 30
0.0
  0
SPLINE
  5
182
100
AcDbEntity
  8
Image
 62
7
100
AcDbSpline
 70
8
 71
3
 72
8
 73
4
 74
0
 40
0
 40
0
 40
0
 40
0
 40
1
 40
1
 40
1
 40
1
 10
113.110960
 20
35.965421
 30
0.0
 10
116.259840
 20
38.246454
 30
0.0
 10
117.811450
 20
38.742578
 30
0.0
 10
120.454870
 20
38.313610
 30
0.0
  0
SPLINE
  5
183
100
AcDbEntity
  8
Image
 62
7
100
AcDbSpline
 70
8
 71
3
 72
8
 73
4
 74
0
 40
0
 40
0
 40
0
 40
0
 40
1
 40
1
 40
1
 40
1
 10
120.454870
 20
38.313610
 30
0.0
 10
124.683260
 20
37.627437
 30
0.0
 10
125.661370
 20
39.238443
 30
0.0
 10
126.604320
 20
48.442166
 30
0.0
  0
SPLINE
  5
184
100
AcDbEntity
  8
Image
 62
7
100
AcDbSpline
 70
8
 71
3
 72
8
 73
4
 74
0
 40
0
 40
0
 40
0
 40
0
 40
1
 40
1
 40
1
 40
1
 10
126.604320
 20
48.442166
 30
0.0
 10
127.320440
 20
55.431904
 30
0.0
 10
128.723900
 20
57.303959
 30
0.0
 10
131.512730
 20
54.989431
 30
0.0
  0
SPLINE
  5
185
100
AcDbEntity
  8
Image
 62
7
100
AcDbSpline
 70
8
 71
3
 72
8
 73
4
 74
0
 40
0
 40
0
 40
0
 40
0
 40
1
 40
1
 40
1
 40
1
 10
131.512730
 20
54.989431
 30
0.0
 10
134.574110
 20
52.448715
 30
0.0
 10
132.818130
 20
38.564211
 30
0.0
 10
128.909200
 20
34.403345
 30
0.0
  0
SPLINE
  5
186
100
AcDbEntity
  8
Image
 62
7
100
AcDbSpline
 70
8
 71
3
 72
8
 73
4
 74
0
 40
0
 40
0
 40
0
 40
0
 40
1
 40
1
 40
1
 40
1
 10
128.909200
 20
34.403345
 30
0.0
 10
127.026170
 20
32.398956
 30
0.0
 10
125.684310
 20
32.000000
 30
0.0
 10
120.825690
 20
32.000000
 30
0.0
  0
SPLINE
  5
187
100
AcDbEntity
  8
Image
 62
7
100
AcDbSpline
 70
8
 71
3
 72
8
 73
4
 74
0
 40
0
 40
0
 40
0
 40
0
 40
1
 40
1
 40
1
 40
1
 10
120.825690
 20
32.000000
 30
0.0
 10
115.785380
 20
32.000000
 30
0.0
 10
115.000000
 20
31.745906
 30
0.0
 10
115.000000
 20
30.115223
 30
0.0
  0
SPLINE
  5
188
100
AcDbEntity
  8
Image
 62
7
100
AcDbSpline
 70
8
 71
3
 72
8
 73
4
 74
0
 40
0
 40
0
 40
0
 40
0
 40
1
 40
1
 40
1
 40
1
 10
115.000000
 20
30.115223
 30
0.0
 10
115.000000
 20
28.583705
 30
0.0
 10
116.017060
 20
28.103374
 30
0.0
 10
120.426400
 20
27.552463
 30
0.0
  0
SPLINE
  5
189
100
AcDbEntity
  8
Image
 62
7
100
AcDbSpline
 70
8
 71
3
 72
8
 73
4
 74
0
 40
0
 40
0
 40
0
 40
0
 40
1
 40
1
 40
1
 40
1
 10
120.426400
 20
27.552463
 30
0.0
 10
127.455100
 20
26.674284
 30
0.0
 10
130.505750
 20
23.783517
 30
0.0
 10
131.383060
 20
17.170007
 30
0.0
  0
SPLINE
  5
18a
100
AcDbEntity
  8
Image
 62
7
100
AcDbSpline
 70
8
 71
3
 72
8
 73
4
 74
0
 40
0
 40
0
 40
0
 40
0
 40
1
 40
1
 40
1
 40
1
 10
131.383060
 20
17.170007
 30
0.0
 10
132.543690
 20
8.420744
 30
0.0
 10
130.151990
 20
2.969118
 30
0.0
 10
126.487270
 20
6.010569
 30
0.0
  0
SPLINE
  5
18b
100
AcDbEntity
  8
Image
 62
7
100
AcDbSpline
 70
8
 71
3
 72
8
 73
4
 74
0
 40
0
 40
0
 40
0
 40
0
 40
1
 40
1
 40
1
 40
1
 10
126.487270
 20
6.010569
 30
0.0
 10
125.490480
 20
6.837824
 30
0.0
 10
125.000000
 20
9.117286
 30
0.0
 10
125.000000
 20
12.922445
 30
0.0
  0
SPLINE
  5
18c
100
AcDbEntity
  8
Image
 62
7
100
AcDbSpline
 70
8
 71
3
 72
8
 73
4
 74
0
 40
0
 40
0
 40
0
 40
0
 40
1
 40
1
 40
1
 40
1
 10
125.000000
 20
12.922445
 30
0.0
 10
125.000000
 20
19.324366
 30
0.0
 10
123.895890
 20
21.000000
 30
0.0
 10
119.677560
 20
21.000000
 30
0.0
  0
SPLINE
  5
18d
100
AcDbEntity
  8
Image
 62
7
100
AcDbSpline
 70
8
 71
3
 72
8
 73
4
 74
0
 40
0
 40
0
 40
0
 40
0
 40
1
 40
1
 40
1
 40
1
 10
119.677560
 20
21.000000
 30
0.0
 10
117.289210
 20
21.000000
 30
0.0
 10
116.966960
 20
20.744731
 30
0.0
 10
117.914320
 20
19.603235
 30
0.0
  0
SPLINE
  5
18e
100
AcDbEntity
  8
Image
 62
7
100
AcDbSpline
 70
8
 71
3
 72
8
 73
4
 74
0
 40
0
 40
0
 40
0
 40
0
 40
1
 40
1
 40
1
 40
1
 10
117.914320
 20
19.603235
 30
0.0
 10
118.551890
 20
18.835014
 30
0.0
 10
119.963680
 20
18.439247
 30
0.0
 10
121.051630
 20
18.723753
 30
0.0
  0
SPLINE
  5
18f
100
AcDbEntity
  8
Image
 62
7
100
AcDbSpline
 70
8
 71
3
 72
8
 73
4
 74
0
 40
0
 40
0
 40
0
 40
0
 40
1
 40
1
 40
1
 40
1
 10
121.051630
 20
18.723753
 30
0.0
 10
122.648970
 20
19.141466
 30
0.0
 10
122.895450
 20
18.880987
 30
0.0
 10
122.332120
 20
17.370518
 30
0.0
  0
SPLINE
  5
190
100
AcDbEntity
  8
Image
 62
7
100
AcDbSpline
 70
8
 71
3
 72
8
 73
4
 74
0
 40
0
 40
0
 40
0
 40
0
 40
1
 40
1
 40
1
 40
1
 10
122.332120
 20
17.370518
 30
0.0
 10
121.948440
 20
16.341733
 30
0.0
 10
120.400980
 20
13.925000
 30
0.0
 10
118.893310
 20
12.000000
 30
0.0
  0
SPLINE
  5
191
100
AcDbEntity
  8
Image
 62
7
100
AcDbSpline
 70
8
 71
3
 72
8
 73
4
 74
0
 40
0
 40
0
 40
0
 40
0
 40
1
 40
1
 40
1
 40
1
 10
118.893310
 20
12.000000
 30
0.0
 10
117.385640
 20
10.075000
 30
0.0
 10
116.005370
 20
7.375000
 30
0.0
 10
115.826040
 20
6.000000
 30
0.0
  0
SPLINE
  5
192
100
AcDbEntity
  8
Image
 62
7
100
AcDbSpline
 70
8
 71
3
 72
8
 73
4
 74
0
 40
0
 40
0
 40
0
 40
0
 40
1
 40
1
 40
1
 40
1
 10
115.826040
 20
6.000000
 30
0.0
 10
115.489990
 20
3.423254
 30
0.0
 10
111.792040
 20
1.909434
 30
0.0
 10
110.588940
 20
3.856098
 30
0.0
  0
LWPOLYLINE
  5
193
100
AcDbEntity
  8
Image
 62
7
100
AcDbPolyline
 90
3
 70
0
 10
109.342350
 20
12.478268
 30
0.0
 10
108.695540
 20
20.129968
 30
0.0
 10
112.097770
 20
18.742258
 30
0.0
  0
SPLINE
  5
194
100
AcDbEntity
  8
Image
 62
7
100
AcDbSpline
 70
8
 71
3
 72
8
 73
4
 74
0
 40
0
 40
0
 40
0
 40
0
 40
1
 40
1
 40
1
 40
1
 10
84.662281
 20
45.250000
 30
0.0
 10
84.384868
 20
45.937500
 30
0.0
 10
84.157895
 20
45.375000
 30
0.0
 10
84.157895
 20
44.000000
 30
0.0
  0
SPLINE
  5
195
100
AcDbEntity
  8
Image
 62
7
100
AcDbSpline
 70
8
 71
3
 72
8
 73
4
 74
0
 40
0
 40
0
 40
0
 40
0
 40
1
 40
1
 40
1
 40
1
 10
84.157895
 20
44.000000
 30
0.0
 10
84.157895
 20
42.625000
 30
0.0
 10
84.384868
 20
42.062500
 30
0.0
 10
84.662281
 20
42.750000
 30
0.0
  0
SPLINE
  5
196
100
AcDbEntity
  8
Image
 62
7
100
AcDbSpline
 70
8
 71
3
 72
8
 73
4
 74
0
 40
0
 40
0
 40
0
 40
0
 40
1
 40
1
 40
1
 40
1
 10
84.662281
 20
42.750000
 30
0.0
 10
84.939693
 20
43.437500
 30
0.0
 10
84.939693
 20
44.562500
 30
0.0
 10
84.662281
 20
45.250000
 30
0.0
  0
LWPOLYLINE
  5
197
100
AcDbEntity
  8
Image
 62
7
100
AcDbPolyline
 90
1
 70
1
 10
110.588940
 20
3.856098
 30
0.0
  0
SPLINE
  5
198
100
AcDbEntity
  8
Image
 62
7
100
AcDbSpline
 70
8
 71
3
 72
8
 73
4
 74
0
 40
0
 40
0
 40
0
 40
0
 40
1
 40
1
 40
1
 40
1
 10
166.666670
 20
3.666667
 30
0.0
 10
166.300000
 20
4.033333
 30
0.0
 10
165.985780
 20
5.045833
 30
0.0
 10
165.968400
 20
5.916667
 30
0.0
  0
SPLINE
  5
199
100
AcDbEntity
  8
Image
 62
7
100
AcDbSpline
 70
8
 71
3
 72
8
 73
4
 74
0
 40
0
 40
0
 40
0
 40
0
 40
1
 40
1
 40
1
 40
1
 10
165.968400
 20
5.916667
 30
0.0
 10
165.951000
 20
6.787500
 30
0.0
 10
164.834120
 20
8.753180
 30
0.0
 10
163.486390
 20
10.284844
 30
0.0
  0
SPLINE
  5
19a
100
AcDbEntity
  8
Image
 62
7
100
AcDbSpline
 70
8
 71
3
 72
8
 73
4
 74
0
 40
0
 40
0
 40
0
 40
0
 40
1
 40
1
 40
1
 40
1
 10
163.486390
 20
10.284844
 30
0.0
 10
161.111620
 20
12.983739
 30
0.0
 10
160.957310
 20
13.018137
 30
0.0
 10
158.486790
 20
11.399385
 30
0.0
  0
SPLINE
  5
19b
100
AcDbEntity
  8
Image
 62
7
100
AcDbSpline
 70
8
 71
3
 72
8
 73
4
 74
0
 40
0
 40
0
 40
0
 40
0
 40
1
 40
1
 40
1
 40
1
 10
158.486790
 20
11.399385
 30
0.0
 10
155.331200
 20
9.331764
 30
0.0
 10
154.304230
 20
10.177530
 30
0.0
 10
155.850260
 20
13.570710
 30
0.0
  0
SPLINE
  5
19c
100
AcDbEntity
  8
Image
 62
7
100
AcDbSpline
 70
8
 71
3
 72
8
 73
4
 74
0
 40
0
 40
0
 40
0
 40
0
 40
1
 40
1
 40
1
 40
1
 10
155.850260
 20
13.570710
 30
0.0
 10
156.496590
 20
14.989249
 30
0.0
 10
156.768130
 20
16.566150
 30
0.0
 10
156.453690
 20
17.074936
 30
0.0
  0
SPLINE
  5
19d
100
AcDbEntity
  8
Image
 62
7
100
AcDbSpline
 70
8
 71
3
 72
8
 73
4
 74
0
 40
0
 40
0
 40
0
 40
0
 40
1
 40
1
 40
1
 40
1
 10
156.453690
 20
17.074936
 30
0.0
 10
156.139240
 20
17.583721
 30
0.0
 10
157.146020
 20
18.003075
 30
0.0
 10
158.690980
 20
18.006833
 30
0.0
  0
SPLINE
  5
19e
100
AcDbEntity
  8
Image
 62
7
100
AcDbSpline
 70
8
 71
3
 72
8
 73
4
 74
0
 40
0
 40
0
 40
0
 40
0
 40
1
 40
1
 40
1
 40
1
 10
158.690980
 20
18.006833
 30
0.0
 10
162.854480
 20
18.016961
 30
0.0
 10
166.000000
 20
23.108451
 30
0.0
 10
166.000000
 20
29.837560
 30
0.0
  0
LWPOLYLINE
  5
19f
100
AcDbEntity
  8
Image
 62
7
100
AcDbPolyline
 90
1
 70
1
 10
84.662281
 20
45.250000
 30
0.0
  0
SPLINE
  5
1a0
100
AcDbEntity
  8
Image
 62
7
100
AcDbSpline
 70
8
 71
3
 72
8
 73
4
 74
0
 40
0
 40
0
 40
0
 40
0
 40
1
 40
1
 40
1
 40
1
 10
168.939290
 20
33.531392
 30
0.0
 10
171.261970
 20
32.330288
 30
0.0
 10
171.951540
 20
31.223539
 30
0.0
 10
172.226330
 20
28.255712
 30
0.0
  0
LWPOLYLINE
  5
1a1
100
AcDbEntity
  8
Image
 62
7
100
AcDbPolyline
 90
3
 70
0
 10
166.000000
 20
29.837560
 30
0.0
 10
166.000000
 20
35.051360
 30
0.0
 10
168.939290
 20
33.531392
 30
0.0
  0
SPLINE
  5
1a2
100
AcDbEntity
  8
Image
 62
7
100
AcDbSpline
 70
8
 71
3
 72
8
 73
4
 74
0
 40
0
 40
0
 40
0
 40
0
 40
1
 40
1
 40
1
 40
1
 10
173.434290
 20
27.404777
 30
0.0
 10
174.566390
 20
31.227618
 30
0.0
 10
173.406490
 20
32.915567
 30
0.0
 10
167.468700
 20
36.086158
 30
0.0
  0
SPLINE
  5
1a3
100
AcDbEntity
  8
Image
 62
7
100
AcDbSpline
 70
8
 71
3
 72
8
 73
4
 74
0
 40
0
 40
0
 40
0
 40
0
 40
1
 40
1
 40
1
 40
1
 10
167.468700
 20
36.086158
 30
0.0
 10
164.804910
 20
37.508546
 30
0.0
 10
162.195370
 20
39.636145
 30
0.0
 10
161.669720
 20
40.814156
 30
0.0
  0
SPLINE
  5
1a4
100
AcDbEntity
  8
Image
 62
7
100
AcDbSpline
 70
8
 71
3
 72
8
 73
4
 74
0
 40
0
 40
0
 40
0
 40
0
 40
1
 40
1
 40
1
 40
1
 10
161.669720
 20
40.814156
 30
0.0
 10
161.144080
 20
41.992168
 30
0.0
 10
159.850920
 20
43.229927
 30
0.0
 10
158.796050
 20
43.564733
 30
0.0
  0
SPLINE
  5
1a5
100
AcDbEntity
  8
Image
 62
7
100
AcDbSpline
 70
8
 71
3
 72
8
 73
4
 74
0
 40
0
 40
0
 40
0
 40
0
 40
1
 40
1
 40
1
 40
1
 10
158.796050
 20
43.564733
 30
0.0
 10
156.663900
 20
44.241448
 30
0.0
 10
154.266670
 20
48.600005
 30
0.0
 10
155.402120
 20
49.735450
 30
0.0
  0
SPLINE
  5
1a6
100
AcDbEntity
  8
Image
 62
7
100
AcDbSpline
 70
8
 71
3
 72
8
 73
4
 74
0
 40
0
 40
0
 40
0
 40
0
 40
1
 40
1
 40
1
 40
1
 10
155.402120
 20
49.735450
 30
0.0
 10
155.801960
 20
50.135298
 30
0.0
 10
157.515720
 20
49.666640
 30
0.0
 10
159.210470
 20
48.693990
 30
0.0
  0
SPLINE
  5
1a7
100
AcDbEntity
  8
Image
 62
7
100
AcDbSpline
 70
8
 71
3
 72
8
 73
4
 74
0
 40
0
 40
0
 40
0
 40
0
 40
1
 40
1
 40
1
 40
1
 10
159.210470
 20
48.693990
 30
0.0
 10
162.207810
 20
46.973754
 30
0.0
 10
162.353250
 20
46.983230
 30
0.0
 10
164.544180
 20
49.041504
 30
0.0
  0
SPLINE
  5
1a8
100
AcDbEntity
  8
Image
 62
7
100
AcDbSpline
 70
8
 71
3
 72
8
 73
4
 74
0
 40
0
 40
0
 40
0
 40
0
 40
1
 40
1
 40
1
 40
1
 10
164.544180
 20
49.041504
 30
0.0
 10
165.898470
 20
50.313791
 30
0.0
 10
167.064450
 20
52.944112
 30
0.0
 10
167.468480
 20
55.638384
 30
0.0
  0
SPLINE
  5
1a9
100
AcDbEntity
  8
Image
 62
7
100
AcDbSpline
 70
8
 71
3
 72
8
 73
4
 74
0
 40
0
 40
0
 40
0
 40
0
 40
1
 40
1
 40
1
 40
1
 10
167.468480
 20
55.638384
 30
0.0
 10
168.088540
 20
59.773262
 30
0.0
 10
168.347380
 20
60.095381
 30
0.0
 10
170.820220
 20
59.809647
 30
0.0
  0
SPLINE
  5
1aa
100
AcDbEntity
  8
Image
 62
7
100
AcDbSpline
 70
8
 71
3
 72
8
 73
4
 74
0
 40
0
 40
0
 40
0
 40
0
 40
1
 40
1
 40
1
 40
1
 10
170.820220
 20
59.809647
 30
0.0
 10
172.718670
 20
59.590282
 30
0.0
 10
173.593170
 20
58.843983
 30
0.0
 10
173.819550
 20
57.250000
 30
0.0
  0
SPLINE
  5
1ab
100
AcDbEntity
  8
Image
 62
7
100
AcDbSpline
 70
8
 71
3
 72
8
 73
4
 74
0
 40
0
 40
0
 40
0
 40
0
 40
1
 40
1
 40
1
 40
1
 10
173.819550
 20
57.250000
 30
0.0
 10
174.190990
 20
54.634635
 30
0.0
 10
175.245510
 20
54.385964
 30
0.0
 10
177.000000
 20
56.500000
 30
0.0
  0
SPLINE
  5
1ac
100
AcDbEntity
  8
Image
 62
7
100
AcDbSpline
 70
8
 71
3
 72
8
 73
4
 74
0
 40
0
 40
0
 40
0
 40
0
 40
1
 40
1
 40
1
 40
1
 10
177.000000
 20
56.500000
 30
0.0
 10
178.652920
 20
58.491643
 30
0.0
 10
182.412570
 20
58.517532
 30
0.0
 10
181.650660
 20
56.532025
 30
0.0
  0
SPLINE
  5
1ad
100
AcDbEntity
  8
Image
 62
7
100
AcDbSpline
 70
8
 71
3
 72
8
 73
4
 74
0
 40
0
 40
0
 40
0
 40
0
 40
1
 40
1
 40
1
 40
1
 10
181.650660
 20
56.532025
 30
0.0
 10
181.340840
 20
55.724639
 30
0.0
 10
181.517690
 20
54.798081
 30
0.0
 10
182.043670
 20
54.473008
 30
0.0
  0
SPLINE
  5
1ae
100
AcDbEntity
  8
Image
 62
7
100
AcDbSpline
 70
8
 71
3
 72
8
 73
4
 74
0
 40
0
 40
0
 40
0
 40
0
 40
1
 40
1
 40
1
 40
1
 10
182.043670
 20
54.473008
 30
0.0
 10
183.630760
 20
53.492133
 30
0.0
 10
183.117750
 20
51.000000
 30
0.0
 10
181.328740
 20
51.000000
 30
0.0
  0
SPLINE
  5
1af
100
AcDbEntity
  8
Image
 62
7
100
AcDbSpline
 70
8
 71
3
 72
8
 73
4
 74
0
 40
0
 40
0
 40
0
 40
0
 40
1
 40
1
 40
1
 40
1
 10
181.328740
 20
51.000000
 30
0.0
 10
180.409550
 20
51.000000
 30
0.0
 10
178.870680
 20
51.712042
 30
0.0
 10
177.909040
 20
52.582316
 30
0.0
  0
SPLINE
  5
1b0
100
AcDbEntity
  8
Image
 62
7
100
AcDbSpline
 70
8
 71
3
 72
8
 73
4
 74
0
 40
0
 40
0
 40
0
 40
0
 40
1
 40
1
 40
1
 40
1
 10
177.909040
 20
52.582316
 30
0.0
 10
176.310100
 20
54.029336
 30
0.0
 10
175.790340
 20
53.998198
 30
0.0
 10
171.830300
 20
52.218151
 30
0.0
  0
SPLINE
  5
1b1
100
AcDbEntity
  8
Image
 62
7
100
AcDbSpline
 70
8
 71
3
 72
8
 73
4
 74
0
 40
0
 40
0
 40
0
 40
0
 40
1
 40
1
 40
1
 40
1
 10
171.830300
 20
52.218151
 30
0.0
 10
165.979760
 20
49.588318
 30
0.0
 10
162.760060
 20
45.948301
 30
0.0
 10
163.173530
 20
42.431267
 30
0.0
  0
SPLINE
  5
1b2
100
AcDbEntity
  8
Image
 62
7
100
AcDbSpline
 70
8
 71
3
 72
8
 73
4
 74
0
 40
0
 40
0
 40
0
 40
0
 40
1
 40
1
 40
1
 40
1
 10
163.173530
 20
42.431267
 30
0.0
 10
163.742180
 20
37.594186
 30
0.0
 10
165.747060
 20
38.525461
 30
0.0
 10
166.496540
 20
43.974822
 30
0.0
  0
SPLINE
  5
1b3
100
AcDbEntity
  8
Image
 62
7
100
AcDbSpline
 70
8
 71
3
 72
8
 73
4
 74
0
 40
0
 40
0
 40
0
 40
0
 40
1
 40
1
 40
1
 40
1
 10
166.496540
 20
43.974822
 30
0.0
 10
167.087120
 20
48.268869
 30
0.0
 10
167.655110
 20
49.287411
 30
0.0
 10
170.190150
 20
50.598331
 30
0.0
  0
SPLINE
  5
1b4
100
AcDbEntity
  8
Image
 62
7
100
AcDbSpline
 70
8
 71
3
 72
8
 73
4
 74
0
 40
0
 40
0
 40
0
 40
0
 40
1
 40
1
 40
1
 40
1
 10
170.190150
 20
50.598331
 30
0.0
 10
171.837790
 20
51.450359
 30
0.0
 10
173.444040
 20
51.889291
 30
0.0
 10
173.759600
 20
51.573736
 30
0.0
  0
SPLINE
  5
1b5
100
AcDbEntity
  8
Image
 62
7
100
AcDbSpline
 70
8
 71
3
 72
8
 73
4
 74
0
 40
0
 40
0
 40
0
 40
0
 40
1
 40
1
 40
1
 40
1
 10
173.759600
 20
51.573736
 30
0.0
 10
174.075150
 20
51.258181
 30
0.0
 10
173.920830
 20
50.963785
 30
0.0
 10
173.416670
 20
50.919523
 30
0.0
  0
SPLINE
  5
1b6
100
AcDbEntity
  8
Image
 62
7
100
AcDbSpline
 70
8
 71
3
 72
8
 73
4
 74
0
 40
0
 40
0
 40
0
 40
0
 40
1
 40
1
 40
1
 40
1
 10
173.416670
 20
50.919523
 30
0.0
 10
172.912500
 20
50.875263
 30
0.0
 10
174.510890
 20
50.312761
 30
0.0
 10
176.968640
 20
49.669523
 30
0.0
  0
SPLINE
  5
1b7
100
AcDbEntity
  8
Image
 62
7
100
AcDbSpline
 70
8
 71
3
 72
8
 73
4
 74
0
 40
0
 40
0
 40
0
 40
0
 40
1
 40
1
 40
1
 40
1
 10
176.968640
 20
49.669523
 30
0.0
 10
184.917650
 20
47.589123
 30
0.0
 10
187.889030
 20
39.501270
 30
0.0
 10
186.472380
 20
23.801032
 30
0.0
  0
SPLINE
  5
1b8
100
AcDbEntity
  8
Image
 62
7
100
AcDbSpline
 70
8
 71
3
 72
8
 73
4
 74
0
 40
0
 40
0
 40
0
 40
0
 40
1
 40
1
 40
1
 40
1
 10
186.472380
 20
23.801032
 30
0.0
 10
185.174070
 20
9.412206
 30
0.0
 10
183.144520
 20
6.000000
 30
0.0
 10
175.884480
 20
6.000000
 30
0.0
  0
SPLINE
  5
1b9
100
AcDbEntity
  8
Image
 62
7
100
AcDbSpline
 70
8
 71
3
 72
8
 73
4
 74
0
 40
0
 40
0
 40
0
 40
0
 40
1
 40
1
 40
1
 40
1
 10
175.884480
 20
6.000000
 30
0.0
 10
173.544300
 20
6.000000
 30
0.0
 10
172.005360
 20
5.456345
 30
0.0
 10
171.638370
 20
4.500000
 30
0.0
  0
SPLINE
  5
1ba
100
AcDbEntity
  8
Image
 62
7
100
AcDbSpline
 70
8
 71
3
 72
8
 73
4
 74
0
 40
0
 40
0
 40
0
 40
0
 40
1
 40
1
 40
1
 40
1
 10
171.638370
 20
4.500000
 30
0.0
 10
171.054480
 20
2.978398
 30
0.0
 10
167.886020
 20
2.447316
 30
0.0
 10
166.666670
 20
3.666667
 30
0.0
  0
LWPOLYLINE
  5
1bb
100
AcDbEntity
  8
Image
 62
7
100
AcDbPolyline
 90
3
 70
0
 10
172.226330
 20
28.255712
 30
0.0
 10
172.574060
 20
24.500000
 30
0.0
 10
173.434290
 20
27.404777
 30
0.0
  0
SPLINE
  5
1bc
100
AcDbEntity
  8
Image
 62
7
100
AcDbSpline
 70
8
 71
3
 72
8
 73
4
 74
0
 40
0
 40
0
 40
0
 40
0
 40
1
 40
1
 40
1
 40
1
 10
165.232490
 20
14.869296
 30
0.0
 10
164.866780
 20
17.361020
 30
0.0
 10
165.238490
 20
17.887382
 30
0.0
 10
168.054910
 20
18.869296
 30
0.0
  0
SPLINE
  5
1bd
100
AcDbEntity
  8
Image
 62
7
100
AcDbSpline
 70
8
 71
3
 72
8
 73
4
 74
0
 40
0
 40
0
 40
0
 40
0
 40
1
 40
1
 40
1
 40
1
 10
168.054910
 20
18.869296
 30
0.0
 10
169.838850
 20
19.491183
 30
0.0
 10
171.420540
 20
20.000000
 30
0.0
 10
171.569770
 20
20.000000
 30
0.0
  0
SPLINE
  5
1be
100
AcDbEntity
  8
Image
 62
7
100
AcDbSpline
 70
8
 71
3
 72
8
 73
4
 74
0
 40
0
 40
0
 40
0
 40
0
 40
1
 40
1
 40
1
 40
1
 10
171.569770
 20
20.000000
 30
0.0
 10
171.718990
 20
20.000000
 30
0.0
 10
172.138420
 20
18.646257
 30
0.0
 10
172.501830
 20
16.991683
 30
0.0
  0
SPLINE
  5
1bf
100
AcDbEntity
  8
Image
 62
7
100
AcDbSpline
 70
8
 71
3
 72
8
 73
4
 74
0
 40
0
 40
0
 40
0
 40
0
 40
1
 40
1
 40
1
 40
1
 10
172.501830
 20
16.991683
 30
0.0
 10
173.351980
 20
13.120975
 30
0.0
 10
176.263960
 20
11.408695
 30
0.0
 10
178.144990
 20
13.673433
 30
0.0
  0
SPLINE
  5
1c0
100
AcDbEntity
  8
Image
 62
7
100
AcDbSpline
 70
8
 71
3
 72
8
 73
4
 74
0
 40
0
 40
0
 40
0
 40
0
 40
1
 40
1
 40
1
 40
1
 10
178.144990
 20
13.673433
 30
0.0
 10
179.130990
 20
14.860550
 30
0.0
 10
179.500000
 20
18.825252
 30
0.0
 10
179.500000
 20
28.231627
 30
0.0
  0
SPLINE
  5
1c1
100
AcDbEntity
  8
Image
 62
7
100
AcDbSpline
 70
8
 71
3
 72
8
 73
4
 74
0
 40
0
 40
0
 40
0
 40
0
 40
1
 40
1
 40
1
 40
1
 10
179.500000
 20
28.231627
 30
0.0
 10
179.500000
 20
39.647328
 30
0.0
 10
179.284070
 20
41.316471
 30
0.0
 10
177.652800
 20
42.510524
 30
0.0
  0
SPLINE
  5
1c2
100
AcDbEntity
  8
Image
 62
7
100
AcDbSpline
 70
8
 71
3
 72
8
 73
4
 74
0
 40
0
 40
0
 40
0
 40
0
 40
1
 40
1
 40
1
 40
1
 10
177.652800
 20
42.510524
 30
0.0
 10
175.056750
 20
44.410777
 30
0.0
 10
173.285420
 20
43.398054
 30
0.0
 10
172.743180
 20
39.703538
 30
0.0
  0
SPLINE
  5
1c3
100
AcDbEntity
  8
Image
 62
7
100
AcDbSpline
 70
8
 71
3
 72
8
 73
4
 74
0
 40
0
 40
0
 40
0
 40
0
 40
1
 40
1
 40
1
 40
1
 10
172.743180
 20
39.703538
 30
0.0
 10
172.302680
 20
36.702212
 30
0.0
 10
173.894470
 20
33.364646
 30
0.0
 10
177.750000
 20
29.205559
 30
0.0
  0
SPLINE
  5
1c4
100
AcDbEntity
  8
Image
 62
7
100
AcDbSpline
 70
8
 71
3
 72
8
 73
4
 74
0
 40
0
 40
0
 40
0
 40
0
 40
1
 40
1
 40
1
 40
1
 10
177.750000
 20
29.205559
 30
0.0
 10
179.449990
 20
27.371725
 30
0.0
 10
179.321750
 20
26.000000
 30
0.0
 10
177.450310
 20
26.000000
 30
0.0
  0
SPLINE
  5
1c5
100
AcDbEntity
  8
Image
 62
7
100
AcDbSpline
 70
8
 71
3
 72
8
 73
4
 74
0
 40
0
 40
0
 40
0
 40
0
 40
1
 40
1
 40
1
 40
1
 10
177.450310
 20
26.000000
 30
0.0
 10
176.276840
 20
26.000000
 30
0.0
 10
176.134870
 20
25.581422
 30
0.0
 10
176.865520
 20
24.275823
 30
0.0
  0
SPLINE
  5
1c6
100
AcDbEntity
  8
Image
 62
7
100
AcDbSpline
 70
8
 71
3
 72
8
 73
4
 74
0
 40
0
 40
0
 40
0
 40
0
 40
1
 40
1
 40
1
 40
1
 10
176.865520
 20
24.275823
 30
0.0
 10
177.485450
 20
23.168059
 30
0.0
 10
177.485280
 20
21.906755
 30
0.0
 10
176.865030
 20
20.747815
 30
0.0
  0
SPLINE
  5
1c7
100
AcDbEntity
  8
Image
 62
7
100
AcDbSpline
 70
8
 71
3
 72
8
 73
4
 74
0
 40
0
 40
0
 40
0
 40
0
 40
1
 40
1
 40
1
 40
1
 10
176.865030
 20
20.747815
 30
0.0
 10
175.707040
 20
18.584078
 30
0.0
 10
174.000000
 20
19.355676
 30
0.0
 10
174.000000
 20
22.042838
 30
0.0
  0
SPLINE
  5
1c8
100
AcDbEntity
  8
Image
 62
7
100
AcDbSpline
 70
8
 71
3
 72
8
 73
4
 74
0
 40
0
 40
0
 40
0
 40
0
 40
1
 40
1
 40
1
 40
1
 10
174.000000
 20
22.042838
 30
0.0
 10
174.000000
 20
23.901600
 30
0.0
 10
173.871330
 20
23.909509
 30
0.0
 10
170.250000
 20
22.273337
 30
0.0
  0
SPLINE
  5
1c9
100
AcDbEntity
  8
Image
 62
7
100
AcDbSpline
 70
8
 71
3
 72
8
 73
4
 74
0
 40
0
 40
0
 40
0
 40
0
 40
1
 40
1
 40
1
 40
1
 10
170.250000
 20
22.273337
 30
0.0
 10
168.187500
 20
21.341469
 30
0.0
 10
165.712500
 20
19.929005
 30
0.0
 10
164.750000
 20
19.134528
 30
0.0
  0
SPLINE
  5
1ca
100
AcDbEntity
  8
Image
 62
7
100
AcDbSpline
 70
8
 71
3
 72
8
 73
4
 74
0
 40
0
 40
0
 40
0
 40
0
 40
1
 40
1
 40
1
 40
1
 10
164.750000
 20
19.134528
 30
0.0
 10
162.312310
 20
17.122383
 30
0.0
 10
162.487110
 20
12.000000
 30
0.0
 10
164.993470
 20
12.000000
 30
0.0
  0
SPLINE
  5
1cb
100
AcDbEntity
  8
Image
 62
7
100
AcDbSpline
 70
8
 71
3
 72
8
 73
4
 74
0
 40
0
 40
0
 40
0
 40
0
 40
1
 40
1
 40
1
 40
1
 10
164.993470
 20
12.000000
 30
0.0
 10
165.356550
 20
12.000000
 30
0.0
 10
165.464110
 20
13.291183
 30
0.0
 10
165.232490
 20
14.869296
 30
0.0
  0
LWPOLYLINE
  5
1cc
100
AcDbEntity
  8
Image
 62
7
100
AcDbPolyline
 90
1
 70
1
 10
166.666670
 20
3.666667
 30
0.0
  0
SPLINE
  5
1cd
100
AcDbEntity
  8
Image
 62
7
100
AcDbSpline
 70
8
 71
3
 72
8
 73
4
 74
0
 40
0
 40
0
 40
0
 40
0
 40
1
 40
1
 40
1
 40
1
 10
206.710120
 20
6.729199
 30
0.0
 10
203.723820
 20
7.719013
 30
0.0
 10
200.899790
 20
9.572065
 30
0.0
 10
199.210120
 20
11.650489
 30
0.0
  0
SPLINE
  5
1ce
100
AcDbEntity
  8
Image
 62
7
100
AcDbSpline
 70
8
 71
3
 72
8
 73
4
 74
0
 40
0
 40
0
 40
0
 40
0
 40
1
 40
1
 40
1
 40
1
 10
199.210120
 20
11.650489
 30
0.0
 10
197.719560
 20
13.484014
 30
0.0
 10
195.262500
 20
16.438020
 30
0.0
 10
193.750000
 20
18.214947
 30
0.0
  0
SPLINE
  5
1cf
100
AcDbEntity
  8
Image
 62
7
100
AcDbSpline
 70
8
 71
3
 72
8
 73
4
 74
0
 40
0
 40
0
 40
0
 40
0
 40
1
 40
1
 40
1
 40
1
 10
193.750000
 20
18.214947
 30
0.0
 10
192.237500
 20
19.991873
 30
0.0
 10
191.000000
 20
22.470435
 30
0.0
 10
191.000000
 20
23.722861
 30
0.0
  0
SPLINE
  5
1d0
100
AcDbEntity
  8
Image
 62
7
100
AcDbSpline
 70
8
 71
3
 72
8
 73
4
 74
0
 40
0
 40
0
 40
0
 40
0
 40
1
 40
1
 40
1
 40
1
 10
191.000000
 20
23.722861
 30
0.0
 10
191.000000
 20
26.430356
 30
0.0
 10
191.712520
 20
26.570141
 30
0.0
 10
194.171260
 20
24.345012
 30
0.0
  0
SPLINE
  5
1d1
100
AcDbEntity
  8
Image
 62
7
100
AcDbSpline
 70
8
 71
3
 72
8
 73
4
 74
0
 40
0
 40
0
 40
0
 40
0
 40
1
 40
1
 40
1
 40
1
 10
194.171260
 20
24.345012
 30
0.0
 10
195.875920
 20
22.802317
 30
0.0
 10
196.135700
 20
22.812833
 30
0.0
 10
198.000000
 20
24.500000
 30
0.0
  0
SPLINE
  5
1d2
100
AcDbEntity
  8
Image
 62
7
100
AcDbSpline
 70
8
 71
3
 72
8
 73
4
 74
0
 40
0
 40
0
 40
0
 40
0
 40
1
 40
1
 40
1
 40
1
 10
198.000000
 20
24.500000
 30
0.0
 10
199.599690
 20
25.947698
 30
0.0
 10
200.000000
 20
27.579967
 30
0.0
 10
200.000000
 20
32.654988
 30
0.0
  0
SPLINE
  5
1d3
100
AcDbEntity
  8
Image
 62
7
100
AcDbSpline
 70
8
 71
3
 72
8
 73
4
 74
0
 40
0
 40
0
 40
0
 40
0
 40
1
 40
1
 40
1
 40
1
 10
200.000000
 20
32.654988
 30
0.0
 10
200.000000
 20
36.144744
 30
0.0
 10
200.247350
 20
39.000000
 30
0.0
 10
200.549660
 20
39.000000
 30
0.0
  0
SPLINE
  5
1d4
100
AcDbEntity
  8
Image
 62
7
100
AcDbSpline
 70
8
 71
3
 72
8
 73
4
 74
0
 40
0
 40
0
 40
0
 40
0
 40
1
 40
1
 40
1
 40
1
 10
200.549660
 20
39.000000
 30
0.0
 10
200.851970
 20
39.000000
 30
0.0
 10
202.426970
 20
38.313444
 30
0.0
 10
204.049660
 20
37.474320
 30
0.0
  0
SPLINE
  5
1d5
100
AcDbEntity
  8
Image
 62
7
100
AcDbSpline
 70
8
 71
3
 72
8
 73
4
 74
0
 40
0
 40
0
 40
0
 40
0
 40
1
 40
1
 40
1
 40
1
 10
204.049660
 20
37.474320
 30
0.0
 10
206.377190
 20
36.270708
 30
0.0
 10
207.006420
 20
35.267991
 30
0.0
 10
207.030410
 20
32.724320
 30
0.0
  0
SPLINE
  5
1d6
100
AcDbEntity
  8
Image
 62
7
100
AcDbSpline
 70
8
 71
3
 72
8
 73
4
 74
0
 40
0
 40
0
 40
0
 40
0
 40
1
 40
1
 40
1
 40
1
 10
207.030410
 20
32.724320
 30
0.0
 10
207.056810
 20
29.928661
 30
0.0
 10
207.204450
 20
29.747168
 30
0.0
 10
208.141190
 20
31.359159
 30
0.0
  0
SPLINE
  5
1d7
100
AcDbEntity
  8
Image
 62
7
100
AcDbSpline
 70
8
 71
3
 72
8
 73
4
 74
0
 40
0
 40
0
 40
0
 40
0
 40
1
 40
1
 40
1
 40
1
 10
208.141190
 20
31.359159
 30
0.0
 10
210.614580
 20
35.615511
 30
0.0
 10
203.750700
 20
41.439647
 30
0.0
 10
197.638170
 20
40.271164
 30
0.0
  0
SPLINE
  5
1d8
100
AcDbEntity
  8
Image
 62
7
100
AcDbSpline
 70
8
 71
3
 72
8
 73
4
 74
0
 40
0
 40
0
 40
0
 40
0
 40
1
 40
1
 40
1
 40
1
 10
197.638170
 20
40.271164
 30
0.0
 10
195.070750
 20
39.780371
 30
0.0
 10
192.000000
 20
41.333280
 30
0.0
 10
192.000000
 20
43.122445
 30
0.0
  0
SPLINE
  5
1d9
100
AcDbEntity
  8
Image
 62
7
100
AcDbSpline
 70
8
 71
3
 72
8
 73
4
 74
0
 40
0
 40
0
 40
0
 40
0
 40
1
 40
1
 40
1
 40
1
 10
192.000000
 20
43.122445
 30
0.0
 10
192.000000
 20
43.605100
 30
0.0
 10
192.900000
 20
44.000000
 30
0.0
 10
194.000000
 20
44.000000
 30
0.0
  0
SPLINE
  5
1da
100
AcDbEntity
  8
Image
 62
7
100
AcDbSpline
 70
8
 71
3
 72
8
 73
4
 74
0
 40
0
 40
0
 40
0
 40
0
 40
1
 40
1
 40
1
 40
1
 10
194.000000
 20
44.000000
 30
0.0
 10
196.278810
 20
44.000000
 30
0.0
 10
196.463210
 20
44.889262
 30
0.0
 10
194.897120
 20
48.326454
 30
0.0
  0
SPLINE
  5
1db
100
AcDbEntity
  8
Image
 62
7
100
AcDbSpline
 70
8
 71
3
 72
8
 73
4
 74
0
 40
0
 40
0
 40
0
 40
0
 40
1
 40
1
 40
1
 40
1
 10
194.897120
 20
48.326454
 30
0.0
 10
194.072380
 20
50.136568
 30
0.0
 10
194.105570
 20
51.328748
 30
0.0
 10
195.028750
 20
53.053728
 30
0.0
  0
SPLINE
  5
1dc
100
AcDbEntity
  8
Image
 62
7
100
AcDbSpline
 70
8
 71
3
 72
8
 73
4
 74
0
 40
0
 40
0
 40
0
 40
0
 40
1
 40
1
 40
1
 40
1
 10
195.028750
 20
53.053728
 30
0.0
 10
196.234540
 20
55.306759
 30
0.0
 10
196.296740
 20
55.315521
 30
0.0
 10
197.701530
 20
53.430221
 30
0.0
  0
SPLINE
  5
1dd
100
AcDbEntity
  8
Image
 62
7
100
AcDbSpline
 70
8
 71
3
 72
8
 73
4
 74
0
 40
0
 40
0
 40
0
 40
0
 40
1
 40
1
 40
1
 40
1
 10
197.701530
 20
53.430221
 30
0.0
 10
198.649120
 20
52.158503
 30
0.0
 10
198.944620
 20
50.241262
 30
0.0
 10
198.567730
 20
47.810356
 30
0.0
  0
SPLINE
  5
1de
100
AcDbEntity
  8
Image
 62
7
100
AcDbSpline
 70
8
 71
3
 72
8
 73
4
 74
0
 40
0
 40
0
 40
0
 40
0
 40
1
 40
1
 40
1
 40
1
 10
198.567730
 20
47.810356
 30
0.0
 10
198.253090
 20
45.781052
 30
0.0
 10
198.399490
 20
43.871136
 30
0.0
 10
198.893050
 20
43.566099
 30
0.0
  0
SPLINE
  5
1df
100
AcDbEntity
  8
Image
 62
7
100
AcDbSpline
 70
8
 71
3
 72
8
 73
4
 74
0
 40
0
 40
0
 40
0
 40
0
 40
1
 40
1
 40
1
 40
1
 10
198.893050
 20
43.566099
 30
0.0
 10
199.925570
 20
42.927966
 30
0.0
 10
201.000000
 20
45.256043
 30
0.0
 10
201.000000
 20
48.131447
 30
0.0
  0
SPLINE
  5
1e0
100
AcDbEntity
  8
Image
 62
7
100
AcDbSpline
 70
8
 71
3
 72
8
 73
4
 74
0
 40
0
 40
0
 40
0
 40
0
 40
1
 40
1
 40
1
 40
1
 10
201.000000
 20
48.131447
 30
0.0
 10
201.000000
 20
58.319953
 30
0.0
 10
215.954720
 20
61.667718
 30
0.0
 10
220.761750
 20
52.555315
 30
0.0
  0
SPLINE
  5
1e1
100
AcDbEntity
  8
Image
 62
7
100
AcDbSpline
 70
8
 71
3
 72
8
 73
4
 74
0
 40
0
 40
0
 40
0
 40
0
 40
1
 40
1
 40
1
 40
1
 10
220.761750
 20
52.555315
 30
0.0
 10
222.953480
 20
48.400571
 30
0.0
 10
223.684850
 20
21.694150
 30
0.0
 10
221.801250
 20
14.597244
 30
0.0
  0
SPLINE
  5
1e2
100
AcDbEntity
  8
Image
 62
7
100
AcDbSpline
 70
8
 71
3
 72
8
 73
4
 74
0
 40
0
 40
0
 40
0
 40
0
 40
1
 40
1
 40
1
 40
1
 10
221.801250
 20
14.597244
 30
0.0
 10
219.725530
 20
6.776484
 30
0.0
 10
214.611610
 20
4.110245
 30
0.0
 10
206.710120
 20
6.729199
 30
0.0
  0
LWPOLYLINE
  5
1e3
100
AcDbEntity
  8
Image
 62
7
100
AcDbPolyline
 90
1
 70
1
 10
165.232490
 20
14.869296
 30
0.0
  0
SPLINE
  5
1e4
100
AcDbEntity
  8
Image
 62
7
100
AcDbSpline
 70
8
 71
3
 72
8
 73
4
 74
0
 40
0
 40
0
 40
0
 40
0
 40
1
 40
1
 40
1
 40
1
 10
201.469780
 20
13.750000
 30
0.0
 10
200.001070
 20
21.243719
 30
0.0
 10
200.058320
 20
21.705540
 30
0.0
 10
202.599390
 20
22.863330
 30
0.0
  0
SPLINE
  5
1e5
100
AcDbEntity
  8
Image
 62
7
100
AcDbSpline
 70
8
 71
3
 72
8
 73
4
 74
0
 40
0
 40
0
 40
0
 40
0
 40
1
 40
1
 40
1
 40
1
 10
202.599390
 20
22.863330
 30
0.0
 10
206.405770
 20
24.597632
 30
0.0
 10
207.000000
 20
24.287292
 30
0.0
 10
207.000000
 20
20.565100
 30
0.0
  0
SPLINE
  5
1e6
100
AcDbEntity
  8
Image
 62
7
100
AcDbSpline
 70
8
 71
3
 72
8
 73
4
 74
0
 40
0
 40
0
 40
0
 40
0
 40
1
 40
1
 40
1
 40
1
 10
207.000000
 20
20.565100
 30
0.0
 10
207.000000
 20
15.054382
 30
0.0
 10
208.583360
 20
12.000000
 30
0.0
 10
211.440070
 20
12.000000
 30
0.0
  0
SPLINE
  5
1e7
100
AcDbEntity
  8
Image
 62
7
100
AcDbSpline
 70
8
 71
3
 72
8
 73
4
 74
0
 40
0
 40
0
 40
0
 40
0
 40
1
 40
1
 40
1
 40
1
 10
211.440070
 20
12.000000
 30
0.0
 10
214.933080
 20
12.000000
 30
0.0
 10
215.712190
 20
14.095450
 30
0.0
 10
216.460060
 20
25.501602
 30
0.0
  0
SPLINE
  5
1e8
100
AcDbEntity
  8
Image
 62
7
100
AcDbSpline
 70
8
 71
3
 72
8
 73
4
 74
0
 40
0
 40
0
 40
0
 40
0
 40
1
 40
1
 40
1
 40
1
 10
216.460060
 20
25.501602
 30
0.0
 10
217.194060
 20
36.696048
 30
0.0
 10
215.841730
 20
49.850721
 30
0.0
 10
213.825510
 20
51.129004
 30
0.0
  0
SPLINE
  5
1e9
100
AcDbEntity
  8
Image
 62
7
100
AcDbSpline
 70
8
 71
3
 72
8
 73
4
 74
0
 40
0
 40
0
 40
0
 40
0
 40
1
 40
1
 40
1
 40
1
 10
213.825510
 20
51.129004
 30
0.0
 10
210.146800
 20
53.461300
 30
0.0
 10
207.761770
 20
51.172404
 30
0.0
 10
207.233550
 20
44.802752
 30
0.0
  0
SPLINE
  5
1ea
100
AcDbEntity
  8
Image
 62
7
100
AcDbSpline
 70
8
 71
3
 72
8
 73
4
 74
0
 40
0
 40
0
 40
0
 40
0
 40
1
 40
1
 40
1
 40
1
 10
207.233550
 20
44.802752
 30
0.0
 10
206.892100
 20
40.685301
 30
0.0
 10
207.164550
 20
39.108315
 30
0.0
 10
208.393640
 20
38.088268
 30
0.0
  0
SPLINE
  5
1eb
100
AcDbEntity
  8
Image
 62
7
100
AcDbSpline
 70
8
 71
3
 72
8
 73
4
 74
0
 40
0
 40
0
 40
0
 40
0
 40
1
 40
1
 40
1
 40
1
 10
208.393640
 20
38.088268
 30
0.0
 10
209.277140
 20
37.355031
 30
0.0
 10
210.030460
 20
35.797711
 30
0.0
 10
210.067680
 20
34.627555
 30
0.0
  0
SPLINE
  5
1ec
100
AcDbEntity
  8
Image
 62
7
100
AcDbSpline
 70
8
 71
3
 72
8
 73
4
 74
0
 40
0
 40
0
 40
0
 40
0
 40
1
 40
1
 40
1
 40
1
 10
210.067680
 20
34.627555
 30
0.0
 10
210.134580
 20
32.525807
 30
0.0
 10
210.148480
 20
32.527293
 30
0.0
 10
211.220490
 20
34.750000
 30
0.0
  0
SPLINE
  5
1ed
100
AcDbEntity
  8
Image
 62
7
100
AcDbSpline
 70
8
 71
3
 72
8
 73
4
 74
0
 40
0
 40
0
 40
0
 40
0
 40
1
 40
1
 40
1
 40
1
 10
211.220490
 20
34.750000
 30
0.0
 10
212.345200
 20
37.082051
 30
0.0
 10
215.000000
 20
37.861907
 30
0.0
 10
215.000000
 20
35.860243
 30
0.0
  0
SPLINE
  5
1ee
100
AcDbEntity
  8
Image
 62
7
100
AcDbSpline
 70
8
 71
3
 72
8
 73
4
 74
0
 40
0
 40
0
 40
0
 40
0
 40
1
 40
1
 40
1
 40
1
 10
215.000000
 20
35.860243
 30
0.0
 10
215.000000
 20
35.233376
 30
0.0
 10
214.212500
 20
34.116927
 30
0.0
 10
213.250000
 20
33.379246
 30
0.0
  0
SPLINE
  5
1ef
100
AcDbEntity
  8
Image
 62
7
100
AcDbSpline
 70
8
 71
3
 72
8
 73
4
 74
0
 40
0
 40
0
 40
0
 40
0
 40
1
 40
1
 40
1
 40
1
 10
213.250000
 20
33.379246
 30
0.0
 10
211.801120
 20
32.268791
 30
0.0
 10
211.738330
 20
31.881163
 30
0.0
 10
212.885100
 20
31.126490
 30
0.0
  0
SPLINE
  5
1f0
100
AcDbEntity
  8
Image
 62
7
100
AcDbSpline
 70
8
 71
3
 72
8
 73
4
 74
0
 40
0
 40
0
 40
0
 40
0
 40
1
 40
1
 40
1
 40
1
 10
212.885100
 20
31.126490
 30
0.0
 10
213.985140
 20
30.402566
 30
0.0
 10
213.779340
 20
29.952274
 30
0.0
 10
211.885100
 20
28.938507
 30
0.0
  0
SPLINE
  5
1f1
100
AcDbEntity
  8
Image
 62
7
100
AcDbSpline
 70
8
 71
3
 72
8
 73
4
 74
0
 40
0
 40
0
 40
0
 40
0
 40
1
 40
1
 40
1
 40
1
 10
211.885100
 20
28.938507
 30
0.0
 10
210.573290
 20
28.236451
 30
0.0
 10
209.275000
 20
27.677154
 30
0.0
 10
209.000000
 20
27.695625
 30
0.0
  0
SPLINE
  5
1f2
100
AcDbEntity
  8
Image
 62
7
100
AcDbSpline
 70
8
 71
3
 72
8
 73
4
 74
0
 40
0
 40
0
 40
0
 40
0
 40
1
 40
1
 40
1
 40
1
 10
209.000000
 20
27.695625
 30
0.0
 10
207.992070
 20
27.763325
 30
0.0
 10
201.449180
 20
24.537084
 30
0.0
 10
199.750000
 20
23.134528
 30
0.0
  0
SPLINE
  5
1f3
100
AcDbEntity
  8
Image
 62
7
100
AcDbSpline
 70
8
 71
3
 72
8
 73
4
 74
0
 40
0
 40
0
 40
0
 40
0
 40
1
 40
1
 40
1
 40
1
 10
199.750000
 20
23.134528
 30
0.0
 10
197.581690
 20
21.344738
 30
0.0
 10
197.491170
 20
17.171464
 30
0.0
 10
199.556700
 20
14.222506
 30
0.0
  0
SPLINE
  5
1f4
100
AcDbEntity
  8
Image
 62
7
100
AcDbSpline
 70
8
 71
3
 72
8
 73
4
 74
0
 40
0
 40
0
 40
0
 40
0
 40
1
 40
1
 40
1
 40
1
 10
199.556700
 20
14.222506
 30
0.0
 10
201.432850
 20
11.543926
 30
0.0
 10
201.926020
 20
11.422120
 30
0.0
 10
201.469780
 20
13.750000
 30
0.0
  0
LWPOLYLINE
  5
1f5
100
AcDbEntity
  8
Image
 62
7
100
AcDbPolyline
 90
1
 70
1
 10
206.710120
 20
6.729199
 30
0.0
  0
SPLINE
  5
1f6
100
AcDbEntity
  8
Image
 62
7
100
AcDbSpline
 70
8
 71
3
 72
8
 73
4
 74
0
 40
0
 40
0
 40
0
 40
0
 40
1
 40
1
 40
1
 40
1
 10
210.200000
 20
39.200000
 30
0.0
 10
208.653290
 20
40.746712
 30
0.0
 10
208.636690
 20
44.287771
 30
0.0
 10
210.178600
 20
43.773814
 30
0.0
  0
SPLINE
  5
1f7
100
AcDbEntity
  8
Image
 62
7
100
AcDbSpline
 70
8
 71
3
 72
8
 73
4
 74
0
 40
0
 40
0
 40
0
 40
0
 40
1
 40
1
 40
1
 40
1
 10
210.178600
 20
43.773814
 30
0.0
 10
210.826800
 20
43.557745
 30
0.0
 10
211.829190
 20
42.632631
 30
0.0
 10
212.406120
 20
41.718005
 30
0.0
  0
SPLINE
  5
1f8
100
AcDbEntity
  8
Image
 62
7
100
AcDbSpline
 70
8
 71
3
 72
8
 73
4
 74
0
 40
0
 40
0
 40
0
 40
0
 40
1
 40
1
 40
1
 40
1
 10
212.406120
 20
41.718005
 30
0.0
 10
213.790640
 20
39.523029
 30
0.0
 10
211.963010
 20
37.436990
 30
0.0
 10
210.200000
 20
39.200000
 30
0.0
  0
LWPOLYLINE
  5
1f9
100
AcDbEntity
  8
Image
 62
7
100
AcDbPolyline
 90
1
 70
1
 10
201.469780
 20
13.750000
 30
0.0
  0
SPLINE
  5
1fa
100
AcDbEntity
  8
Image
 62
7
100
AcDbSpline
 70
8
 71
3
 72
8
 73
4
 74
0
 40
0
 40
0
 40
0
 40
0
 40
1
 40
1
 40
1
 40
1
 10
243.988060
 20
6.062132
 30
0.0
 10
239.809170
 20
7.635622
 30
0.0
 10
238.634760
 20
10.708851
 30
0.0
 10
238.184160
 20
21.250000
 30
0.0
  0
SPLINE
  5
1fb
100
AcDbEntity
  8
Image
 62
7
100
AcDbSpline
 70
8
 71
3
 72
8
 73
4
 74
0
 40
0
 40
0
 40
0
 40
0
 40
1
 40
1
 40
1
 40
1
 10
238.184160
 20
21.250000
 30
0.0
 10
237.954940
 20
26.612500
 30
0.0
 10
238.023550
 20
31.000000
 30
0.0
 10
238.336640
 20
31.000000
 30
0.0
  0
SPLINE
  5
1fc
100
AcDbEntity
  8
Image
 62
7
100
AcDbSpline
 70
8
 71
3
 72
8
 73
4
 74
0
 40
0
 40
0
 40
0
 40
0
 40
1
 40
1
 40
1
 40
1
 10
238.336640
 20
31.000000
 30
0.0
 10
238.649730
 20
31.000000
 30
0.0
 10
240.052070
 20
30.477768
 30
0.0
 10
241.452950
 20
29.839485
 30
0.0
  0
SPLINE
  5
1fd
100
AcDbEntity
  8
Image
 62
7
100
AcDbSpline
 70
8
 71
3
 72
8
 73
4
 74
0
 40
0
 40
0
 40
0
 40
0
 40
1
 40
1
 40
1
 40
1
 10
241.452950
 20
29.839485
 30
0.0
 10
243.538590
 20
28.889203
 30
0.0
 10
244.000000
 20
27.983430
 30
0.0
 10
244.000000
 20
24.839485
 30
0.0
  0
SPLINE
  5
1fe
100
AcDbEntity
  8
Image
 62
7
100
AcDbSpline
 70
8
 71
3
 72
8
 73
4
 74
0
 40
0
 40
0
 40
0
 40
0
 40
1
 40
1
 40
1
 40
1
 10
244.000000
 20
24.839485
 30
0.0
 10
244.000000
 20
20.525269
 30
0.0
 10
245.630630
 20
19.680144
 30
0.0
 10
246.588790
 20
23.497764
 30
0.0
  0
SPLINE
  5
1ff
100
AcDbEntity
  8
Image
 62
7
100
AcDbSpline
 70
8
 71
3
 72
8
 73
4
 74
0
 40
0
 40
0
 40
0
 40
0
 40
1
 40
1
 40
1
 40
1
 10
246.588790
 20
23.497764
 30
0.0
 10
247.538590
 20
27.282033
 30
0.0
 10
246.562290
 20
28.681357
 30
0.0
 10
241.009130
 20
31.495373
 30
0.0
  0
SPLINE
  5
200
100
AcDbEntity
  8
Image
 62
7
100
AcDbSpline
 70
8
 71
3
 72
8
 73
4
 74
0
 40
0
 40
0
 40
0
 40
0
 40
1
 40
1
 40
1
 40
1
 10
241.009130
 20
31.495373
 30
0.0
 10
238.186320
 20
32.925800
 30
0.0
 10
235.424870
 20
35.168172
 30
0.0
 10
234.801630
 20
36.536028
 30
0.0
  0
SPLINE
  5
201
100
AcDbEntity
  8
Image
 62
7
100
AcDbSpline
 70
8
 71
3
 72
8
 73
4
 74
0
 40
0
 40
0
 40
0
 40
0
 40
1
 40
1
 40
1
 40
1
 10
234.801630
 20
36.536028
 30
0.0
 10
234.117720
 20
38.037057
 30
0.0
 10
232.842840
 20
39.000000
 30
0.0
 10
231.539480
 20
39.000000
 30
0.0
  0
SPLINE
  5
202
100
AcDbEntity
  8
Image
 62
7
100
AcDbSpline
 70
8
 71
3
 72
8
 73
4
 74
0
 40
0
 40
0
 40
0
 40
0
 40
1
 40
1
 40
1
 40
1
 10
231.539480
 20
39.000000
 30
0.0
 10
229.400230
 20
39.000000
 30
0.0
 10
227.000000
 20
40.691983
 30
0.0
 10
227.000000
 20
42.200000
 30
0.0
  0
SPLINE
  5
203
100
AcDbEntity
  8
Image
 62
7
100
AcDbSpline
 70
8
 71
3
 72
8
 73
4
 74
0
 40
0
 40
0
 40
0
 40
0
 40
1
 40
1
 40
1
 40
1
 10
227.000000
 20
42.200000
 30
0.0
 10
227.000000
 20
42.640000
 30
0.0
 10
227.900000
 20
43.000000
 30
0.0
 10
229.000000
 20
43.000000
 30
0.0
  0
SPLINE
  5
204
100
AcDbEntity
  8
Image
 62
7
100
AcDbSpline
 70
8
 71
3
 72
8
 73
4
 74
0
 40
0
 40
0
 40
0
 40
0
 40
1
 40
1
 40
1
 40
1
 10
229.000000
 20
43.000000
 30
0.0
 10
231.290990
 20
43.000000
 30
0.0
 10
231.405030
 20
43.374684
 30
0.0
 10
229.944600
 20
46.103514
 30
0.0
  0
SPLINE
  5
205
100
AcDbEntity
  8
Image
 62
7
100
AcDbSpline
 70
8
 71
3
 72
8
 73
4
 74
0
 40
0
 40
0
 40
0
 40
0
 40
1
 40
1
 40
1
 40
1
 10
229.944600
 20
46.103514
 30
0.0
 10
228.673710
 20
48.478194
 30
0.0
 10
229.602710
 20
52.000000
 30
0.0
 10
231.500000
 20
52.000000
 30
0.0
  0
SPLINE
  5
206
100
AcDbEntity
  8
Image
 62
7
100
AcDbSpline
 70
8
 71
3
 72
8
 73
4
 74
0
 40
0
 40
0
 40
0
 40
0
 40
1
 40
1
 40
1
 40
1
 10
231.500000
 20
52.000000
 30
0.0
 10
233.418340
 20
52.000000
 30
0.0
 10
234.227530
 20
48.753636
 30
0.0
 10
233.420850
 20
44.293713
 30
0.0
  0
SPLINE
  5
207
100
AcDbEntity
  8
Image
 62
7
100
AcDbSpline
 70
8
 71
3
 72
8
 73
4
 74
0
 40
0
 40
0
 40
0
 40
0
 40
1
 40
1
 40
1
 40
1
 10
233.420850
 20
44.293713
 30
0.0
 10
232.643150
 20
39.993957
 30
0.0
 10
232.883470
 20
40.075613
 30
0.0
 10
236.442730
 20
45.320477
 30
0.0
  0
SPLINE
  5
208
100
AcDbEntity
  8
Image
 62
7
100
AcDbSpline
 70
8
 71
3
 72
8
 73
4
 74
0
 40
0
 40
0
 40
0
 40
0
 40
1
 40
1
 40
1
 40
1
 10
236.442730
 20
45.320477
 30
0.0
 10
238.328700
 20
48.099599
 30
0.0
 10
239.000000
 20
50.380464
 30
0.0
 10
239.000000
 20
54.009225
 30
0.0
  0
SPLINE
  5
209
100
AcDbEntity
  8
Image
 62
7
100
AcDbSpline
 70
8
 71
3
 72
8
 73
4
 74
0
 40
0
 40
0
 40
0
 40
0
 40
1
 40
1
 40
1
 40
1
 10
239.000000
 20
54.009225
 30
0.0
 10
239.000000
 20
57.847178
 30
0.0
 10
239.424710
 20
59.156930
 30
0.0
 10
240.930550
 20
59.962834
 30
0.0
  0
SPLINE
  5
20a
100
AcDbEntity
  8
Image
 62
7
100
AcDbSpline
 70
8
 71
3
 72
8
 73
4
 74
0
 40
0
 40
0
 40
0
 40
0
 40
1
 40
1
 40
1
 40
1
 10
240.930550
 20
59.962834
 30
0.0
 10
243.920380
 20
61.562941
 30
0.0
 10
246.337990
 20
58.615195
 30
0.0
 10
245.537110
 20
54.346144
 30
0.0
  0
SPLINE
  5
20b
100
AcDbEntity
  8
Image
 62
7
100
AcDbSpline
 70
8
 71
3
 72
8
 73
4
 74
0
 40
0
 40
0
 40
0
 40
0
 40
1
 40
1
 40
1
 40
1
 10
245.537110
 20
54.346144
 30
0.0
 10
245.063160
 20
51.819776
 30
0.0
 10
245.259390
 20
51.000000
 30
0.0
 10
246.338060
 20
51.000000
 30
0.0
  0
SPLINE
  5
20c
100
AcDbEntity
  8
Image
 62
7
100
AcDbSpline
 70
8
 71
3
 72
8
 73
4
 74
0
 40
0
 40
0
 40
0
 40
0
 40
1
 40
1
 40
1
 40
1
 10
246.338060
 20
51.000000
 30
0.0
 10
247.123830
 20
51.000000
 30
0.0
 10
248.002090
 20
51.900000
 30
0.0
 10
248.289750
 20
53.000000
 30
0.0
  0
SPLINE
  5
20d
100
AcDbEntity
  8
Image
 62
7
100
AcDbSpline
 70
8
 71
3
 72
8
 73
4
 74
0
 40
0
 40
0
 40
0
 40
0
 40
1
 40
1
 40
1
 40
1
 10
248.289750
 20
53.000000
 30
0.0
 10
248.897550
 20
55.324239
 30
0.0
 10
251.000000
 20
55.712109
 30
0.0
 10
251.000000
 20
53.500000
 30
0.0
  0
SPLINE
  5
20e
100
AcDbEntity
  8
Image
 62
7
100
AcDbSpline
 70
8
 71
3
 72
8
 73
4
 74
0
 40
0
 40
0
 40
0
 40
0
 40
1
 40
1
 40
1
 40
1
 10
251.000000
 20
53.500000
 30
0.0
 10
251.000000
 20
52.675000
 30
0.0
 10
251.619900
 20
52.000000
 30
0.0
 10
252.377560
 20
52.000000
 30
0.0
  0
SPLINE
  5
20f
100
AcDbEntity
  8
Image
 62
7
100
AcDbSpline
 70
8
 71
3
 72
8
 73
4
 74
0
 40
0
 40
0
 40
0
 40
0
 40
1
 40
1
 40
1
 40
1
 10
252.377560
 20
52.000000
 30
0.0
 10
254.363200
 20
52.000000
 30
0.0
 10
256.519480
 20
49.119479
 30
0.0
 10
255.383900
 20
47.983902
 30
0.0
  0
SPLINE
  5
210
100
AcDbEntity
  8
Image
 62
7
100
AcDbSpline
 70
8
 71
3
 72
8
 73
4
 74
0
 40
0
 40
0
 40
0
 40
0
 40
1
 40
1
 40
1
 40
1
 10
255.383900
 20
47.983902
 30
0.0
 10
254.808790
 20
47.408789
 30
0.0
 10
253.366080
 20
47.616242
 30
0.0
 10
251.611980
 20
48.526284
 30
0.0
  0
SPLINE
  5
211
100
AcDbEntity
  8
Image
 62
7
100
AcDbSpline
 70
8
 71
3
 72
8
 73
4
 74
0
 40
0
 40
0
 40
0
 40
0
 40
1
 40
1
 40
1
 40
1
 10
251.611980
 20
48.526284
 30
0.0
 10
250.049650
 20
49.336828
 30
0.0
 10
248.289900
 20
50.000000
 30
0.0
 10
247.701420
 20
50.000000
 30
0.0
  0
SPLINE
  5
212
100
AcDbEntity
  8
Image
 62
7
100
AcDbSpline
 70
8
 71
3
 72
8
 73
4
 74
0
 40
0
 40
0
 40
0
 40
0
 40
1
 40
1
 40
1
 40
1
 10
247.701420
 20
50.000000
 30
0.0
 10
245.309320
 20
50.000000
 30
0.0
 10
237.891840
 20
45.662300
 30
0.0
 10
236.847330
 20
43.652589
 30
0.0
  0
LWPOLYLINE
  5
213
100
AcDbEntity
  8
Image
 62
7
100
AcDbPolyline
 90
1
 70
1
 10
210.200000
 20
39.200000
 30
0.0
  0
SPLINE
  5
214
100
AcDbEntity
  8
Image
 62
7
100
AcDbSpline
 70
8
 71
3
 72
8
 73
4
 74
0
 40
0
 40
0
 40
0
 40
0
 40
1
 40
1
 40
1
 40
1
 10
238.114280
 20
43.625037
 30
0.0
 10
241.883740
 20
46.982616
 30
0.0
 10
245.000000
 20
48.365126
 30
0.0
 10
245.000000
 20
46.679844
 30
0.0
  0
SPLINE
  5
215
100
AcDbEntity
  8
Image
 62
7
100
AcDbSpline
 70
8
 71
3
 72
8
 73
4
 74
0
 40
0
 40
0
 40
0
 40
0
 40
1
 40
1
 40
1
 40
1
 10
245.000000
 20
46.679844
 30
0.0
 10
245.000000
 20
45.915056
 30
0.0
 10
246.462500
 20
44.869881
 30
0.0
 10
248.250000
 20
44.357233
 30
0.0
  0
SPLINE
  5
216
100
AcDbEntity
  8
Image
 62
7
100
AcDbSpline
 70
8
 71
3
 72
8
 73
4
 74
0
 40
0
 40
0
 40
0
 40
0
 40
1
 40
1
 40
1
 40
1
 10
248.250000
 20
44.357233
 30
0.0
 10
250.784490
 20
43.630350
 30
0.0
 10
251.500000
 20
42.882996
 30
0.0
 10
251.500000
 20
40.962573
 30
0.0
  0
SPLINE
  5
217
100
AcDbEntity
  8
Image
 62
7
100
AcDbSpline
 70
8
 71
3
 72
8
 73
4
 74
0
 40
0
 40
0
 40
0
 40
0
 40
1
 40
1
 40
1
 40
1
 10
251.500000
 20
40.962573
 30
0.0
 10
251.500000
 20
38.915231
 30
0.0
 10
250.952000
 20
38.447163
 30
0.0
 10
248.250000
 20
38.186642
 30
0.0
  0
SPLINE
  5
218
100
AcDbEntity
  8
Image
 62
7
100
AcDbSpline
 70
8
 71
3
 72
8
 73
4
 74
0
 40
0
 40
0
 40
0
 40
0
 40
1
 40
1
 40
1
 40
1
 10
248.250000
 20
38.186642
 30
0.0
 10
245.307230
 20
37.902905
 30
0.0
 10
245.000000
 20
37.563063
 30
0.0
 10
245.000000
 20
34.591629
 30
0.0
  0
SPLINE
  5
219
100
AcDbEntity
  8
Image
 62
7
100
AcDbSpline
 70
8
 71
3
 72
8
 73
4
 74
0
 40
0
 40
0
 40
0
 40
0
 40
1
 40
1
 40
1
 40
1
 10
245.000000
 20
34.591629
 30
0.0
 10
245.000000
 20
32.579967
 30
0.0
 10
245.773990
 20
30.609519
 30
0.0
 10
247.000000
 20
29.500000
 30
0.0
  0
SPLINE
  5
21a
100
AcDbEntity
  8
Image
 62
7
100
AcDbSpline
 70
8
 71
3
 72
8
 73
4
 74
0
 40
0
 40
0
 40
0
 40
0
 40
1
 40
1
 40
1
 40
1
 10
247.000000
 20
29.500000
 30
0.0
 10
248.100000
 20
28.504514
 30
0.0
 10
249.000000
 20
27.116912
 30
0.0
 10
249.000000
 20
26.416441
 30
0.0
  0
SPLINE
  5
21b
100
AcDbEntity
  8
Image
 62
7
100
AcDbSpline
 70
8
 71
3
 72
8
 73
4
 74
0
 40
0
 40
0
 40
0
 40
0
 40
1
 40
1
 40
1
 40
1
 10
249.000000
 20
26.416441
 30
0.0
 10
249.000000
 20
25.715970
 30
0.0
 10
249.747980
 20
24.394876
 30
0.0
 10
250.662180
 20
23.480678
 30
0.0
  0
SPLINE
  5
21c
100
AcDbEntity
  8
Image
 62
7
100
AcDbSpline
 70
8
 71
3
 72
8
 73
4
 74
0
 40
0
 40
0
 40
0
 40
0
 40
1
 40
1
 40
1
 40
1
 10
250.662180
 20
23.480678
 30
0.0
 10
252.067210
 20
22.075649
 30
0.0
 10
252.105890
 20
21.680201
 30
0.0
 10
250.912180
 20
20.924562
 30
0.0
  0
SPLINE
  5
21d
100
AcDbEntity
  8
Image
 62
7
100
AcDbSpline
 70
8
 71
3
 72
8
 73
4
 74
0
 40
0
 40
0
 40
0
 40
0
 40
1
 40
1
 40
1
 40
1
 10
250.912180
 20
20.924562
 30
0.0
 10
250.135480
 20
20.432897
 30
0.0
 10
248.767600
 20
20.023735
 30
0.0
 10
247.872440
 20
20.015313
 30
0.0
  0
SPLINE
  5
21e
100
AcDbEntity
  8
Image
 62
7
100
AcDbSpline
 70
8
 71
3
 72
8
 73
4
 74
0
 40
0
 40
0
 40
0
 40
0
 40
1
 40
1
 40
1
 40
1
 10
247.872440
 20
20.015313
 30
0.0
 10
243.336650
 20
19.972643
 30
0.0
 10
243.723440
 20
12.716626
 30
0.0
 10
248.289930
 20
12.183541
 30
0.0
  0
SPLINE
  5
21f
100
AcDbEntity
  8
Image
 62
7
100
AcDbSpline
 70
8
 71
3
 72
8
 73
4
 74
0
 40
0
 40
0
 40
0
 40
0
 40
1
 40
1
 40
1
 40
1
 10
248.289930
 20
12.183541
 30
0.0
 10
251.172060
 20
11.847084
 30
0.0
 10
253.318050
 20
9.132644
 30
0.0
 10
252.170210
 20
7.275402
 30
0.0
  0
SPLINE
  5
220
100
AcDbEntity
  8
Image
 62
7
100
AcDbSpline
 70
8
 71
3
 72
8
 73
4
 74
0
 40
0
 40
0
 40
0
 40
0
 40
1
 40
1
 40
1
 40
1
 10
252.170210
 20
7.275402
 30
0.0
 10
251.147330
 20
5.620357
 30
0.0
 10
246.852630
 20
4.983527
 30
0.0
 10
243.988060
 20
6.062132
 30
0.0
  0
LWPOLYLINE
  5
221
100
AcDbEntity
  8
Image
 62
7
100
AcDbPolyline
 90
3
 70
0
 10
236.847330
 20
43.652589
 30
0.0
 10
235.728570
 20
41.500000
 30
0.0
 10
238.114280
 20
43.625037
 30
0.0
  0
SPLINE
  5
222
100
AcDbEntity
  8
Image
 62
7
100
AcDbSpline
 70
8
 71
3
 72
8
 73
4
 74
0
 40
0
 40
0
 40
0
 40
0
 40
1
 40
1
 40
1
 40
1
 10
237.604170
 20
37.729167
 30
0.0
 10
236.587650
 20
38.745682
 30
0.0
 10
235.748920
 20
37.215275
 30
0.0
 10
236.582950
 20
35.865785
 30
0.0
  0
SPLINE
  5
223
100
AcDbEntity
  8
Image
 62
7
100
AcDbSpline
 70
8
 71
3
 72
8
 73
4
 74
0
 40
0
 40
0
 40
0
 40
0
 40
1
 40
1
 40
1
 40
1
 10
236.582950
 20
35.865785
 30
0.0
 10
237.212980
 20
34.846368
 30
0.0
 10
237.448530
 20
34.845579
 30
0.0
 10
237.787250
 20
35.861785
 30
0.0
  0
SPLINE
  5
224
100
AcDbEntity
  8
Image
 62
7
100
AcDbSpline
 70
8
 71
3
 72
8
 73
4
 74
0
 40
0
 40
0
 40
0
 40
0
 40
1
 40
1
 40
1
 40
1
 10
237.787250
 20
35.861785
 30
0.0
 10
238.018850
 20
36.556570
 30
0.0
 10
237.936460
 20
37.396906
 30
0.0
 10
237.604170
 20
37.729198
 30
0.0
  0
LWPOLYLINE
  5
225
100
AcDbEntity
  8
Image
 62
7
100
AcDbPolyline
 90
1
 70
1
 10
243.988060
 20
6.062132
 30
0.0
  0
SPLINE
  5
226
100
AcDbEntity
  8
Image
 62
7
100
AcDbSpline
 70
8
 71
3
 72
8
 73
4
 74
0
 40
0
 40
0
 40
0
 40
0
 40
1
 40
1
 40
1
 40
1
 10
12.010569
 20
8.487265
 30
0.0
 10
10.325823
 20
10.517260
 30
0.0
 10
11.401979
 20
12.811802
 30
0.0
 10
14.390607
 20
13.561900
 30
0.0
  0
SPLINE
  5
227
100
AcDbEntity
  8
Image
 62
7
100
AcDbSpline
 70
8
 71
3
 72
8
 73
4
 74
0
 40
0
 40
0
 40
0
 40
0
 40
1
 40
1
 40
1
 40
1
 10
14.390607
 20
13.561900
 30
0.0
 10
17.794926
 20
14.416330
 30
0.0
 10
16.618869
 20
17.000000
 30
0.0
 10
12.825624
 20
17.000000
 30
0.0
  0
SPLINE
  5
228
100
AcDbEntity
  8
Image
 62
7
100
AcDbSpline
 70
8
 71
3
 72
8
 73
4
 74
0
 40
0
 40
0
 40
0
 40
0
 40
1
 40
1
 40
1
 40
1
 10
12.825624
 20
17.000000
 30
0.0
 10
10.361765
 20
17.000000
 30
0.0
 10
9.967401
 20
17.321928
 30
0.0
 10
10.474402
 20
18.919349
 30
0.0
  0
SPLINE
  5
229
100
AcDbEntity
  8
Image
 62
7
100
AcDbSpline
 70
8
 71
3
 72
8
 73
4
 74
0
 40
0
 40
0
 40
0
 40
0
 40
1
 40
1
 40
1
 40
1
 10
10.474402
 20
18.919349
 30
0.0
 10
10.910052
 20
20.291961
 30
0.0
 10
10.501965
 20
21.023295
 30
0.0
 10
9.041790
 20
21.486736
 30
0.0
  0
SPLINE
  5
22a
100
AcDbEntity
  8
Image
 62
7
100
AcDbSpline
 70
8
 71
3
 72
8
 73
4
 74
0
 40
0
 40
0
 40
0
 40
0
 40
1
 40
1
 40
1
 40
1
 10
9.041790
 20
21.486736
 30
0.0
 10
7.335176
 20
22.028395
 30
0.0
 10
6.061511
 20
24.000000
 30
0.0
 10
7.418213
 20
24.000000
 30
0.0
  0
SPLINE
  5
22b
100
AcDbEntity
  8
Image
 62
7
100
AcDbSpline
 70
8
 71
3
 72
8
 73
4
 74
0
 40
0
 40
0
 40
0
 40
0
 40
1
 40
1
 40
1
 40
1
 10
7.418213
 20
24.000000
 30
0.0
 10
7.648229
 20
24.000000
 30
0.0
 10
8.548229
 20
24.273145
 30
0.0
 10
9.418212
 20
24.606989
 30
0.0
  0
SPLINE
  5
22c
100
AcDbEntity
  8
Image
 62
7
100
AcDbSpline
 70
8
 71
3
 72
8
 73
4
 74
0
 40
0
 40
0
 40
0
 40
0
 40
1
 40
1
 40
1
 40
1
 10
9.418212
 20
24.606989
 30
0.0
 10
10.422841
 20
24.992501
 30
0.0
 10
11.000000
 20
24.672301
 30
0.0
 10
11.000000
 20
23.729434
 30
0.0
  0
SPLINE
  5
22d
100
AcDbEntity
  8
Image
 62
7
100
AcDbSpline
 70
8
 71
3
 72
8
 73
4
 74
0
 40
0
 40
0
 40
0
 40
0
 40
1
 40
1
 40
1
 40
1
 10
11.000000
 20
23.729434
 30
0.0
 10
11.000000
 20
22.912934
 30
0.0
 10
11.675000
 20
21.684689
 30
0.0
 10
12.500000
 20
21.000000
 30
0.0
  0
SPLINE
  5
22e
100
AcDbEntity
  8
Image
 62
7
100
AcDbSpline
 70
8
 71
3
 72
8
 73
4
 74
0
 40
0
 40
0
 40
0
 40
0
 40
1
 40
1
 40
1
 40
1
 10
12.500000
 20
21.000000
 30
0.0
 10
13.754965
 20
19.958471
 30
0.0
 10
14.000000
 20
20.109626
 30
0.0
 10
14.000000
 20
21.925304
 30
0.0
  0
SPLINE
  5
22f
100
AcDbEntity
  8
Image
 62
7
100
AcDbSpline
 70
8
 71
3
 72
8
 73
4
 74
0
 40
0
 40
0
 40
0
 40
0
 40
1
 40
1
 40
1
 40
1
 10
14.000000
 20
21.925304
 30
0.0
 10
14.000000
 20
23.118911
 30
0.0
 10
15.219759
 20
25.225932
 30
0.0
 10
16.710575
 20
26.607574
 30
0.0
  0
LWPOLYLINE
  5
230
100
AcDbEntity
  8
Image
 62
7
100
AcDbPolyline
 90
1
 70
1
 10
237.604170
 20
37.729198
 30
0.0
  0
SPLINE
  5
231
100
AcDbEntity
  8
Image
 62
7
100
AcDbSpline
 70
8
 71
3
 72
8
 73
4
 74
0
 40
0
 40
0
 40
0
 40
0
 40
1
 40
1
 40
1
 40
1
 10
16.190754
 20
31.647816
 30
0.0
 10
13.055603
 20
34.101440
 30
0.0
 10
10.000000
 20
38.732153
 30
0.0
 10
10.000000
 20
41.029795
 30
0.0
  0
SPLINE
  5
232
100
AcDbEntity
  8
Image
 62
7
100
AcDbSpline
 70
8
 71
3
 72
8
 73
4
 74
0
 40
0
 40
0
 40
0
 40
0
 40
1
 40
1
 40
1
 40
1
 10
10.000000
 20
41.029795
 30
0.0
 10
10.000000
 20
43.391506
 30
0.0
 10
16.414054
 20
40.672937
 30
0.0
 10
20.833555
 20
36.438040
 30
0.0
  0
SPLINE
  5
233
100
AcDbEntity
  8
Image
 62
7
100
AcDbSpline
 70
8
 71
3
 72
8
 73
4
 74
0
 40
0
 40
0
 40
0
 40
0
 40
1
 40
1
 40
1
 40
1
 10
20.833555
 20
36.438040
 30
0.0
 10
25.396198
 20
32.065979
 30
0.0
 10
27.000000
 20
31.657605
 30
0.0
 10
27.000000
 20
34.867887
 30
0.0
  0
SPLINE
  5
234
100
AcDbEntity
  8
Image
 62
7
100
AcDbSpline
 70
8
 71
3
 72
8
 73
4
 74
0
 40
0
 40
0
 40
0
 40
0
 40
1
 40
1
 40
1
 40
1
 10
27.000000
 20
34.867887
 30
0.0
 10
27.000000
 20
38.446847
 30
0.0
 10
24.412095
 20
40.158659
 30
0.0
 10
16.062064
 20
42.102963
 30
0.0
  0
SPLINE
  5
235
100
AcDbEntity
  8
Image
 62
7
100
AcDbSpline
 70
8
 71
3
 72
8
 73
4
 74
0
 40
0
 40
0
 40
0
 40
0
 40
1
 40
1
 40
1
 40
1
 10
16.062064
 20
42.102963
 30
0.0
 10
11.470395
 20
43.172132
 30
0.0
 10
7.665520
 20
43.923853
 30
0.0
 10
7.606787
 20
43.773454
 30
0.0
  0
SPLINE
  5
236
100
AcDbEntity
  8
Image
 62
7
100
AcDbSpline
 70
8
 71
3
 72
8
 73
4
 74
0
 40
0
 40
0
 40
0
 40
0
 40
1
 40
1
 40
1
 40
1
 10
7.606787
 20
43.773454
 30
0.0
 10
6.856260
 20
41.851548
 30
0.0
 10
5.111400
 20
39.537133
 30
0.0
 10
4.178557
 20
39.226186
 30
0.0
  0
SPLINE
  5
237
100
AcDbEntity
  8
Image
 62
7
100
AcDbSpline
 70
8
 71
3
 72
8
 73
4
 74
0
 40
0
 40
0
 40
0
 40
0
 40
1
 40
1
 40
1
 40
1
 10
4.178557
 20
39.226186
 30
0.0
 10
2.398363
 20
38.632788
 30
0.0
 10
2.754012
 20
43.070705
 30
0.0
 10
4.654988
 20
45.171259
 30
0.0
  0
SPLINE
  5
238
100
AcDbEntity
  8
Image
 62
7
100
AcDbSpline
 70
8
 71
3
 72
8
 73
4
 74
0
 40
0
 40
0
 40
0
 40
0
 40
1
 40
1
 40
1
 40
1
 10
4.654988
 20
45.171259
 30
0.0
 10
6.206737
 20
46.885923
 30
0.0
 10
6.183185
 20
47.000000
 30
0.0
 10
4.277432
 20
47.000000
 30
0.0
  0
SPLINE
  5
239
100
AcDbEntity
  8
Image
 62
7
100
AcDbSpline
 70
8
 71
3
 72
8
 73
4
 74
0
 40
0
 40
0
 40
0
 40
0
 40
1
 40
1
 40
1
 40
1
 10
4.277432
 20
47.000000
 30
0.0
 10
3.159534
 20
47.000000
 30
0.0
 10
1.684689
 20
47.675000
 30
0.0
 10
1.000000
 20
48.500000
 30
0.0
  0
SPLINE
  5
23a
100
AcDbEntity
  8
Image
 62
7
100
AcDbSpline
 70
8
 71
3
 72
8
 73
4
 74
0
 40
0
 40
0
 40
0
 40
0
 40
1
 40
1
 40
1
 40
1
 10
1.000000
 20
48.500000
 30
0.0
 10
-0.049246
 20
49.764265
 30
0.0
 10
0.142091
 20
50.000000
 30
0.0
 10
2.217496
 20
50.000000
 30
0.0
  0
SPLINE
  5
23b
100
AcDbEntity
  8
Image
 62
7
100
AcDbSpline
 70
8
 71
3
 72
8
 73
4
 74
0
 40
0
 40
0
 40
0
 40
0
 40
1
 40
1
 40
1
 40
1
 10
2.217496
 20
50.000000
 30
0.0
 10
4.241012
 20
50.000000
 30
0.0
 10
4.914782
 20
50.757474
 30
0.0
 10
5.997852
 20
54.250000
 30
0.0
  0
SPLINE
  5
23c
100
AcDbEntity
  8
Image
 62
7
100
AcDbSpline
 70
8
 71
3
 72
8
 73
4
 74
0
 40
0
 40
0
 40
0
 40
0
 40
1
 40
1
 40
1
 40
1
 10
5.997852
 20
54.250000
 30
0.0
 10
7.744113
 20
59.881088
 30
0.0
 10
9.713555
 20
63.000000
 30
0.0
 10
11.523053
 20
63.000000
 30
0.0
  0
SPLINE
  5
23d
100
AcDbEntity
  8
Image
 62
7
100
AcDbSpline
 70
8
 71
3
 72
8
 73
4
 74
0
 40
0
 40
0
 40
0
 40
0
 40
1
 40
1
 40
1
 40
1
 10
11.523053
 20
63.000000
 30
0.0
 10
14.235114
 20
63.000000
 30
0.0
 10
13.225054
 20
58.226264
 30
0.0
 10
10.010061
 20
55.849317
 30
0.0
  0
SPLINE
  5
23e
100
AcDbEntity
  8
Image
 62
7
100
AcDbSpline
 70
8
 71
3
 72
8
 73
4
 74
0
 40
0
 40
0
 40
0
 40
0
 40
1
 40
1
 40
1
 40
1
 10
10.010061
 20
55.849317
 30
0.0
 10
6.436731
 20
53.207440
 30
0.0
 10
5.502265
 20
50.798544
 30
0.0
 10
6.979785
 20
48.037773
 30
0.0
  0
SPLINE
  5
23f
100
AcDbEntity
  8
Image
 62
7
100
AcDbSpline
 70
8
 71
3
 72
8
 73
4
 74
0
 40
0
 40
0
 40
0
 40
0
 40
1
 40
1
 40
1
 40
1
 10
6.979785
 20
48.037773
 30
0.0
 10
8.695094
 20
44.832689
 30
0.0
 10
9.697145
 20
45.620724
 30
0.0
 10
10.260377
 20
50.617702
 30
0.0
  0
SPLINE
  5
240
100
AcDbEntity
  8
Image
 62
7
100
AcDbSpline
 70
8
 71
3
 72
8
 73
4
 74
0
 40
0
 40
0
 40
0
 40
0
 40
1
 40
1
 40
1
 40
1
 10
10.260377
 20
50.617702
 30
0.0
 10
10.922749
 20
56.494252
 30
0.0
 10
14.185744
 20
59.946970
 30
0.0
 10
19.787018
 20
60.698259
 30
0.0
  0
SPLINE
  5
241
100
AcDbEntity
  8
Image
 62
7
100
AcDbSpline
 70
8
 71
3
 72
8
 73
4
 74
0
 40
0
 40
0
 40
0
 40
0
 40
1
 40
1
 40
1
 40
1
 10
19.787018
 20
60.698259
 30
0.0
 10
25.856075
 20
61.512290
 30
0.0
 10
29.000000
 20
60.450894
 30
0.0
 10
29.000000
 20
57.587937
 30
0.0
  0
SPLINE
  5
242
100
AcDbEntity
  8
Image
 62
7
100
AcDbSpline
 70
8
 71
3
 72
8
 73
4
 74
0
 40
0
 40
0
 40
0
 40
0
 40
1
 40
1
 40
1
 40
1
 10
29.000000
 20
57.587937
 30
0.0
 10
29.000000
 20
54.828240
 30
0.0
 10
27.359525
 20
54.000000
 30
0.0
 10
21.893462
 20
54.000000
 30
0.0
  0
SPLINE
  5
243
100
AcDbEntity
  8
Image
 62
7
100
AcDbSpline
 70
8
 71
3
 72
8
 73
4
 74
0
 40
0
 40
0
 40
0
 40
0
 40
1
 40
1
 40
1
 40
1
 10
21.893462
 20
54.000000
 30
0.0
 10
18.533043
 20
54.000000
 30
0.0
 10
17.799326
 20
53.602386
 30
0.0
 10
16.927283
 20
51.308739
 30
0.0
  0
SPLINE
  5
244
100
AcDbEntity
  8
Image
 62
7
100
AcDbSpline
 70
8
 71
3
 72
8
 73
4
 74
0
 40
0
 40
0
 40
0
 40
0
 40
1
 40
1
 40
1
 40
1
 10
16.927283
 20
51.308739
 30
0.0
 10
14.910223
 20
46.003470
 30
0.0
 10
17.341229
 20
40.299869
 30
0.0
 10
19.511256
 20
45.246248
 30
0.0
  0
SPLINE
  5
245
100
AcDbEntity
  8
Image
 62
7
100
AcDbSpline
 70
8
 71
3
 72
8
 73
4
 74
0
 40
0
 40
0
 40
0
 40
0
 40
1
 40
1
 40
1
 40
1
 10
19.511256
 20
45.246248
 30
0.0
 10
20.055065
 20
46.485812
 30
0.0
 10
21.175000
 20
47.500000
 30
0.0
 10
22.000000
 20
47.500000
 30
0.0
  0
SPLINE
  5
246
100
AcDbEntity
  8
Image
 62
7
100
AcDbSpline
 70
8
 71
3
 72
8
 73
4
 74
0
 40
0
 40
0
 40
0
 40
0
 40
1
 40
1
 40
1
 40
1
 10
22.000000
 20
47.500000
 30
0.0
 10
23.547215
 20
47.500000
 30
0.0
 10
23.639189
 20
46.761613
 30
0.0
 10
22.467103
 20
43.750000
 30
0.0
  0
SPLINE
  5
247
100
AcDbEntity
  8
Image
 62
7
100
AcDbSpline
 70
8
 71
3
 72
8
 73
4
 74
0
 40
0
 40
0
 40
0
 40
0
 40
1
 40
1
 40
1
 40
1
 10
22.467103
 20
43.750000
 30
0.0
 10
22.033026
 20
42.634662
 30
0.0
 10
22.254779
 20
42.000000
 30
0.0
 10
23.078560
 20
42.000000
 30
0.0
  0
SPLINE
  5
248
100
AcDbEntity
  8
Image
 62
7
100
AcDbSpline
 70
8
 71
3
 72
8
 73
4
 74
0
 40
0
 40
0
 40
0
 40
0
 40
1
 40
1
 40
1
 40
1
 10
23.078560
 20
42.000000
 30
0.0
 10
23.789456
 20
42.000000
 30
0.0
 10
25.412601
 20
41.021559
 30
0.0
 10
26.685549
 20
39.825686
 30
0.0
  0
SPLINE
  5
249
100
AcDbEntity
  8
Image
 62
7
100
AcDbSpline
 70
8
 71
3
 72
8
 73
4
 74
0
 40
0
 40
0
 40
0
 40
0
 40
1
 40
1
 40
1
 40
1
 10
26.685549
 20
39.825686
 30
0.0
 10
28.544989
 20
38.078833
 30
0.0
 10
29.000000
 20
37.962130
 30
0.0
 10
29.000000
 20
39.232066
 30
0.0
  0
SPLINE
  5
24a
100
AcDbEntity
  8
Image
 62
7
100
AcDbSpline
 70
8
 71
3
 72
8
 73
4
 74
0
 40
0
 40
0
 40
0
 40
0
 40
1
 40
1
 40
1
 40
1
 10
29.000000
 20
39.232066
 30
0.0
 10
29.000000
 20
40.320431
 30
0.0
 10
29.622928
 20
40.649861
 30
0.0
 10
31.000000
 20
40.289749
 30
0.0
  0
SPLINE
  5
24b
100
AcDbEntity
  8
Image
 62
7
100
AcDbSpline
 70
8
 71
3
 72
8
 73
4
 74
0
 40
0
 40
0
 40
0
 40
0
 40
1
 40
1
 40
1
 40
1
 10
31.000000
 20
40.289749
 30
0.0
 10
33.464870
 20
39.645171
 30
0.0
 10
33.633349
 20
36.983692
 30
0.0
 10
31.250000
 20
36.340461
 30
0.0
  0
SPLINE
  5
24c
100
AcDbEntity
  8
Image
 62
7
100
AcDbSpline
 70
8
 71
3
 72
8
 73
4
 74
0
 40
0
 40
0
 40
0
 40
0
 40
1
 40
1
 40
1
 40
1
 10
31.250000
 20
36.340461
 30
0.0
 10
30.287500
 20
36.080696
 30
0.0
 10
28.825000
 20
34.435325
 30
0.0
 10
28.000000
 20
32.684081
 30
0.0
  0
SPLINE
  5
24d
100
AcDbEntity
  8
Image
 62
7
100
AcDbSpline
 70
8
 71
3
 72
8
 73
4
 74
0
 40
0
 40
0
 40
0
 40
0
 40
1
 40
1
 40
1
 40
1
 10
28.000000
 20
32.684081
 30
0.0
 10
27.001124
 20
30.563746
 30
0.0
 10
24.829587
 20
28.664794
 30
0.0
 10
21.500000
 20
27.000000
 30
0.0
  0
SPLINE
  5
24e
100
AcDbEntity
  8
Image
 62
7
100
AcDbSpline
 70
8
 71
3
 72
8
 73
4
 74
0
 40
0
 40
0
 40
0
 40
0
 40
1
 40
1
 40
1
 40
1
 10
21.500000
 20
27.000000
 30
0.0
 10
15.785646
 20
24.142823
 30
0.0
 10
14.599432
 20
20.951197
 30
0.0
 10
17.788250
 20
17.013173
 30
0.0
  0
SPLINE
  5
24f
100
AcDbEntity
  8
Image
 62
7
100
AcDbSpline
 70
8
 71
3
 72
8
 73
4
 74
0
 40
0
 40
0
 40
0
 40
0
 40
1
 40
1
 40
1
 40
1
 10
17.788250
 20
17.013173
 30
0.0
 10
20.361766
 20
13.835015
 30
0.0
 10
22.000000
 20
15.200548
 30
0.0
 10
22.000000
 20
20.523833
 30
0.0
  0
SPLINE
  5
250
100
AcDbEntity
  8
Image
 62
7
100
AcDbSpline
 70
8
 71
3
 72
8
 73
4
 74
0
 40
0
 40
0
 40
0
 40
0
 40
1
 40
1
 40
1
 40
1
 10
22.000000
 20
20.523833
 30
0.0
 10
22.000000
 20
24.820423
 30
0.0
 10
23.660643
 20
27.000000
 30
0.0
 10
26.934259
 20
27.000000
 30
0.0
  0
SPLINE
  5
251
100
AcDbEntity
  8
Image
 62
7
100
AcDbSpline
 70
8
 71
3
 72
8
 73
4
 74
0
 40
0
 40
0
 40
0
 40
0
 40
1
 40
1
 40
1
 40
1
 10
26.934259
 20
27.000000
 30
0.0
 10
28.349243
 20
27.000000
 30
0.0
 10
28.337072
 20
14.498341
 30
0.0
 10
26.919509
 20
11.849600
 30
0.0
  0
SPLINE
  5
252
100
AcDbEntity
  8
Image
 62
7
100
AcDbSpline
 70
8
 71
3
 72
8
 73
4
 74
0
 40
0
 40
0
 40
0
 40
0
 40
1
 40
1
 40
1
 40
1
 10
26.919509
 20
11.849600
 30
0.0
 10
24.731729
 20
7.761697
 30
0.0
 10
14.523416
 20
5.459470
 30
0.0
 10
12.010569
 20
8.487265
 30
0.0
  0
LWPOLYLINE
  5
253
100
AcDbEntity
  8
Image
 62
7
100
AcDbPolyline
 90
3
 70
0
 10
16.710575
 20
26.607574
 30
0.0
 10
19.421150
 20
29.119650
 30
0.0
 10
16.190754
 20
31.647816
 30
0.0
  0
SPLINE
  5
254
100
AcDbEntity
  8
Image
 62
7
100
AcDbSpline
 70
8
 71
3
 72
8
 73
4
 74
0
 40
0
 40
0
 40
0
 40
0
 40
1
 40
1
 40
1
 40
1
 10
250.000000
 20
27.964816
 30
0.0
 10
250.000000
 20
29.634167
 30
0.0
 10
249.598140
 20
31.000000
 30
0.0
 10
249.106990
 20
31.000000
 30
0.0
  0
SPLINE
  5
255
100
AcDbEntity
  8
Image
 62
7
100
AcDbSpline
 70
8
 71
3
 72
8
 73
4
 74
0
 40
0
 40
0
 40
0
 40
0
 40
1
 40
1
 40
1
 40
1
 10
249.106990
 20
31.000000
 30
0.0
 10
247.916790
 20
31.000000
 30
0.0
 10
246.839440
 20
33.931195
 30
0.0
 10
247.585780
 20
35.138800
 30
0.0
  0
SPLINE
  5
256
100
AcDbEntity
  8
Image
 62
7
100
AcDbSpline
 70
8
 71
3
 72
8
 73
4
 74
0
 40
0
 40
0
 40
0
 40
0
 40
1
 40
1
 40
1
 40
1
 10
247.585780
 20
35.138800
 30
0.0
 10
248.631660
 20
36.831060
 30
0.0
 10
251.000000
 20
33.896929
 30
0.0
 10
251.000000
 20
30.908940
 30
0.0
  0
SPLINE
  5
257
100
AcDbEntity
  8
Image
 62
7
100
AcDbSpline
 70
8
 71
3
 72
8
 73
4
 74
0
 40
0
 40
0
 40
0
 40
0
 40
1
 40
1
 40
1
 40
1
 10
251.000000
 20
30.908940
 30
0.0
 10
251.000000
 20
28.789853
 30
0.0
 10
251.383190
 20
28.209814
 30
0.0
 10
252.500000
 20
28.638374
 30
0.0
  0
SPLINE
  5
258
100
AcDbEntity
  8
Image
 62
7
100
AcDbSpline
 70
8
 71
3
 72
8
 73
4
 74
0
 40
0
 40
0
 40
0
 40
0
 40
1
 40
1
 40
1
 40
1
 10
252.500000
 20
28.638374
 30
0.0
 10
254.740050
 20
29.497963
 30
0.0
 10
254.311600
 20
27.237131
 30
0.0
 10
252.000000
 20
26.000000
 30
0.0
  0
SPLINE
  5
259
100
AcDbEntity
  8
Image
 62
7
100
AcDbSpline
 70
8
 71
3
 72
8
 73
4
 74
0
 40
0
 40
0
 40
0
 40
0
 40
1
 40
1
 40
1
 40
1
 10
252.000000
 20
26.000000
 30
0.0
 10
250.204190
 20
25.038912
 30
0.0
 10
250.000000
 20
25.239510
 30
0.0
 10
250.000000
 20
27.964816
 30
0.0
  0
LWPOLYLINE
  5
25a
100
AcDbEntity
  8
Image
 62
7
100
AcDbPolyline
 90
1
 70
1
 10
12.010569
 20
8.487265
 30
0.0
  0
SPLINE
  5
25b
100
AcDbEntity
  8
Image
 62
7
100
AcDbSpline
 70
8
 71
3
 72
8
 73
4
 74
0
 40
0
 40
0
 40
0
 40
0
 40
1
 40
1
 40
1
 40
1
 10
9.173062
 20
28.563902
 30
0.0
 10
9.352878
 20
30.093925
 30
0.0
 10
10.097122
 20
31.542006
 30
0.0
 10
10.826938
 20
31.781861
 30
0.0
  0
SPLINE
  5
25c
100
AcDbEntity
  8
Image
 62
7
100
AcDbSpline
 70
8
 71
3
 72
8
 73
4
 74
0
 40
0
 40
0
 40
0
 40
0
 40
1
 40
1
 40
1
 40
1
 10
10.826938
 20
31.781861
 30
0.0
 10
11.762172
 20
32.089225
 30
0.0
 10
12.057366
 20
31.396768
 30
0.0
 10
11.826938
 20
29.436098
 30
0.0
  0
SPLINE
  5
25d
100
AcDbEntity
  8
Image
 62
7
100
AcDbSpline
 70
8
 71
3
 72
8
 73
4
 74
0
 40
0
 40
0
 40
0
 40
0
 40
1
 40
1
 40
1
 40
1
 10
11.826938
 20
29.436098
 30
0.0
 10
11.647122
 20
27.906075
 30
0.0
 10
10.902878
 20
26.457994
 30
0.0
 10
10.173062
 20
26.218139
 30
0.0
  0
SPLINE
  5
25e
100
AcDbEntity
  8
Image
 62
7
100
AcDbSpline
 70
8
 71
3
 72
8
 73
4
 74
0
 40
0
 40
0
 40
0
 40
0
 40
1
 40
1
 40
1
 40
1
 10
10.173062
 20
26.218139
 30
0.0
 10
9.237829
 20
25.910775
 30
0.0
 10
8.942634
 20
26.603232
 30
0.0
 10
9.173062
 20
28.563902
 30
0.0
  0
LWPOLYLINE
  5
25f
100
AcDbEntity
  8
Image
 62
7
100
AcDbPolyline
 90
1
 70
1
 10
250.000000
 20
27.964816
 30
0.0
  0
SPLINE
  5
260
100
AcDbEntity
  8
Image
 62
7
100
AcDbSpline
 70
8
 71
3
 72
8
 73
4
 74
0
 40
0
 40
0
 40
0
 40
0
 40
1
 40
1
 40
1
 40
1
 10
102.399960
 20
35.400111
 30
0.0
 10
101.767690
 20
37.047778
 30
0.0
 10
103.514990
 20
40.000000
 30
0.0
 10
105.122440
 20
40.000000
 30
0.0
  0
SPLINE
  5
261
100
AcDbEntity
  8
Image
 62
7
100
AcDbSpline
 70
8
 71
3
 72
8
 73
4
 74
0
 40
0
 40
0
 40
0
 40
0
 40
1
 40
1
 40
1
 40
1
 10
105.122440
 20
40.000000
 30
0.0
 10
106.563540
 20
40.000000
 30
0.0
 10
106.115820
 20
36.341011
 30
0.0
 10
104.511830
 20
35.009821
 30
0.0
  0
SPLINE
  5
262
100
AcDbEntity
  8
Image
 62
7
100
AcDbSpline
 70
8
 71
3
 72
8
 73
4
 74
0
 40
0
 40
0
 40
0
 40
0
 40
1
 40
1
 40
1
 40
1
 10
104.511830
 20
35.009821
 30
0.0
 10
103.306010
 20
34.009079
 30
0.0
 10
102.905330
 20
34.083128
 30
0.0
 10
102.399960
 20
35.400111
 30
0.0
  0
LWPOLYLINE
  5
263
100
AcDbEntity
  8
Image
 62
7
100
AcDbPolyline
 90
1
 70
1
 10
9.173062
 20
28.563902
 30
0.0
  0
SPLINE
  5
264
100
AcDbEntity
  8
Image
 62
7
100
AcDbSpline
 70
8
 71
3
 72
8
 73
4
 74
0
 40
0
 40
0
 40
0
 40
0
 40
1
 40
1
 40
1
 40
1
 10
95.666667
 20
37.666667
 30
0.0
 10
94.689595
 20
38.643739
 30
0.0
 10
94.852933
 20
42.000000
 30
0.0
 10
95.877555
 20
42.000000
 30
0.0
  0
SPLINE
  5
265
100
AcDbEntity
  8
Image
 62
7
100
AcDbSpline
 70
8
 71
3
 72
8
 73
4
 74
0
 40
0
 40
0
 40
0
 40
0
 40
1
 40
1
 40
1
 40
1
 10
95.877555
 20
42.000000
 30
0.0
 10
96.360211
 20
42.000000
 30
0.0
 10
97.298951
 20
41.344712
 30
0.0
 10
97.963645
 20
40.543805
 30
0.0
  0
SPLINE
  5
266
100
AcDbEntity
  8
Image
 62
7
100
AcDbSpline
 70
8
 71
3
 72
8
 73
4
 74
0
 40
0
 40
0
 40
0
 40
0
 40
1
 40
1
 40
1
 40
1
 10
97.963645
 20
40.543805
 30
0.0
 10
99.739948
 20
38.403491
 30
0.0
 10
97.604567
 20
35.728766
 30
0.0
 10
95.666667
 20
37.666667
 30
0.0
  0
LWPOLYLINE
  5
267
100
AcDbEntity
  8
Image
 62
7
100
AcDbPolyline
 90
1
 70
1
 10
102.399960
 20
35.400111
 30
0.0
  0
SPLINE
  5
268
100
AcDbEntity
  8
Image
 62
7
100
AcDbSpline
 70
8
 71
3
 72
8
 73
4
 74
0
 40
0
 40
0
 40
0
 40
0
 40
1
 40
1
 40
1
 40
1
 10
28.654988
 20
43.828741
 30
0.0
 10
26.831826
 20
45.843312
 30
0.0
 10
26.482422
 20
48.562085
 30
0.0
 10
27.931578
 20
49.457713
 30
0.0
  0
SPLINE
  5
269
100
AcDbEntity
  8
Image
 62
7
100
AcDbSpline
 70
8
 71
3
 72
8
 73
4
 74
0
 40
0
 40
0
 40
0
 40
0
 40
1
 40
1
 40
1
 40
1
 10
27.931578
 20
49.457713
 30
0.0
 10
28.443946
 20
49.774374
 30
0.0
 10
29.505874
 20
49.115851
 30
0.0
 10
30.291418
 20
47.994330
 30
0.0
  0
SPLINE
  5
26a
100
AcDbEntity
  8
Image
 62
7
100
AcDbSpline
 70
8
 71
3
 72
8
 73
4
 74
0
 40
0
 40
0
 40
0
 40
0
 40
1
 40
1
 40
1
 40
1
 10
30.291418
 20
47.994330
 30
0.0
 10
31.190921
 20
46.710109
 30
0.0
 10
32.326885
 20
46.188207
 30
0.0
 10
33.359840
 20
46.584589
 30
0.0
  0
SPLINE
  5
26b
100
AcDbEntity
  8
Image
 62
7
100
AcDbSpline
 70
8
 71
3
 72
8
 73
4
 74
0
 40
0
 40
0
 40
0
 40
0
 40
1
 40
1
 40
1
 40
1
 10
33.359840
 20
46.584589
 30
0.0
 10
34.543129
 20
47.038660
 30
0.0
 10
35.000000
 20
46.656873
 30
0.0
 10
35.000000
 20
45.213978
 30
0.0
  0
SPLINE
  5
26c
100
AcDbEntity
  8
Image
 62
7
100
AcDbSpline
 70
8
 71
3
 72
8
 73
4
 74
0
 40
0
 40
0
 40
0
 40
0
 40
1
 40
1
 40
1
 40
1
 10
35.000000
 20
45.213978
 30
0.0
 10
35.000000
 20
43.436453
 30
0.0
 10
33.244959
 20
42.000000
 30
0.0
 10
31.073200
 20
42.000000
 30
0.0
  0
SPLINE
  5
26d
100
AcDbEntity
  8
Image
 62
7
100
AcDbSpline
 70
8
 71
3
 72
8
 73
4
 74
0
 40
0
 40
0
 40
0
 40
0
 40
1
 40
1
 40
1
 40
1
 10
31.073200
 20
42.000000
 30
0.0
 10
30.653426
 20
42.000000
 30
0.0
 10
29.565231
 20
42.822933
 30
0.0
 10
28.654988
 20
43.828741
 30
0.0
  0
LWPOLYLINE
  5
26e
100
AcDbEntity
  8
Image
 62
7
100
AcDbPolyline
 90
1
 70
1
 10
95.666667
 20
37.666667
 30
0.0
  0
SPLINE
  5
26f
100
AcDbEntity
  8
Image
 62
7
100
AcDbSpline
 70
8
 71
3
 72
8
 73
4
 74
0
 40
0
 40
0
 40
0
 40
0
 40
1
 40
1
 40
1
 40
1
 10
86.361626
 20
53.500000
 30
0.0
 10
85.477036
 20
55.805205
 30
0.0
 10
86.792999
 20
58.185923
 30
0.0
 10
88.746976
 20
57.815356
 30
0.0
  0
SPLINE
  5
270
100
AcDbEntity
  8
Image
 62
7
100
AcDbSpline
 70
8
 71
3
 72
8
 73
4
 74
0
 40
0
 40
0
 40
0
 40
0
 40
1
 40
1
 40
1
 40
1
 10
88.746976
 20
57.815356
 30
0.0
 10
89.805588
 20
57.614593
 30
0.0
 10
90.625342
 20
56.396949
 30
0.0
 10
90.816422
 20
54.741449
 30
0.0
  0
SPLINE
  5
271
100
AcDbEntity
  8
Image
 62
7
100
AcDbSpline
 70
8
 71
3
 72
8
 73
4
 74
0
 40
0
 40
0
 40
0
 40
0
 40
1
 40
1
 40
1
 40
1
 10
90.816422
 20
54.741449
 30
0.0
 10
91.072421
 20
52.523505
 30
0.0
 10
90.732249
 20
52.000000
 30
0.0
 10
89.035038
 20
52.000000
 30
0.0
  0
SPLINE
  5
272
100
AcDbEntity
  8
Image
 62
7
100
AcDbSpline
 70
8
 71
3
 72
8
 73
4
 74
0
 40
0
 40
0
 40
0
 40
0
 40
1
 40
1
 40
1
 40
1
 10
89.035038
 20
52.000000
 30
0.0
 10
87.881244
 20
52.000000
 30
0.0
 10
86.678209
 20
52.675000
 30
0.0
 10
86.361626
 20
53.500000
 30
0.0
  0
LWPOLYLINE
  5
273
100
AcDbEntity
  8
Image
 62
7
100
AcDbPolyline
 90
1
 70
1
 10
28.654988
 20
43.828741
 30
0.0
  0
LWPOLYLINE
  5
274
100
AcDbEntity
  8
Image
 62
7
100
AcDbPolyline
 90
1
 70
1
 10
86.361626
 20
53.500000
 30
0.0
  0
ENDSEC
  0
SECTION
  2
OBJECTS
  0
DICTIONARY
  5
C
330
0
100
AcDbDictionary
  3
ACAD_GROUP
350
D
  3
ACAD_MLINESTYLE
350
17
  0
DICTIONARY
  5
D
330
C
100
AcDbDictionary
  0
DICTIONARY
  5
1A
330
C
100
AcDbDictionary
  0
DICTIONARY
  5
17
330
C
100
AcDbDictionary
  3
STANDARD
350
18
  0
DICTIONARY
  5
19
330
C
100
AcDbDictionary
  0
ENDSEC
  0
EOF
